<svg xmlns="http://www.w3.org/2000/svg" version="1.1" xmlns:xlink="http://www.w3.org/1999/xlink" xmlns:svgjs="http://svgjs.dev/svgjs" width="1440" height="560" preserveAspectRatio="none" viewBox="0 0 1440 560">
    <g mask="url(&quot;#SvgjsMask1012&quot;)" fill="none">
        <path d="M-81.09 405.9L-81.09 405.9" stroke="rgba(78, 144, 78, 0.15)" stroke-width="1.5"></path>
        <path d="M-81.09 405.9L-84.85 524.12" stroke="rgba(78, 144, 78, 0.15)" stroke-width="1.5"></path>
        <path d="M-81.09 405.9L99.89 367.52" stroke="rgba(78, 144, 78, 0.15)" stroke-width="1.5"></path>
        <path d="M-81.09 405.9L106.13 516.98" stroke="rgba(78, 144, 78, 0.15)" stroke-width="1.5"></path>
        <path d="M-84.85 524.12L-84.85 524.12" stroke="rgba(78, 144, 78, 0.15)" stroke-width="1.5"></path>
        <path d="M-84.85 524.12L-75.27 692.19" stroke="rgba(78, 144, 78, 0.15)" stroke-width="1.5"></path>
        <path d="M-84.85 524.12L106.13 516.98" stroke="rgba(78, 144, 78, 0.15)" stroke-width="1.5"></path>
        <path d="M-75.27 692.19L-75.27 692.19" stroke="rgba(78, 144, 78, 0.15)" stroke-width="1.5"></path>
        <path d="M-75.27 692.19L69.41 682.05" stroke="rgba(78, 144, 78, 0.15)" stroke-width="1.5"></path>
        <path d="M-75.27 692.19L106.13 516.98" stroke="rgba(78, 144, 78, 0.15)" stroke-width="1.5"></path>
        <path d="M-75.27 692.19L-81.09 405.9" stroke="rgba(78, 144, 78, 0.15)" stroke-width="1.5"></path>
        <path d="M-75.27 692.19L237.44 654.26" stroke="rgba(78, 144, 78, 0.15)" stroke-width="1.5"></path>
        <path d="M99.89 367.52L99.89 367.52" stroke="rgba(78, 144, 78, 0.15)" stroke-width="1.5"></path>
        <path d="M99.89 367.52L106.13 516.98" stroke="rgba(78, 144, 78, 0.15)" stroke-width="1.5"></path>
        <path d="M99.89 367.52L250.38 403.05" stroke="rgba(78, 144, 78, 0.15)" stroke-width="1.5"></path>
        <path d="M106.13 516.98L106.13 516.98" stroke="rgba(78, 144, 78, 0.15)" stroke-width="1.5"></path>
        <path d="M106.13 516.98L249.57 530.61" stroke="rgba(78, 144, 78, 0.15)" stroke-width="1.5"></path>
        <path d="M106.13 516.98L69.41 682.05" stroke="rgba(78, 144, 78, 0.15)" stroke-width="1.5"></path>
        <path d="M106.13 516.98L250.38 403.05" stroke="rgba(78, 144, 78, 0.15)" stroke-width="1.5"></path>
        <path d="M106.13 516.98L237.44 654.26" stroke="rgba(78, 144, 78, 0.15)" stroke-width="1.5"></path>
        <path d="M69.41 682.05L69.41 682.05" stroke="rgba(78, 144, 78, 0.15)" stroke-width="1.5"></path>
        <path d="M69.41 682.05L237.44 654.26" stroke="rgba(78, 144, 78, 0.15)" stroke-width="1.5"></path>
        <path d="M69.41 682.05L-84.85 524.12" stroke="rgba(78, 144, 78, 0.15)" stroke-width="1.5"></path>
        <path d="M69.41 682.05L249.57 530.61" stroke="rgba(78, 144, 78, 0.15)" stroke-width="1.5"></path>
        <path d="M250.38 403.05L250.38 403.05" stroke="rgba(78, 144, 78, 0.15)" stroke-width="1.5"></path>
        <path d="M250.38 403.05L340.13 387.35" stroke="rgba(78, 144, 78, 0.15)" stroke-width="1.5"></path>
        <path d="M250.38 403.05L249.57 530.61" stroke="rgba(78, 144, 78, 0.15)" stroke-width="1.5"></path>
        <path d="M250.38 403.05L360.37 555.53" stroke="rgba(78, 144, 78, 0.15)" stroke-width="1.5"></path>
        <path d="M249.57 530.61L249.57 530.61" stroke="rgba(78, 144, 78, 0.15)" stroke-width="1.5"></path>
        <path d="M249.57 530.61L360.37 555.53" stroke="rgba(78, 144, 78, 0.15)" stroke-width="1.5"></path>
        <path d="M249.57 530.61L237.44 654.26" stroke="rgba(78, 144, 78, 0.15)" stroke-width="1.5"></path>
        <path d="M237.44 654.26L237.44 654.26" stroke="rgba(78, 144, 78, 0.15)" stroke-width="1.5"></path>
        <path d="M237.44 654.26L360.37 555.53" stroke="rgba(78, 144, 78, 0.15)" stroke-width="1.5"></path>
        <path d="M340.13 387.35L340.13 387.35" stroke="rgba(78, 144, 78, 0.15)" stroke-width="1.5"></path>
        <path d="M340.13 387.35L492.93 403.26" stroke="rgba(78, 144, 78, 0.15)" stroke-width="1.5"></path>
        <path d="M340.13 387.35L360.37 555.53" stroke="rgba(78, 144, 78, 0.15)" stroke-width="1.5"></path>
        <path d="M340.13 387.35L249.57 530.61" stroke="rgba(78, 144, 78, 0.15)" stroke-width="1.5"></path>
        <path d="M340.13 387.35L99.89 367.52" stroke="rgba(78, 144, 78, 0.15)" stroke-width="1.5"></path>
        <path d="M360.37 555.53L360.37 555.53" stroke="rgba(78, 144, 78, 0.15)" stroke-width="1.5"></path>
        <path d="M360.37 555.53L409.08 694.63" stroke="rgba(78, 144, 78, 0.15)" stroke-width="1.5"></path>
        <path d="M409.08 694.63L409.08 694.63" stroke="rgba(78, 144, 78, 0.15)" stroke-width="1.5"></path>
        <path d="M409.08 694.63L520.5 700.63" stroke="rgba(78, 144, 78, 0.15)" stroke-width="1.5"></path>
        <path d="M409.08 694.63L237.44 654.26" stroke="rgba(78, 144, 78, 0.15)" stroke-width="1.5"></path>
        <path d="M409.08 694.63L559.12 533.69" stroke="rgba(78, 144, 78, 0.15)" stroke-width="1.5"></path>
        <path d="M409.08 694.63L249.57 530.61" stroke="rgba(78, 144, 78, 0.15)" stroke-width="1.5"></path>
        <path d="M409.08 694.63L650.99 667.03" stroke="rgba(78, 144, 78, 0.15)" stroke-width="1.5"></path>
        <path d="M492.93 403.26L492.93 403.26" stroke="rgba(78, 144, 78, 0.15)" stroke-width="1.5"></path>
        <path d="M492.93 403.26L559.12 533.69" stroke="rgba(78, 144, 78, 0.15)" stroke-width="1.5"></path>
        <path d="M492.93 403.26L666.93 373.61" stroke="rgba(78, 144, 78, 0.15)" stroke-width="1.5"></path>
        <path d="M492.93 403.26L360.37 555.53" stroke="rgba(78, 144, 78, 0.15)" stroke-width="1.5"></path>
        <path d="M492.93 403.26L660.93 516.03" stroke="rgba(78, 144, 78, 0.15)" stroke-width="1.5"></path>
        <path d="M492.93 403.26L250.38 403.05" stroke="rgba(78, 144, 78, 0.15)" stroke-width="1.5"></path>
        <path d="M559.12 533.69L559.12 533.69" stroke="rgba(78, 144, 78, 0.15)" stroke-width="1.5"></path>
        <path d="M559.12 533.69L660.93 516.03" stroke="rgba(78, 144, 78, 0.15)" stroke-width="1.5"></path>
        <path d="M520.5 700.63L520.5 700.63" stroke="rgba(78, 144, 78, 0.15)" stroke-width="1.5"></path>
        <path d="M520.5 700.63L650.99 667.03" stroke="rgba(78, 144, 78, 0.15)" stroke-width="1.5"></path>
        <path d="M520.5 700.63L559.12 533.69" stroke="rgba(78, 144, 78, 0.15)" stroke-width="1.5"></path>
        <path d="M520.5 700.63L360.37 555.53" stroke="rgba(78, 144, 78, 0.15)" stroke-width="1.5"></path>
        <path d="M520.5 700.63L660.93 516.03" stroke="rgba(78, 144, 78, 0.15)" stroke-width="1.5"></path>
        <path d="M666.93 373.61L666.93 373.61" stroke="rgba(78, 144, 78, 0.15)" stroke-width="1.5"></path>
        <path d="M666.93 373.61L660.93 516.03" stroke="rgba(78, 144, 78, 0.15)" stroke-width="1.5"></path>
        <path d="M666.93 373.61L844.89 390.63" stroke="rgba(78, 144, 78, 0.15)" stroke-width="1.5"></path>
        <path d="M666.93 373.61L559.12 533.69" stroke="rgba(78, 144, 78, 0.15)" stroke-width="1.5"></path>
        <path d="M660.93 516.03L660.93 516.03" stroke="rgba(78, 144, 78, 0.15)" stroke-width="1.5"></path>
        <path d="M650.99 667.03L650.99 667.03" stroke="rgba(78, 144, 78, 0.15)" stroke-width="1.5"></path>
        <path d="M650.99 667.03L660.93 516.03" stroke="rgba(78, 144, 78, 0.15)" stroke-width="1.5"></path>
        <path d="M860.98 200.03L860.98 200.03" stroke="rgba(78, 144, 78, 0.15)" stroke-width="1.5"></path>
        <path d="M860.98 200.03L960 260.85" stroke="rgba(78, 144, 78, 0.15)" stroke-width="1.5"></path>
        <path d="M860.98 200.03L844.89 390.63" stroke="rgba(78, 144, 78, 0.15)" stroke-width="1.5"></path>
        <path d="M860.98 200.03L999.09 55.23" stroke="rgba(78, 144, 78, 0.15)" stroke-width="1.5"></path>
        <path d="M844.89 390.63L844.89 390.63" stroke="rgba(78, 144, 78, 0.15)" stroke-width="1.5"></path>
        <path d="M844.89 390.63L841.31 496.54" stroke="rgba(78, 144, 78, 0.15)" stroke-width="1.5"></path>
        <path d="M844.89 390.63L939.1 511.11" stroke="rgba(78, 144, 78, 0.15)" stroke-width="1.5"></path>
        <path d="M844.89 390.63L997.39 349.6" stroke="rgba(78, 144, 78, 0.15)" stroke-width="1.5"></path>
        <path d="M844.89 390.63L960 260.85" stroke="rgba(78, 144, 78, 0.15)" stroke-width="1.5"></path>
        <path d="M841.31 496.54L841.31 496.54" stroke="rgba(78, 144, 78, 0.15)" stroke-width="1.5"></path>
        <path d="M841.31 496.54L939.1 511.11" stroke="rgba(78, 144, 78, 0.15)" stroke-width="1.5"></path>
        <path d="M841.31 496.54L660.93 516.03" stroke="rgba(78, 144, 78, 0.15)" stroke-width="1.5"></path>
        <path d="M841.31 496.54L666.93 373.61" stroke="rgba(78, 144, 78, 0.15)" stroke-width="1.5"></path>
        <path d="M854.15 709.71L854.15 709.71" stroke="rgba(78, 144, 78, 0.15)" stroke-width="1.5"></path>
        <path d="M854.15 709.71L974.65 664.04" stroke="rgba(78, 144, 78, 0.15)" stroke-width="1.5"></path>
        <path d="M854.15 709.71L650.99 667.03" stroke="rgba(78, 144, 78, 0.15)" stroke-width="1.5"></path>
        <path d="M854.15 709.71L841.31 496.54" stroke="rgba(78, 144, 78, 0.15)" stroke-width="1.5"></path>
        <path d="M854.15 709.71L939.1 511.11" stroke="rgba(78, 144, 78, 0.15)" stroke-width="1.5"></path>
        <path d="M854.15 709.71L1116.11 660.67" stroke="rgba(78, 144, 78, 0.15)" stroke-width="1.5"></path>
        <path d="M854.15 709.71L660.93 516.03" stroke="rgba(78, 144, 78, 0.15)" stroke-width="1.5"></path>
        <path d="M973.94 -72.97L973.94 -72.97" stroke="rgba(78, 144, 78, 0.15)" stroke-width="1.5"></path>
        <path d="M973.94 -72.97L999.09 55.23" stroke="rgba(78, 144, 78, 0.15)" stroke-width="1.5"></path>
        <path d="M973.94 -72.97L1099.01 44.97" stroke="rgba(78, 144, 78, 0.15)" stroke-width="1.5"></path>
        <path d="M999.09 55.23L999.09 55.23" stroke="rgba(78, 144, 78, 0.15)" stroke-width="1.5"></path>
        <path d="M999.09 55.23L1099.01 44.97" stroke="rgba(78, 144, 78, 0.15)" stroke-width="1.5"></path>
        <path d="M999.09 55.23L960 260.85" stroke="rgba(78, 144, 78, 0.15)" stroke-width="1.5"></path>
        <path d="M960 260.85L960 260.85" stroke="rgba(78, 144, 78, 0.15)" stroke-width="1.5"></path>
        <path d="M960 260.85L997.39 349.6" stroke="rgba(78, 144, 78, 0.15)" stroke-width="1.5"></path>
        <path d="M997.39 349.6L997.39 349.6" stroke="rgba(78, 144, 78, 0.15)" stroke-width="1.5"></path>
        <path d="M997.39 349.6L1112.96 397.62" stroke="rgba(78, 144, 78, 0.15)" stroke-width="1.5"></path>
        <path d="M997.39 349.6L1116.89 239.35" stroke="rgba(78, 144, 78, 0.15)" stroke-width="1.5"></path>
        <path d="M997.39 349.6L939.1 511.11" stroke="rgba(78, 144, 78, 0.15)" stroke-width="1.5"></path>
        <path d="M997.39 349.6L860.98 200.03" stroke="rgba(78, 144, 78, 0.15)" stroke-width="1.5"></path>
        <path d="M939.1 511.11L939.1 511.11" stroke="rgba(78, 144, 78, 0.15)" stroke-width="1.5"></path>
        <path d="M974.65 664.04L974.65 664.04" stroke="rgba(78, 144, 78, 0.15)" stroke-width="1.5"></path>
        <path d="M974.65 664.04L1116.11 660.67" stroke="rgba(78, 144, 78, 0.15)" stroke-width="1.5"></path>
        <path d="M974.65 664.04L939.1 511.11" stroke="rgba(78, 144, 78, 0.15)" stroke-width="1.5"></path>
        <path d="M1150.43 -89.99L1150.43 -89.99" stroke="rgba(78, 144, 78, 0.15)" stroke-width="1.5"></path>
        <path d="M1150.43 -89.99L1099.01 44.97" stroke="rgba(78, 144, 78, 0.15)" stroke-width="1.5"></path>
        <path d="M1150.43 -89.99L1306.12 -91.09" stroke="rgba(78, 144, 78, 0.15)" stroke-width="1.5"></path>
        <path d="M1150.43 -89.99L973.94 -72.97" stroke="rgba(78, 144, 78, 0.15)" stroke-width="1.5"></path>
        <path d="M1150.43 -89.99L1277.13 67.58" stroke="rgba(78, 144, 78, 0.15)" stroke-width="1.5"></path>
        <path d="M1099.01 44.97L1099.01 44.97" stroke="rgba(78, 144, 78, 0.15)" stroke-width="1.5"></path>
        <path d="M1116.89 239.35L1116.89 239.35" stroke="rgba(78, 144, 78, 0.15)" stroke-width="1.5"></path>
        <path d="M1116.89 239.35L1112.96 397.62" stroke="rgba(78, 144, 78, 0.15)" stroke-width="1.5"></path>
        <path d="M1116.89 239.35L960 260.85" stroke="rgba(78, 144, 78, 0.15)" stroke-width="1.5"></path>
        <path d="M1112.96 397.62L1112.96 397.62" stroke="rgba(78, 144, 78, 0.15)" stroke-width="1.5"></path>
        <path d="M1112.96 397.62L1155.6 496.93" stroke="rgba(78, 144, 78, 0.15)" stroke-width="1.5"></path>
        <path d="M1155.6 496.93L1155.6 496.93" stroke="rgba(78, 144, 78, 0.15)" stroke-width="1.5"></path>
        <path d="M1155.6 496.93L1252.93 509.27" stroke="rgba(78, 144, 78, 0.15)" stroke-width="1.5"></path>
        <path d="M1155.6 496.93L1275.72 384.08" stroke="rgba(78, 144, 78, 0.15)" stroke-width="1.5"></path>
        <path d="M1155.6 496.93L1116.11 660.67" stroke="rgba(78, 144, 78, 0.15)" stroke-width="1.5"></path>
        <path d="M1116.11 660.67L1116.11 660.67" stroke="rgba(78, 144, 78, 0.15)" stroke-width="1.5"></path>
        <path d="M1116.11 660.67L1265.86 640.38" stroke="rgba(78, 144, 78, 0.15)" stroke-width="1.5"></path>
        <path d="M1116.11 660.67L1252.93 509.27" stroke="rgba(78, 144, 78, 0.15)" stroke-width="1.5"></path>
        <path d="M1116.11 660.67L939.1 511.11" stroke="rgba(78, 144, 78, 0.15)" stroke-width="1.5"></path>
        <path d="M1116.11 660.67L1112.96 397.62" stroke="rgba(78, 144, 78, 0.15)" stroke-width="1.5"></path>
        <path d="M1306.12 -91.09L1306.12 -91.09" stroke="rgba(78, 144, 78, 0.15)" stroke-width="1.5"></path>
        <path d="M1306.12 -91.09L1448.08 -77.19" stroke="rgba(78, 144, 78, 0.15)" stroke-width="1.5"></path>
        <path d="M1306.12 -91.09L1277.13 67.58" stroke="rgba(78, 144, 78, 0.15)" stroke-width="1.5"></path>
        <path d="M1306.12 -91.09L1438.31 70" stroke="rgba(78, 144, 78, 0.15)" stroke-width="1.5"></path>
        <path d="M1306.12 -91.09L1099.01 44.97" stroke="rgba(78, 144, 78, 0.15)" stroke-width="1.5"></path>
        <path d="M1277.13 67.58L1277.13 67.58" stroke="rgba(78, 144, 78, 0.15)" stroke-width="1.5"></path>
        <path d="M1277.13 67.58L1438.31 70" stroke="rgba(78, 144, 78, 0.15)" stroke-width="1.5"></path>
        <path d="M1277.13 67.58L1304.88 230.71" stroke="rgba(78, 144, 78, 0.15)" stroke-width="1.5"></path>
        <path d="M1304.88 230.71L1304.88 230.71" stroke="rgba(78, 144, 78, 0.15)" stroke-width="1.5"></path>
        <path d="M1304.88 230.71L1449.02 262.09" stroke="rgba(78, 144, 78, 0.15)" stroke-width="1.5"></path>
        <path d="M1304.88 230.71L1275.72 384.08" stroke="rgba(78, 144, 78, 0.15)" stroke-width="1.5"></path>
        <path d="M1275.72 384.08L1275.72 384.08" stroke="rgba(78, 144, 78, 0.15)" stroke-width="1.5"></path>
        <path d="M1275.72 384.08L1252.93 509.27" stroke="rgba(78, 144, 78, 0.15)" stroke-width="1.5"></path>
        <path d="M1252.93 509.27L1252.93 509.27" stroke="rgba(78, 144, 78, 0.15)" stroke-width="1.5"></path>
        <path d="M1252.93 509.27L1265.86 640.38" stroke="rgba(78, 144, 78, 0.15)" stroke-width="1.5"></path>
        <path d="M1265.86 640.38L1265.86 640.38" stroke="rgba(78, 144, 78, 0.15)" stroke-width="1.5"></path>
        <path d="M1265.86 640.38L1416.79 676.76" stroke="rgba(78, 144, 78, 0.15)" stroke-width="1.5"></path>
        <path d="M1265.86 640.38L1155.6 496.93" stroke="rgba(78, 144, 78, 0.15)" stroke-width="1.5"></path>
        <path d="M1265.86 640.38L1458.49 497.37" stroke="rgba(78, 144, 78, 0.15)" stroke-width="1.5"></path>
        <path d="M1265.86 640.38L1275.72 384.08" stroke="rgba(78, 144, 78, 0.15)" stroke-width="1.5"></path>
        <path d="M1448.08 -77.19L1448.08 -77.19" stroke="rgba(78, 144, 78, 0.15)" stroke-width="1.5"></path>
        <path d="M1448.08 -77.19L1562.34 -58.56" stroke="rgba(78, 144, 78, 0.15)" stroke-width="1.5"></path>
        <path d="M1438.31 70L1438.31 70" stroke="rgba(78, 144, 78, 0.15)" stroke-width="1.5"></path>
        <path d="M1438.31 70L1544.73 90.75" stroke="rgba(78, 144, 78, 0.15)" stroke-width="1.5"></path>
        <path d="M1438.31 70L1448.08 -77.19" stroke="rgba(78, 144, 78, 0.15)" stroke-width="1.5"></path>
        <path d="M1438.31 70L1562.34 -58.56" stroke="rgba(78, 144, 78, 0.15)" stroke-width="1.5"></path>
        <path d="M1438.31 70L1449.02 262.09" stroke="rgba(78, 144, 78, 0.15)" stroke-width="1.5"></path>
        <path d="M1449.02 262.09L1449.02 262.09" stroke="rgba(78, 144, 78, 0.15)" stroke-width="1.5"></path>
        <path d="M1449.02 262.09L1543.56 257.43" stroke="rgba(78, 144, 78, 0.15)" stroke-width="1.5"></path>
        <path d="M1449.02 262.09L1443.18 382.07" stroke="rgba(78, 144, 78, 0.15)" stroke-width="1.5"></path>
        <path d="M1449.02 262.09L1547.79 340.6" stroke="rgba(78, 144, 78, 0.15)" stroke-width="1.5"></path>
        <path d="M1443.18 382.07L1443.18 382.07" stroke="rgba(78, 144, 78, 0.15)" stroke-width="1.5"></path>
        <path d="M1443.18 382.07L1547.79 340.6" stroke="rgba(78, 144, 78, 0.15)" stroke-width="1.5"></path>
        <path d="M1443.18 382.07L1458.49 497.37" stroke="rgba(78, 144, 78, 0.15)" stroke-width="1.5"></path>
        <path d="M1443.18 382.07L1549.04 496.04" stroke="rgba(78, 144, 78, 0.15)" stroke-width="1.5"></path>
        <path d="M1458.49 497.37L1458.49 497.37" stroke="rgba(78, 144, 78, 0.15)" stroke-width="1.5"></path>
        <path d="M1458.49 497.37L1549.04 496.04" stroke="rgba(78, 144, 78, 0.15)" stroke-width="1.5"></path>
        <path d="M1458.49 497.37L1547.79 340.6" stroke="rgba(78, 144, 78, 0.15)" stroke-width="1.5"></path>
        <path d="M1458.49 497.37L1416.79 676.76" stroke="rgba(78, 144, 78, 0.15)" stroke-width="1.5"></path>
        <path d="M1416.79 676.76L1416.79 676.76" stroke="rgba(78, 144, 78, 0.15)" stroke-width="1.5"></path>
        <path d="M1562.34 -58.56L1562.34 -58.56" stroke="rgba(78, 144, 78, 0.15)" stroke-width="1.5"></path>
        <path d="M1562.34 -58.56L1544.73 90.75" stroke="rgba(78, 144, 78, 0.15)" stroke-width="1.5"></path>
        <path d="M1562.34 -58.56L1306.12 -91.09" stroke="rgba(78, 144, 78, 0.15)" stroke-width="1.5"></path>
        <path d="M1562.34 -58.56L1277.13 67.58" stroke="rgba(78, 144, 78, 0.15)" stroke-width="1.5"></path>
        <path d="M1544.73 90.75L1544.73 90.75" stroke="rgba(78, 144, 78, 0.15)" stroke-width="1.5"></path>
        <path d="M1544.73 90.75L1543.56 257.43" stroke="rgba(78, 144, 78, 0.15)" stroke-width="1.5"></path>
        <path d="M1543.56 257.43L1543.56 257.43" stroke="rgba(78, 144, 78, 0.15)" stroke-width="1.5"></path>
        <path d="M1543.56 257.43L1547.79 340.6" stroke="rgba(78, 144, 78, 0.15)" stroke-width="1.5"></path>
        <path d="M1547.79 340.6L1547.79 340.6" stroke="rgba(78, 144, 78, 0.15)" stroke-width="1.5"></path>
        <path d="M1547.79 340.6L1549.04 496.04" stroke="rgba(78, 144, 78, 0.15)" stroke-width="1.5"></path>
        <path d="M1547.79 340.6L1544.73 90.75" stroke="rgba(78, 144, 78, 0.15)" stroke-width="1.5"></path>
        <path d="M1549.04 496.04L1549.04 496.04" stroke="rgba(78, 144, 78, 0.15)" stroke-width="1.5"></path>
        <path d="M1549.04 496.04L1608.93 691.04" stroke="rgba(78, 144, 78, 0.15)" stroke-width="1.5"></path>
        <path d="M1549.04 496.04L1416.79 676.76" stroke="rgba(78, 144, 78, 0.15)" stroke-width="1.5"></path>
        <path d="M1549.04 496.04L1543.56 257.43" stroke="rgba(78, 144, 78, 0.15)" stroke-width="1.5"></path>
        <path d="M1608.93 691.04L1608.93 691.04" stroke="rgba(78, 144, 78, 0.15)" stroke-width="1.5"></path>
        <path d="M1608.93 691.04L1416.79 676.76" stroke="rgba(78, 144, 78, 0.15)" stroke-width="1.5"></path>
        <path d="M1608.93 691.04L1458.49 497.37" stroke="rgba(78, 144, 78, 0.15)" stroke-width="1.5"></path>
        <path d="M1608.93 691.04L1265.86 640.38" stroke="rgba(78, 144, 78, 0.15)" stroke-width="1.5"></path>
        <circle r="5" cx="-81.09" cy="405.9" fill="rgba(78, 144, 78, 0.15)"></circle>
        <circle r="5" cx="-84.85" cy="524.12" fill="rgba(78, 144, 78, 0.15)"></circle>
        <circle r="5" cx="-75.27" cy="692.19" fill="rgba(78, 144, 78, 0.15)"></circle>
        <circle r="5" cx="99.89" cy="367.52" fill="rgba(78, 144, 78, 0.15)"></circle>
        <circle r="5" cx="106.13" cy="516.98" fill="rgba(78, 144, 78, 0.15)"></circle>
        <circle r="5" cx="69.41" cy="682.05" fill="rgba(78, 144, 78, 0.15)"></circle>
        <circle r="5" cx="250.38" cy="403.05" fill="rgba(78, 144, 78, 0.15)"></circle>
        <circle r="5" cx="249.57" cy="530.61" fill="rgba(78, 144, 78, 0.15)"></circle>
        <circle r="5" cx="237.44" cy="654.26" fill="rgba(78, 144, 78, 0.15)"></circle>
        <circle r="5" cx="340.13" cy="387.35" fill="rgba(78, 144, 78, 0.15)"></circle>
        <circle r="5" cx="360.37" cy="555.53" fill="rgba(78, 144, 78, 0.15)"></circle>
        <circle r="5" cx="409.08" cy="694.63" fill="rgba(78, 144, 78, 0.15)"></circle>
        <circle r="5" cx="492.93" cy="403.26" fill="rgba(78, 144, 78, 0.15)"></circle>
        <circle r="5" cx="559.12" cy="533.69" fill="rgba(78, 144, 78, 0.15)"></circle>
        <circle r="5" cx="520.5" cy="700.63" fill="rgba(78, 144, 78, 0.15)"></circle>
        <circle r="5" cx="666.93" cy="373.61" fill="rgba(78, 144, 78, 0.15)"></circle>
        <circle r="5" cx="660.93" cy="516.03" fill="rgba(78, 144, 78, 0.15)"></circle>
        <circle r="5" cx="650.99" cy="667.03" fill="rgba(78, 144, 78, 0.15)"></circle>
        <circle r="5" cx="860.98" cy="200.03" fill="rgba(78, 144, 78, 0.15)"></circle>
        <circle r="5" cx="844.89" cy="390.63" fill="rgba(78, 144, 78, 0.15)"></circle>
        <circle r="5" cx="841.31" cy="496.54" fill="rgba(78, 144, 78, 0.15)"></circle>
        <circle r="5" cx="854.15" cy="709.71" fill="rgba(78, 144, 78, 0.15)"></circle>
        <circle r="5" cx="973.94" cy="-72.97" fill="rgba(78, 144, 78, 0.15)"></circle>
        <circle r="5" cx="999.09" cy="55.23" fill="rgba(78, 144, 78, 0.15)"></circle>
        <circle r="5" cx="960" cy="260.85" fill="rgba(78, 144, 78, 0.15)"></circle>
        <circle r="5" cx="997.39" cy="349.6" fill="rgba(78, 144, 78, 0.15)"></circle>
        <circle r="5" cx="939.1" cy="511.11" fill="rgba(78, 144, 78, 0.15)"></circle>
        <circle r="5" cx="974.65" cy="664.04" fill="rgba(78, 144, 78, 0.15)"></circle>
        <circle r="5" cx="1150.43" cy="-89.99" fill="rgba(78, 144, 78, 0.15)"></circle>
        <circle r="5" cx="1099.01" cy="44.97" fill="rgba(78, 144, 78, 0.15)"></circle>
        <circle r="5" cx="1116.89" cy="239.35" fill="rgba(78, 144, 78, 0.15)"></circle>
        <circle r="5" cx="1112.96" cy="397.62" fill="rgba(78, 144, 78, 0.15)"></circle>
        <circle r="5" cx="1155.6" cy="496.93" fill="rgba(78, 144, 78, 0.15)"></circle>
        <circle r="5" cx="1116.11" cy="660.67" fill="rgba(78, 144, 78, 0.15)"></circle>
        <circle r="5" cx="1306.12" cy="-91.09" fill="rgba(78, 144, 78, 0.15)"></circle>
        <circle r="5" cx="1277.13" cy="67.58" fill="rgba(78, 144, 78, 0.15)"></circle>
        <circle r="5" cx="1304.88" cy="230.71" fill="rgba(78, 144, 78, 0.15)"></circle>
        <circle r="5" cx="1275.72" cy="384.08" fill="rgba(78, 144, 78, 0.15)"></circle>
        <circle r="5" cx="1252.93" cy="509.27" fill="rgba(78, 144, 78, 0.15)"></circle>
        <circle r="5" cx="1265.86" cy="640.38" fill="rgba(78, 144, 78, 0.15)"></circle>
        <circle r="5" cx="1448.08" cy="-77.19" fill="rgba(78, 144, 78, 0.15)"></circle>
        <circle r="5" cx="1438.31" cy="70" fill="rgba(78, 144, 78, 0.15)"></circle>
        <circle r="5" cx="1449.02" cy="262.09" fill="rgba(78, 144, 78, 0.15)"></circle>
        <circle r="5" cx="1443.18" cy="382.07" fill="rgba(78, 144, 78, 0.15)"></circle>
        <circle r="5" cx="1458.49" cy="497.37" fill="rgba(78, 144, 78, 0.15)"></circle>
        <circle r="5" cx="1416.79" cy="676.76" fill="rgba(78, 144, 78, 0.15)"></circle>
        <circle r="5" cx="1562.34" cy="-58.56" fill="rgba(78, 144, 78, 0.15)"></circle>
        <circle r="5" cx="1544.73" cy="90.75" fill="rgba(78, 144, 78, 0.15)"></circle>
        <circle r="5" cx="1543.56" cy="257.43" fill="rgba(78, 144, 78, 0.15)"></circle>
        <circle r="5" cx="1547.79" cy="340.6" fill="rgba(78, 144, 78, 0.15)"></circle>
        <circle r="5" cx="1549.04" cy="496.04" fill="rgba(78, 144, 78, 0.15)"></circle>
        <circle r="5" cx="1608.93" cy="691.04" fill="rgba(78, 144, 78, 0.15)"></circle>
        <path d="M69.23 508.29L69.23 508.29" stroke="rgb(177 221 177 / 15%)" stroke-width="1.5"></path>
        <path d="M69.23 508.29L193.52 517.73" stroke="rgb(177 221 177 / 15%)" stroke-width="1.5"></path>
        <path d="M69.23 508.29L95.46 672.67" stroke="rgb(177 221 177 / 15%)" stroke-width="1.5"></path>
        <path d="M69.23 508.29L-102.8 491.52" stroke="rgb(177 221 177 / 15%)" stroke-width="1.5"></path>
        <path d="M69.23 508.29L215.35 644.24" stroke="rgb(177 221 177 / 15%)" stroke-width="1.5"></path>
        <path d="M69.23 508.29L-74.27 693.37" stroke="rgb(177 221 177 / 15%)" stroke-width="1.5"></path>
        <path d="M363.04 549.04L363.04 549.04" stroke="rgb(177 221 177 / 15%)" stroke-width="1.5"></path>
        <path d="M363.04 549.04L384.09 690.1" stroke="rgb(177 221 177 / 15%)" stroke-width="1.5"></path>
        <path d="M532.43 682.48L532.43 682.48" stroke="rgb(177 221 177 / 15%)" stroke-width="1.5"></path>
        <path d="M532.43 682.48L554.59 542.83" stroke="rgb(177 221 177 / 15%)" stroke-width="1.5"></path>
        <path d="M532.43 682.48L384.09 690.1" stroke="rgb(177 221 177 / 15%)" stroke-width="1.5"></path>
        <path d="M532.43 682.48L706.36 681.06" stroke="rgb(177 221 177 / 15%)" stroke-width="1.5"></path>
        <path d="M532.43 682.48L363.04 549.04" stroke="rgb(177 221 177 / 15%)" stroke-width="1.5"></path>
        <path d="M712.32 501.79L712.32 501.79" stroke="rgb(177 221 177 / 15%)" stroke-width="1.5"></path>
        <path d="M712.32 501.79L787.78 529.48" stroke="rgb(177 221 177 / 15%)" stroke-width="1.5"></path>
        <path d="M712.32 501.79L703.4 391.1" stroke="rgb(177 221 177 / 15%)" stroke-width="1.5"></path>
        <path d="M712.32 501.79L554.59 542.83" stroke="rgb(177 221 177 / 15%)" stroke-width="1.5"></path>
        <path d="M712.32 501.79L805.45 652.5" stroke="rgb(177 221 177 / 15%)" stroke-width="1.5"></path>
        <path d="M846.03 381.55L846.03 381.55" stroke="rgb(177 221 177 / 15%)" stroke-width="1.5"></path>
        <path d="M846.03 381.55L979.4 381.27" stroke="rgb(177 221 177 / 15%)" stroke-width="1.5"></path>
        <path d="M846.03 381.55L703.4 391.1" stroke="rgb(177 221 177 / 15%)" stroke-width="1.5"></path>
        <path d="M787.78 529.48L787.78 529.48" stroke="rgb(177 221 177 / 15%)" stroke-width="1.5"></path>
        <path d="M787.78 529.48L805.45 652.5" stroke="rgb(177 221 177 / 15%)" stroke-width="1.5"></path>
        <path d="M787.78 529.48L846.03 381.55" stroke="rgb(177 221 177 / 15%)" stroke-width="1.5"></path>
        <path d="M787.78 529.48L703.4 391.1" stroke="rgb(177 221 177 / 15%)" stroke-width="1.5"></path>
        <path d="M787.78 529.48L706.36 681.06" stroke="rgb(177 221 177 / 15%)" stroke-width="1.5"></path>
        <path d="M1137.73 531.6L1137.73 531.6" stroke="rgb(177 221 177 / 15%)" stroke-width="1.5"></path>
        <path d="M1137.73 531.6L1258.01 519.44" stroke="rgb(177 221 177 / 15%)" stroke-width="1.5"></path>
        <path d="M1137.73 531.6L1151.99 411.16" stroke="rgb(177 221 177 / 15%)" stroke-width="1.5"></path>
        <path d="M1137.73 531.6L1001.91 562.38" stroke="rgb(177 221 177 / 15%)" stroke-width="1.5"></path>
        <path d="M1137.73 531.6L1136.47 708.04" stroke="rgb(177 221 177 / 15%)" stroke-width="1.5"></path>
        <path d="M1137.73 531.6L1277.88 644.49" stroke="rgb(177 221 177 / 15%)" stroke-width="1.5"></path>
        <path d="M1137.73 531.6L979.4 381.27" stroke="rgb(177 221 177 / 15%)" stroke-width="1.5"></path>
        <path d="M1452.59 -76.47L1452.59 -76.47" stroke="rgb(177 221 177 / 15%)" stroke-width="1.5"></path>
        <path d="M1452.59 -76.47L1541.48 -47.95" stroke="rgb(177 221 177 / 15%)" stroke-width="1.5"></path>
        <path d="M1452.59 -76.47L1456.99 66.66" stroke="rgb(177 221 177 / 15%)" stroke-width="1.5"></path>
        <path d="M1446.7 532.79L1446.7 532.79" stroke="rgb(177 221 177 / 15%)" stroke-width="1.5"></path>
        <path d="M1446.7 532.79L1398.92 406.32" stroke="rgb(177 221 177 / 15%)" stroke-width="1.5"></path>
        <path d="M1446.7 532.79L1429.88 675.48" stroke="rgb(177 221 177 / 15%)" stroke-width="1.5"></path>
        <path d="M1446.7 532.79L1258.01 519.44" stroke="rgb(177 221 177 / 15%)" stroke-width="1.5"></path>
        <path d="M1446.7 532.79L1277.88 644.49" stroke="rgb(177 221 177 / 15%)" stroke-width="1.5"></path>
        <path d="M1446.7 532.79L1582.01 378.12" stroke="rgb(177 221 177 / 15%)" stroke-width="1.5"></path>
        <path d="M1446.7 532.79L1602.33 697.52" stroke="rgb(177 221 177 / 15%)" stroke-width="1.5"></path>
        <path d="M1541.48 -47.95L1541.48 -47.95" stroke="rgb(177 221 177 / 15%)" stroke-width="1.5"></path>
        <path d="M1541.48 -47.95L1456.99 66.66" stroke="rgb(177 221 177 / 15%)" stroke-width="1.5"></path>
        <path d="M1541.48 -47.95L1600.68 107.51" stroke="rgb(177 221 177 / 15%)" stroke-width="1.5"></path>
        <path d="M1541.48 -47.95L1251.95 -43.63" stroke="rgb(177 221 177 / 15%)" stroke-width="1.5"></path>
        <path d="M-102.8 491.52L-102.8 491.52" stroke="rgb(177 221 177 / 15%)" stroke-width="1.5"></path>
        <path d="M-102.8 491.52L-74.27 693.37" stroke="rgb(177 221 177 / 15%)" stroke-width="1.5"></path>
        <path d="M-102.8 491.52L95.46 672.67" stroke="rgb(177 221 177 / 15%)" stroke-width="1.5"></path>
        <path d="M-102.8 491.52L193.52 517.73" stroke="rgb(177 221 177 / 15%)" stroke-width="1.5"></path>
        <path d="M-102.8 491.52L215.35 644.24" stroke="rgb(177 221 177 / 15%)" stroke-width="1.5"></path>
        <path d="M-102.8 491.52L363.04 549.04" stroke="rgb(177 221 177 / 15%)" stroke-width="1.5"></path>
        <path d="M-74.27 693.37L-74.27 693.37" stroke="rgb(177 221 177 / 15%)" stroke-width="1.5"></path>
        <path d="M-74.27 693.37L95.46 672.67" stroke="rgb(177 221 177 / 15%)" stroke-width="1.5"></path>
        <path d="M-74.27 693.37L215.35 644.24" stroke="rgb(177 221 177 / 15%)" stroke-width="1.5"></path>
        <path d="M-74.27 693.37L193.52 517.73" stroke="rgb(177 221 177 / 15%)" stroke-width="1.5"></path>
        <path d="M-74.27 693.37L384.09 690.1" stroke="rgb(177 221 177 / 15%)" stroke-width="1.5"></path>
        <path d="M95.46 672.67L95.46 672.67" stroke="rgb(177 221 177 / 15%)" stroke-width="1.5"></path>
        <path d="M95.46 672.67L215.35 644.24" stroke="rgb(177 221 177 / 15%)" stroke-width="1.5"></path>
        <path d="M95.46 672.67L193.52 517.73" stroke="rgb(177 221 177 / 15%)" stroke-width="1.5"></path>
        <path d="M193.52 517.73L193.52 517.73" stroke="rgb(177 221 177 / 15%)" stroke-width="1.5"></path>
        <path d="M193.52 517.73L215.35 644.24" stroke="rgb(177 221 177 / 15%)" stroke-width="1.5"></path>
        <path d="M215.35 644.24L215.35 644.24" stroke="rgb(177 221 177 / 15%)" stroke-width="1.5"></path>
        <path d="M215.35 644.24L384.09 690.1" stroke="rgb(177 221 177 / 15%)" stroke-width="1.5"></path>
        <path d="M384.09 690.1L384.09 690.1" stroke="rgb(177 221 177 / 15%)" stroke-width="1.5"></path>
        <path d="M384.09 690.1L554.59 542.83" stroke="rgb(177 221 177 / 15%)" stroke-width="1.5"></path>
        <path d="M384.09 690.1L193.52 517.73" stroke="rgb(177 221 177 / 15%)" stroke-width="1.5"></path>
        <path d="M554.59 542.83L554.59 542.83" stroke="rgb(177 221 177 / 15%)" stroke-width="1.5"></path>
        <path d="M554.59 542.83L363.04 549.04" stroke="rgb(177 221 177 / 15%)" stroke-width="1.5"></path>
        <path d="M703.4 391.1L703.4 391.1" stroke="rgb(177 221 177 / 15%)" stroke-width="1.5"></path>
        <path d="M703.4 391.1L554.59 542.83" stroke="rgb(177 221 177 / 15%)" stroke-width="1.5"></path>
        <path d="M706.36 681.06L706.36 681.06" stroke="rgb(177 221 177 / 15%)" stroke-width="1.5"></path>
        <path d="M706.36 681.06L805.45 652.5" stroke="rgb(177 221 177 / 15%)" stroke-width="1.5"></path>
        <path d="M706.36 681.06L712.32 501.79" stroke="rgb(177 221 177 / 15%)" stroke-width="1.5"></path>
        <path d="M706.36 681.06L554.59 542.83" stroke="rgb(177 221 177 / 15%)" stroke-width="1.5"></path>
        <path d="M805.45 652.5L805.45 652.5" stroke="rgb(177 221 177 / 15%)" stroke-width="1.5"></path>
        <path d="M805.45 652.5L1001.91 562.38" stroke="rgb(177 221 177 / 15%)" stroke-width="1.5"></path>
        <path d="M805.45 652.5L554.59 542.83" stroke="rgb(177 221 177 / 15%)" stroke-width="1.5"></path>
        <path d="M805.45 652.5L846.03 381.55" stroke="rgb(177 221 177 / 15%)" stroke-width="1.5"></path>
        <path d="M979.4 381.27L979.4 381.27" stroke="rgb(177 221 177 / 15%)" stroke-width="1.5"></path>
        <path d="M979.4 381.27L1151.99 411.16" stroke="rgb(177 221 177 / 15%)" stroke-width="1.5"></path>
        <path d="M979.4 381.27L1001.91 562.38" stroke="rgb(177 221 177 / 15%)" stroke-width="1.5"></path>
        <path d="M1001.91 562.38L1001.91 562.38" stroke="rgb(177 221 177 / 15%)" stroke-width="1.5"></path>
        <path d="M1160.31 81.52L1160.31 81.52" stroke="rgb(177 221 177 / 15%)" stroke-width="1.5"></path>
        <path d="M1160.31 81.52L1245.24 110.82" stroke="rgb(177 221 177 / 15%)" stroke-width="1.5"></path>
        <path d="M1160.31 81.52L1251.95 -43.63" stroke="rgb(177 221 177 / 15%)" stroke-width="1.5"></path>
        <path d="M1160.31 81.52L1301.62 188.97" stroke="rgb(177 221 177 / 15%)" stroke-width="1.5"></path>
        <path d="M1160.31 81.52L1406.88 228.89" stroke="rgb(177 221 177 / 15%)" stroke-width="1.5"></path>
        <path d="M1151.99 411.16L1151.99 411.16" stroke="rgb(177 221 177 / 15%)" stroke-width="1.5"></path>
        <path d="M1151.99 411.16L1277.39 356.24" stroke="rgb(177 221 177 / 15%)" stroke-width="1.5"></path>
        <path d="M1151.99 411.16L1258.01 519.44" stroke="rgb(177 221 177 / 15%)" stroke-width="1.5"></path>
        <path d="M1136.47 708.04L1136.47 708.04" stroke="rgb(177 221 177 / 15%)" stroke-width="1.5"></path>
        <path d="M1136.47 708.04L1277.88 644.49" stroke="rgb(177 221 177 / 15%)" stroke-width="1.5"></path>
        <path d="M1251.95 -43.63L1251.95 -43.63" stroke="rgb(177 221 177 / 15%)" stroke-width="1.5"></path>
        <path d="M1251.95 -43.63L1245.24 110.82" stroke="rgb(177 221 177 / 15%)" stroke-width="1.5"></path>
        <path d="M1251.95 -43.63L1452.59 -76.47" stroke="rgb(177 221 177 / 15%)" stroke-width="1.5"></path>
        <path d="M1245.24 110.82L1245.24 110.82" stroke="rgb(177 221 177 / 15%)" stroke-width="1.5"></path>
        <path d="M1245.24 110.82L1301.62 188.97" stroke="rgb(177 221 177 / 15%)" stroke-width="1.5"></path>
        <path d="M1245.24 110.82L1406.88 228.89" stroke="rgb(177 221 177 / 15%)" stroke-width="1.5"></path>
        <path d="M1245.24 110.82L1456.99 66.66" stroke="rgb(177 221 177 / 15%)" stroke-width="1.5"></path>
        <path d="M1245.24 110.82L1277.39 356.24" stroke="rgb(177 221 177 / 15%)" stroke-width="1.5"></path>
        <path d="M1301.62 188.97L1301.62 188.97" stroke="rgb(177 221 177 / 15%)" stroke-width="1.5"></path>
        <path d="M1301.62 188.97L1406.88 228.89" stroke="rgb(177 221 177 / 15%)" stroke-width="1.5"></path>
        <path d="M1301.62 188.97L1277.39 356.24" stroke="rgb(177 221 177 / 15%)" stroke-width="1.5"></path>
        <path d="M1301.62 188.97L1456.99 66.66" stroke="rgb(177 221 177 / 15%)" stroke-width="1.5"></path>
        <path d="M1277.39 356.24L1277.39 356.24" stroke="rgb(177 221 177 / 15%)" stroke-width="1.5"></path>
        <path d="M1277.39 356.24L1398.92 406.32" stroke="rgb(177 221 177 / 15%)" stroke-width="1.5"></path>
        <path d="M1258.01 519.44L1258.01 519.44" stroke="rgb(177 221 177 / 15%)" stroke-width="1.5"></path>
        <path d="M1258.01 519.44L1277.88 644.49" stroke="rgb(177 221 177 / 15%)" stroke-width="1.5"></path>
        <path d="M1258.01 519.44L1277.39 356.24" stroke="rgb(177 221 177 / 15%)" stroke-width="1.5"></path>
        <path d="M1258.01 519.44L1398.92 406.32" stroke="rgb(177 221 177 / 15%)" stroke-width="1.5"></path>
        <path d="M1277.88 644.49L1277.88 644.49" stroke="rgb(177 221 177 / 15%)" stroke-width="1.5"></path>
        <path d="M1456.99 66.66L1456.99 66.66" stroke="rgb(177 221 177 / 15%)" stroke-width="1.5"></path>
        <path d="M1456.99 66.66L1600.68 107.51" stroke="rgb(177 221 177 / 15%)" stroke-width="1.5"></path>
        <path d="M1456.99 66.66L1406.88 228.89" stroke="rgb(177 221 177 / 15%)" stroke-width="1.5"></path>
        <path d="M1406.88 228.89L1406.88 228.89" stroke="rgb(177 221 177 / 15%)" stroke-width="1.5"></path>
        <path d="M1398.92 406.32L1398.92 406.32" stroke="rgb(177 221 177 / 15%)" stroke-width="1.5"></path>
        <path d="M1429.88 675.48L1429.88 675.48" stroke="rgb(177 221 177 / 15%)" stroke-width="1.5"></path>
        <path d="M1429.88 675.48L1277.88 644.49" stroke="rgb(177 221 177 / 15%)" stroke-width="1.5"></path>
        <path d="M1429.88 675.48L1602.33 697.52" stroke="rgb(177 221 177 / 15%)" stroke-width="1.5"></path>
        <path d="M1429.88 675.48L1258.01 519.44" stroke="rgb(177 221 177 / 15%)" stroke-width="1.5"></path>
        <path d="M1429.88 675.48L1398.92 406.32" stroke="rgb(177 221 177 / 15%)" stroke-width="1.5"></path>
        <path d="M1429.88 675.48L1136.47 708.04" stroke="rgb(177 221 177 / 15%)" stroke-width="1.5"></path>
        <path d="M1600.68 107.51L1600.68 107.51" stroke="rgb(177 221 177 / 15%)" stroke-width="1.5"></path>
        <path d="M1600.68 107.51L1406.88 228.89" stroke="rgb(177 221 177 / 15%)" stroke-width="1.5"></path>
        <path d="M1600.68 107.51L1452.59 -76.47" stroke="rgb(177 221 177 / 15%)" stroke-width="1.5"></path>
        <path d="M1600.68 107.51L1582.01 378.12" stroke="rgb(177 221 177 / 15%)" stroke-width="1.5"></path>
        <path d="M1600.68 107.51L1301.62 188.97" stroke="rgb(177 221 177 / 15%)" stroke-width="1.5"></path>
        <path d="M1582.01 378.12L1582.01 378.12" stroke="rgb(177 221 177 / 15%)" stroke-width="1.5"></path>
        <path d="M1582.01 378.12L1398.92 406.32" stroke="rgb(177 221 177 / 15%)" stroke-width="1.5"></path>
        <path d="M1602.33 697.52L1602.33 697.52" stroke="rgb(177 221 177 / 15%)" stroke-width="1.5"></path>
        <circle r="25" cx="69.23" cy="508.29" fill="url(&quot;#SvgjsRadialGradient1013&quot;)"></circle>
        <circle r="25" cx="363.04" cy="549.04" fill="url(&quot;#SvgjsRadialGradient1013&quot;)"></circle>
        <circle r="25" cx="532.43" cy="682.48" fill="url(&quot;#SvgjsRadialGradient1013&quot;)"></circle>
        <circle r="25" cx="712.32" cy="501.79" fill="url(&quot;#SvgjsRadialGradient1013&quot;)"></circle>
        <circle r="25" cx="846.03" cy="381.55" fill="url(&quot;#SvgjsRadialGradient1013&quot;)"></circle>
        <circle r="25" cx="787.78" cy="529.48" fill="url(&quot;#SvgjsRadialGradient1013&quot;)"></circle>
        <circle r="25" cx="1137.73" cy="531.6" fill="url(&quot;#SvgjsRadialGradient1013&quot;)"></circle>
        <circle r="25" cx="1452.59" cy="-76.47" fill="url(&quot;#SvgjsRadialGradient1013&quot;)"></circle>
        <circle r="25" cx="1446.7" cy="532.79" fill="url(&quot;#SvgjsRadialGradient1013&quot;)"></circle>
        <circle r="25" cx="1541.48" cy="-47.95" fill="url(&quot;#SvgjsRadialGradient1013&quot;)"></circle>
        <circle r="5" cx="-102.8" cy="491.52" fill="rgb(184 224 184 / 15%)"></circle>
        <circle r="5" cx="-74.27" cy="693.37" fill="rgb(184 224 184 / 15%)"></circle>
        <circle r="5" cx="95.46" cy="672.67" fill="rgb(184 224 184 / 15%)"></circle>
        <circle r="5" cx="193.52" cy="517.73" fill="rgb(184 224 184 / 15%)"></circle>
        <circle r="5" cx="215.35" cy="644.24" fill="rgb(184 224 184 / 15%)"></circle>
        <circle r="5" cx="384.09" cy="690.1" fill="rgb(184 224 184 / 15%)"></circle>
        <circle r="5" cx="554.59" cy="542.83" fill="rgb(184 224 184 / 15%)"></circle>
        <circle r="5" cx="703.4" cy="391.1" fill="rgb(184 224 184 / 15%)"></circle>
        <circle r="5" cx="706.36" cy="681.06" fill="rgb(184 224 184 / 15%)"></circle>
        <circle r="5" cx="805.45" cy="652.5" fill="rgb(184 224 184 / 15%)"></circle>
        <circle r="5" cx="979.4" cy="381.27" fill="rgb(184 224 184 / 15%)"></circle>
        <circle r="5" cx="1001.91" cy="562.38" fill="rgb(184 224 184 / 15%)"></circle>
        <circle r="5" cx="1160.31" cy="81.52" fill="rgb(184 224 184 / 15%)"></circle>
        <circle r="5" cx="1151.99" cy="411.16" fill="rgb(184 224 184 / 15%)"></circle>
        <circle r="5" cx="1136.47" cy="708.04" fill="rgb(184 224 184 / 15%)"></circle>
        <circle r="5" cx="1251.95" cy="-43.63" fill="rgb(184 224 184 / 15%)"></circle>
        <circle r="5" cx="1245.24" cy="110.82" fill="rgb(184 224 184 / 15%)"></circle>
        <circle r="5" cx="1301.62" cy="188.97" fill="rgb(184 224 184 / 15%)"></circle>
        <circle r="5" cx="1277.39" cy="356.24" fill="rgb(184 224 184 / 15%)"></circle>
        <circle r="5" cx="1258.01" cy="519.44" fill="rgb(184 224 184 / 15%)"></circle>
        <circle r="5" cx="1277.88" cy="644.49" fill="rgb(184 224 184 / 15%)"></circle>
        <circle r="5" cx="1456.99" cy="66.66" fill="rgb(184 224 184 / 15%)"></circle>
        <circle r="5" cx="1406.88" cy="228.89" fill="rgb(184 224 184 / 15%)"></circle>
        <circle r="5" cx="1398.92" cy="406.32" fill="rgb(184 224 184 / 15%)"></circle>
        <circle r="5" cx="1429.88" cy="675.48" fill="rgb(184 224 184 / 15%)"></circle>
        <circle r="5" cx="1600.68" cy="107.51" fill="rgb(184 224 184 / 15%)"></circle>
        <circle r="5" cx="1582.01" cy="378.12" fill="rgb(184 224 184 / 15%)"></circle>
        <circle r="5" cx="1602.33" cy="697.52" fill="rgb(184 224 184 / 15%)"></circle>
    </g>
    <defs>
        <mask id="SvgjsMask1012">
            <rect width="1440" height="560" fill="#ffffff"></rect>
        </mask>
        <radialGradient id="SvgjsRadialGradient1013">
            <stop stop-color="#ffffff" offset="0.1"></stop>
            <stop stop-color="rgba(113, 193, 113, 0.2)" offset="0.2"></stop>
            <stop stop-color="rgba(113, 193, 113, 0)" offset="1"></stop>
        </radialGradient>
    </defs>
</svg>