<!-- Generator: Adobe Illustrator 23.0.1, SVG Export Plug-In  -->
<svg version="1.1" xmlns="http://www.w3.org/2000/svg" xmlns:xlink="http://www.w3.org/1999/xlink" x="0px" y="0px" width="1853px"
	 height="1652.7px" viewBox="0 0 1853 1652.7" style="enable-background:new 0 0 1853 1652.7;" xml:space="preserve">
<style type="text/css">
	.st0{fill:#E7E4E4;}
	.st1{fill:#B1FCB8;}
	.st2{fill:#B1FCC5;}
	.st3{fill:#B1FCC1;}
	.st4{fill:#B9F7B2;}
	.st5{fill:#96EDAA;}
	.st6{fill:#96ED9C;}
	.st7{fill:#36CC32;}
	.st8{fill:#65F95D;}
	.st9{fill:#52DD5C;}
	.st10{fill:#FAEEE6;}
	.st11{fill:#FDFCF2;}
	.st12{fill:#E5D8D2;}
	.st13{fill:#7CF460;}
	.st14{fill:#52DD59;}
	.st15{fill:#64F46F;}
	.st16{fill:#32CC32;}
	.st17{fill:#207A16;}
	.st18{fill:#F0F1F0;}
	.st19{fill:#C8F4C3;}
	.st20{fill:#00540E;}
	.st21{fill:#A1E5A1;}
	.st22{fill:#A1E5A3;}
	.st23{fill:#C55247;}
	.st24{fill:#09156A;}
	.st25{fill:#0C6809;}
	.st26{fill:#A1E5B5;}
	.st27{fill:#C5FCC9;}
	.st28{fill:#F9C2B2;}
	.st29{fill:#EFAB95;}
	.st30{fill:#D18E7C;}
	.st31{fill:#F5D8D5;}
	.st32{fill:#E5D2C7;}
	.st33{fill:#FCF5F2;}
	.st34{fill:#F2E9E7;}
	.st35{fill:#89231B;}
	.st36{fill:#A6352A;}
	.st37{fill:#99271C;}
	.st38{fill:#E5DFDA;}
	.st39{fill:#F3D592;}
	.st40{fill:#EF564B;}
	.st41{fill:#C22515;}
	.st42{fill:#CF3828;}
	.st43{fill:#AA2D21;}
	.st44{opacity:0.15;}
	.st45{fill:#BA463B;}
	.st46{fill:#C55449;}
	.st47{fill:#DD726C;}
	.st48{fill:#EFF0EF;}
	.st49{fill:#D7C9C0;}
</style>
<defs>
</defs>
<g>
	<path class="st0" d="M955.6,1652.7c-58.9,0-117.1-7.3-173.6-14.4c-28-3.5-56.9-7.2-85.4-9.9c-13.3-1.3-28.2-1.9-43.9-2.6
		c-61.5-2.8-131.1-5.9-173.7-44.9c-19.8-18.2-31.7-50.3-42.1-78.7c-3.8-10.4-7.5-20.3-11.2-28.6c-28.3-63.4-61.2-81.7-129.2-101
		c-11.7-3.3-23.6-6.3-36.1-9.5c-54.9-13.9-111.7-28.3-152.2-69.7c-19.4-19.8-26.7-40.4-34.3-62.1c-2.2-6.2-4.5-12.7-7.1-19.3
		c-1.9-4.8-3.7-9.5-5.6-14.1c-17.6-44.4-34.2-86.3-42.9-135.4C5.9,993.1-6.2,893.4,31.1,828.3c17.2-30,38.6-57.4,59.3-83.8
		c5.5-7.1,11.3-14.4,16.8-21.6c7.6-9.9,16-20,24.1-29.7c27.4-32.8,55.8-66.7,64.4-106.8c4.5-21-0.8-40.3-6.5-60.7
		c-6.3-22.8-12.8-46.4-5.4-73.1c15.1-54.6,58.3-79,100.1-102.6c12-6.8,24.7-13.5,37.1-19.9c38.9-20.4,79.1-41.4,108.2-71.4
		c15.4-15.9,26.1-34.9,37.5-55.1c12.6-22.3,25.6-45.4,45.4-63.7c37.8-34.9,98.2-52.5,146.8-66.7l2.9-0.9
		c73.7-21.5,161.3-43.5,252.2-43.6c0.2,0,0.4,0,0.6,0c98.7,0,198.7,17.3,305.6,53c42,14,71.5,29.3,95.5,49.5
		c25.7,21.6,45.1,49.2,61,86.7c19.8,46.6,60,64,102.5,82.5c28.3,12.3,57.5,24.9,80.9,46.8c37.8,35.4,39.8,92.7,41.7,148.2
		c1.4,41.6,2.9,84.6,20.1,115.4c8.9,16.1,19.6,30.8,30.8,46.3c12.7,17.6,25.9,35.8,36.4,56.2c4.7,9.2,9.2,18.4,13.5,27.3
		c6.8,14.1,13.3,27.4,20.9,41c22.2,39.8,14.3,85.6,6.6,130c-2.7,15.9-5.3,30.9-6.5,45.2c-3.4,43.5-7.2,87.8-10.9,130.6
		c-2.3,26.7-4.7,54.3-6.9,81.4c-3.1,37.6-11.4,68.1-25.3,93.1c-15,27.1-37.1,49-67.4,66.8c-6.2,3.6-12.5,7.1-18.7,10.4
		c-26.3,14.2-51.1,27.7-62.3,55c-7.4,18.1-11.3,38.5-15,58.2c-1.5,8.2-3.1,16.7-4.9,24.8c-9.1,40.7-24.6,70-48.6,92.1
		c-21.8,20.1-51.1,34.7-94.9,47.5c-89.9,26.3-188.1,29-283.2,31.7c-30.9,0.9-62.9,1.8-93.6,3.5
		C980,1652.4,967.8,1652.7,955.6,1652.7z M914.7,42.4c-0.2,0-0.4,0-0.6,0c-89.2,0.1-175.6,21.8-248.3,43l-2.9,0.9
		c-47.1,13.8-105.8,30.9-141.2,63.5c-18.3,16.8-30.2,38-42.7,60.3c-11.3,20.1-23,40.8-39.7,58c-30.7,31.6-71.9,53.2-111.7,74.1
		c-12.8,6.7-24.9,13-36.7,19.7c-41.1,23.2-79.9,45.2-93.5,94.2c-6.4,23-0.6,43.7,5.4,65.7c5.9,21.2,11.9,43,6.7,67.4
		c-9.3,43.5-38.8,78.7-67.3,112.9c-8.4,10.1-16.3,19.6-23.8,29.2c-5.6,7.3-11.3,14.6-16.9,21.7c-20.4,26-41.5,53-58.2,82.1
		C8.2,896.4,20.1,992.7,32,1059.9c8.5,47.7,24.9,89,42.2,132.7c1.9,4.7,3.7,9.4,5.6,14.2c2.7,6.9,5,13.5,7.3,19.8
		c7.4,21.1,13.8,39.3,31.1,56.9c37.8,38.6,92.7,52.5,145.7,65.9c12.1,3.1,24.6,6.2,36.5,9.6c71,20.2,107.8,40.7,138.2,108.8
		c3.9,8.8,7.6,18.8,11.5,29.5c9.9,26.9,21.2,57.3,38.5,73.2c38.8,35.6,105.7,38.6,164.8,41.3c15.9,0.7,30.9,1.4,44.5,2.7
		c28.8,2.7,57.8,6.4,85.9,9.9c67.6,8.5,137.6,17.3,207.8,13.3c30.8-1.7,62.9-2.7,94-3.5c94.1-2.7,191.5-5.4,279.6-31.2
		c41.6-12.2,69.2-25.9,89.4-44.4c21.8-20.1,35.9-47,44.4-84.8c1.8-7.9,3.3-15.9,4.9-24.3c3.8-20.4,7.8-41.5,15.8-60.9
		c13.1-31.9,41.3-47.2,68.6-62c6-3.3,12.3-6.7,18.3-10.2c54.1-31.8,79.7-76.3,85.8-149c2.3-27.1,4.6-54.7,6.9-81.5
		c3.7-42.8,7.5-87.1,10.9-130.5c1.2-15,3.8-30.3,6.6-46.5c7.2-42,14.7-85.3-5.1-120.8c-7.8-13.9-14.6-28-21.2-41.7
		c-4.3-8.8-8.7-18-13.4-27c-10-19.5-22.9-37.2-35.3-54.4c-11-15.2-22.4-30.9-31.7-47.7c-18.8-33.8-20.3-78.5-21.8-121.7
		c-1.9-55-3.7-107-37.3-138.5c-21.6-20.2-49.7-32.4-76.9-44.2c-43.2-18.7-87.9-38.1-109.9-89.8c-15.1-35.4-33.2-61.3-57.2-81.5
		c-22.6-19-50.6-33.5-90.9-46.9C1110.4,59.5,1011.9,42.4,914.7,42.4z"/>
</g>
<g>
	<g>
		<path class="st0" d="M1389.6,311.4c10.7-0.9,23-0.3,31.4-8.3c5.4-4.5,7.3-12.5,4.4-18.9c-4.2-8.5-12.7-13.9-21.5-16.8
			c-10.4-3.4-22.1-5.5-32.6-1.5c-10.7,3.9-17.9,15.9-14.4,27.1C1361.6,306,1376.6,312.2,1389.6,311.4z"/>
		<path class="st0" d="M1699.3,801.8c-6.3-19.1-19.1-35.1-32.5-49.7c-10.9-12.2-26-19.2-39.2-28.5c-15-10.2-29.1-21.7-43.8-32.4
			c-11.9-8.7-22.6-18.9-33.5-28.8c-10.4-9.8-16.1-24.1-15.1-38.4c1.7-37.4,4.6-74.8,5.9-112.2c-0.2-12.5-1.8-25.5-8.4-36.3
			c-9.8-16.6-26.5-27.7-43.6-35.9c-1.6-13.1-8.5-25.1-18.1-33.9c-9.7-9.2-18.7-19.6-30.3-26.5c-25.6-12.6-55.2-14-80.8-26.7
			c-4.5-19-2.5-38.6-3.8-57.9c-8.8-53.7-64-62.6-109.4-68.7c-27-3.6-53.8-7.9-81-11c-113.2-12.9-225.3-34-338.4-47.2
			c-66.2-7.7-134.1-9.5-200.7-7.3c-21.1,0.7-41.4,4.7-61,10.5c-40.7,12-78.9,35.5-117.6,52.8c-36,16.1-46.1,50.5-60.5,84.1
			c-14.2,9.8-31.5,15.2-44.3,27.2c-5,5.1-11.5,8.9-15.7,14.8c-1.9,4-3.5,8.2-6.1,11.9c-18,9.4-36.4,19.4-49.8,35.1
			c-31.5,36.9-27.6,85.5-17.1,129.3c6.6,27.5,25.4,56.9,22.5,85.7c-1.4,13.7-6.5,15.8-17.8,20.7c-24.7,10.8-52.4,27.6-71.7,46.6
			c-21.6,21.3-35.1,48.9-47.5,76.2c-6.7,4.7-12.6,10.4-18.7,15.8c-19.3,17.4-39.7,35.4-50.3,59.7c-6.3,13.7-8.1,28.8-9,43.7
			c-0.3,7.8-0.5,15.8,2.4,23.2c4.5,10.5,5.2,22.2,8.7,33c6.1,20.2,12.7,40.3,19.2,60.4c7.3,18.2,12.9,37.1,18.5,55.9
			c12,39.1,9.9,80.5,12.6,120.9c0.9,14.3,2.7,28.8,7.4,42.4c6.3,17.5,21.1,29.7,34.2,42c9.7,12.8,23.5,22.4,39.1,26.5
			c13.7,3.5,28,2.7,42,2.6c34.4-0.3,69.5-4,103.3,4.5c55.3,18.2,80.8,45.5,109.8,94.6c38.5,65.3,92,128.4,149.1,178.2
			c25.8,22.5,54,27.9,85.7,36.1c40.7,10.6,81.4,20.7,122.8,28.4c23.5,4.5,47.5,5.7,71.4,7.6c13,0.6,25.9,3.1,39,2.4
			c13.6,0.3,27.2-0.4,40.9-1.3c16.7,0.9,33.2-2.1,49.8-3.2c41.6-3.5,84.3-3.2,124.3-16.7c11.1-4,22.7-6.2,33.7-10.6
			c9.7-3.8,20-6,29.8-9.5c34.1-10,65.1-28.9,92.2-51.7c13.1-15.2,20.4-34.1,32.2-49.7c16.7-22,43.8-36.8,64.7-54.7
			c26.8-22.9,52.4-47.3,76.5-73c9.4-10.1,19.6-22.8,32.5-28.5c12-5.4,26.8-2.1,36.3-13.1c7.7-9,6.8-22.2,9.3-33.8
			c4.6-21.3,21.5-37.7,38.8-51.1c29.1-22.4,52.3-45.2,74.1-74.8c24.6-50.1,23.3-94,27.9-116.2c4.8-23.5,6.5-47.4,7.8-71.2
			c1.3-24.9,2.8-49.8,1.8-74.8c-1-21.4,2.2-42.7,2.5-64C1702.6,824.2,1703,812.6,1699.3,801.8z"/>
	</g>
	<g>
		<path class="st1" d="M383,237.8c9.1-10.3,20-20.2,33.9-23c11-2.7,24.8,2.1,28.7,13.5c2.2,7.7-0.5,16-5.3,22.1
			c-8.7,11.2-23.3,16.8-37.3,15.9c-8.1-0.6-16.8-3.7-21.2-10.9C378.2,249.9,379,242.7,383,237.8z"/>
		<path class="st2" d="M1371.3,265.9c10.5-4.1,22.2-1.9,32.6,1.5c8.8,2.9,17.3,8.3,21.5,16.8c3,6.4,1.1,14.4-4.4,18.9
			c-8.4,7.9-20.7,7.3-31.4,8.3c-13,0.8-28-5.3-32.7-18.3C1353.3,281.8,1360.5,269.8,1371.3,265.9z"/>
		<path class="st3" d="M282.3,515.9c10.3-5.2,24.2-2.6,31.4,6.5c6.4,12.8,1.8,27.7-5,39.4c-8.3,10.9-19.2,19.9-31.8,25.6l-0.4,0.3
			c-12.7,6.5-27.2,5.8-41,5.2c-7.9-0.1-15.4-3.2-22.4-6.7c-6.8-3.3-6.1-13.2-1.4-17.9c7.4-7.5,18.5-8.5,27.6-13
			c9.4-5,16.1-13.5,22.6-21.7C267.8,526.7,274.5,520.4,282.3,515.9z"/>
		<path class="st4" d="M1632.7,951c0.6-23.6-2.5-47-5.4-70.3c-10.1-4.7-19.7-11.4-25.1-21.4c-11.9-19.3-11.4-44.9-0.9-64.7
			c2.9-5.7,7.9-9.8,11.7-14.9c-0.2-4.7-3.1-8.9-5-13.1c-8-16-17.3-32-31.1-43.8c-7.4-6.5-16-11.4-24.1-16.9
			c-11.1-7.3-21.8-15.2-33.4-21.8c-10.4-5.7-20.7-12.6-26.6-23.2c-14.5-25.5-13.4-56.2-8.2-84.1c-0.5-20.1,5-39.7,5.8-59.7
			c1.7-21.6,0.6-43.2,0.4-64.7c-0.3-4.4-1.1-8.7-2-12.9c-1.6-13.1-8.5-25.1-18.1-33.9c-9.7-9.2-18.7-19.6-30.3-26.5
			c-25.6-12.6-55.2-14-80.8-26.7c-7.1-2.8-14.2-5.8-21.1-9c-30.5-13-51.5-44.2-52.9-77.2c-0.2-11.6,0-23.3,0.9-34.9
			c1.1-15.1,2.7-30.2,3.9-45.4c0.8-7.4,0.9-15.6-4.2-21.6c-5.1-6.1-9.3-14.3-17.7-16.3c-15.2-4.3-31-6.1-46.5-8.6
			c-18.7-2.1-37.2-6.3-56-7.6c-38.8-4.9-77.4-10.8-116.2-15.8c-39.8-4.4-79.6-9-119.3-14c-34.9-1.8-69.9-2.2-104.8-1.1
			c-4.9,0.2-9.3,3.2-12.8,6.5c-4.2,3.7-3.6,11.8-10.4,12.5c-15.1,3.8-30.5,6.7-46.1,7.5c-30.3-7.9-61.6-11.4-92.8-13.1
			c-10.1-0.5-20.4-1.1-30.4,1c-43.1,6.1-86.8,16.7-123.3,41.4c-19,11.6-32.4,32.8-32.8,55.3c-1.4,18.2-0.5,38.9-13.4,53.5
			c-11,12-24.9,21.4-40.1,27.4c-11.9,5.7-24.6,9.2-36.5,14.9c-14.2,9.8-31.5,15.2-44.3,27.2c-5,5.1-11.5,8.9-15.7,14.8
			c-1.9,4-3.5,8.2-6.1,11.9c-1.8,4.7-3.5,9.5-4.9,14.4c-3.7,12.2-3.2,25.1-2.4,37.6c0.5,12,8.5,21.6,14.2,31.5
			c8.1,9.9,16.5,19.6,23.8,30.1c11.6,14.3,21.9,31.3,22,50.3c0.4,18.3-4.5,38.1-18.6,50.8c-19.2,17-42.9,27.8-65.5,39.5
			c-5.3,3-10.7,5.8-16.4,8.1c-29.2,17.4-61.1,31.3-86.1,54.9c-21.6,21.3-35.1,48.9-47.5,76.2c-2.2,9.4-4.6,18.8-4.7,28.5
			c0,17.9,4.7,35.4,11,52c8,21.1,21.3,39.6,30,60.3c13.4,35.2,16.7,73.1,20.7,110.2c3.8,33.6-0.7,67.4-0.4,101.1
			c0.3,17.2-1.4,34.7,3.1,51.5c2.6,12.5,9.8,23.8,19.2,32.3c9.4,8.1,22.3,9.2,34,11.6c17.1,2.3,33.1,8.7,49.7,13
			c27.9,6.5,54.3,20.9,73.5,42.4c11.6,13.6,17.1,31.1,22.1,47.9c5.7,12.6,6.3,26.8,11.8,39.5c5.2,13.1,15.8,23,24.6,33.7l1.5,0.3
			c4.4-8.2,10.3-15.5,17.5-21.4c13-11.1,29.4-18.7,46.6-19.5c23.3-1.8,47.2,8.8,61.2,27.6c13.3,17.1,17.4,39.9,14,61
			c19.4,2.2,38.8,3.1,58.2,4.9c24.9,0.2,49.9,0.9,74.7-1.2c16.6-0.8,33.2,0.1,49.8-1.7c17.4-0.3,34.9-3.1,52.3-0.9
			c27,0.4,54,1.6,81,0.7c35.1-0.9,70,3.2,105,5.2c30.7,2.6,61.6,1.3,92.4,2.3c45.7,1.5,91.4-1,137,1.7c23.1,1.5,46.3,1.4,69.5,0.9
			c22.9-1.6,45.7-5.6,67.2-13.8c11.5-4.6,23.5-10.5,30.7-21.1c6.7-9.7,8.1-21.6,11.8-32.5c2.9-7.2,7.2-13.8,12.2-19.7
			c7.5-8.1,19.2-9.2,29.4-11.1c15-1.7,30-4,45.1-4.5c17.7-2,38-3.7,50.7-17.8c8.6-12.6,4.8-28.8,6-43.1c-0.4-25.3,0.2-50.5-0.2-75.8
			c-0.3-10.7-1.5-21.3-1.2-32c0.2-8.7-1.2-18.1,3.3-26c4.8-8.5,13.2-14.2,18.8-22.1c6.8-9.6,16.6-16.5,23.6-25.9
			c5.4-7.1,10.3-14.6,15.9-21.6c6.5-7.7,9.1-17.6,12.3-27c6-17.9,7.4-36.8,10.4-55.3C1633.7,977.2,1632.4,964,1632.7,951z
			 M376.6,364.7c5.7-1.6,13.1,2.1,13.7,8.3c1.7,7-5.5,14.5-12.6,12.6c-4.1-0.4-7.1-4.3-8.2-8C368.5,372.3,372.2,367.3,376.6,364.7z
			 M1226.3,177.4c7-5,16-1.9,22.7,2c5.8,3.2,8.4,9.8,10.3,15.8c1.1,7.8-2.7,16-9.6,19.8c-9.7,4.9-23.2,2.4-28.9-7.4
			C1215.8,197.9,1217,184.2,1226.3,177.4z M257.3,695.7c9.1-3,20,2.3,22.4,11.8c4.5,14.7-14.7,29.7-27.6,20.7
			C239.5,720.6,244.9,700.4,257.3,695.7z M295,1146c-10.7,14.1-35.3,16.8-46.8,2.3c-5.8-5.7-5.9-14.7-4.8-22.2
			c1.7-10.2,6.9-21.2,17.3-24.9c7.4-3,15.1,0,22.6,0.6c9.9,0.5,17.4,9.6,18.9,18.9C303.5,1129.6,300,1138.6,295,1146z M1453.6,845.9
			c-9.6,9.6-24,13.2-37.2,11.2c-9.3-2.3-17.2-9.4-21.2-18.1c-6.2-14.2-2.2-33.3,11.6-41.6c6.4-3.1,12.2-7.4,19-9.4
			c10.2-2.4,21.5,0,30,6.2c6.2,4.6,8.4,12.5,8.7,19.9C1465.7,825.6,1462.1,837.9,1453.6,845.9z"/>
		<path class="st5" d="M1166.4,132.1c18.8,1.2,37.3,5.5,56,7.6c15.6,2.5,31.3,4.3,46.5,8.6c8.4,2,12.6,10.1,17.7,16.3
			c5.1,6,5,14.2,4.2,21.6c-10.7,2.6-21.1,6.1-31.6,9.2c-1.9-6-4.4-12.6-10.3-15.8c-6.7-3.9-15.7-7-22.7-2
			c-9.2,6.8-10.5,20.5-5.6,30.2c-16.2,6.9-33.2,11.5-49.6,17.7c-46.8,17.5-96.5,25.2-144.4,38.8C959.7,281,893,298.4,827.1,318.8
			c-32.5,9.4-64.8,19.5-97.2,29.3c-30.9,8.9-62.1,16.7-92.7,26.5c-32.5,10.9-64.8,22.6-96.8,34.8c-34.3,13.9-69.5,25.4-105.1,35.6
			c-21.3,6.4-42.3,14.1-63.1,22.1c-6.7,2.7-13.9,4.4-20,8.4c-7.3-10.5-15.7-20.2-23.8-30.1c-5.7-10-13.7-19.6-14.2-31.5
			c-0.8-12.6-1.3-25.5,2.4-37.6c0.2,1,0.7,2.9,0.9,3.8c19.2-6.9,37.2-16.7,56.4-23.3c64.4-23.2,131-39.3,197-57.4
			c51.9-17.7,104.4-33.7,157-49.5c31.5-10.3,63.3-19.7,95-29.4c75.4-22.7,151.7-41.8,228.8-58c34.5-6.1,67.9-17,101.8-25.8
			C1157.9,135.8,1162.6,134.8,1166.4,132.1z M376.6,364.7c-4.4,2.5-8.1,7.6-7.1,12.9c1.1,3.7,4,7.6,8.2,8
			c7.1,1.9,14.4-5.6,12.6-12.6C389.7,366.8,382.2,363.1,376.6,364.7z"/>
		<path class="st6" d="M1338.8,343.5c6.9,3.3,13.9,6.3,21.1,9c25.6,12.6,55.1,14.1,80.8,26.7c11.6,6.9,20.6,17.3,30.3,26.5
			c9.7,8.8,16.6,20.8,18.1,33.9c0.9,4.3,1.6,8.6,2,12.9c-6.1-0.8-11.3,3.1-16.7,5.2C1052.5,634,630.7,810.5,208.9,986.9
			c-2,0.7-3.5,2.2-4.5,4c-2.8,5-6.9,9.5-7.1,15.5c-4-37.2-7.4-75-20.7-110.2c-8.8-20.7-22-39.2-30-60.3
			c19.1-6.8,37.5-15.2,56.3-22.7C577.7,658.8,952.6,504.3,1327.5,350C1331.6,348.4,1336.1,347.2,1338.8,343.5z"/>
	</g>
</g>
<g>
	<path class="st7" d="M1188,595.2c5.1-10.8,11.3-21.1,16.9-31.7c2.9,3.4,2,8,2.7,12.1c3.1,30.4,17.3,59.7,13.3,90.8
		c-1.7,11.4-4.7,23.7-14,31.3c-4,4.1-10.8,6.1-11.8,12.4c-6.1,30.3-10.4,61-17.7,91.1c11.2-17.8,24.5-34.7,41.9-46.8
		c17.4-11.8,37-20,57-26.2c12.9-3.4,25.7-8.1,39-9.3c-5.2,10.7-11,21.1-15.9,31.9c-6.3,14-14.3,28.1-27.4,36.9
		c-16.7,11.2-35.8,18.9-55.7,22.1c-14.5,2.8-29.8,2-43.6,7.8c-4.4,13.9-8.4,28.1-13.8,41.7c-7.7,19.2-13.9,39-22.6,57.9
		c-5.7,12.4-10.9,25-16.8,37.2c11.5-11.5,25.8-19.7,40.5-26.2c31.5-14.4,67.1-14.6,101.1-13.3c7.5,0.5,15.3-0.3,22.7,1.5
		c3.3,2.8-1.4,5.9-3.1,8.1c-15.5,14.9-29.6,31.8-48.8,42.2c-10.8,7.2-23.9,8.9-36.5,11c-15.3,3-30.9-0.3-46.2-1
		c-13-0.5-26.4-4.9-39-0.1c-2.3,0.5-2.9,3.2-4.1,4.9c-21.5,42.3-45.7,83.3-74.5,121c31.4-19.5,66.1-35.7,103.3-39.1
		c30.9-3.5,61.7,2.3,92.5,3.2c4.4,0.5,9.8-1.5,13.4,2c0.4,4-3.4,5.7-6.1,7.7c-11.3,7.4-20.6,17.3-31.3,25.4
		c-11.2,8.6-22.3,17.2-34.2,24.8c-20.8,12.8-45.8,20.3-70.2,16c-17.6-3-35.3-6.9-51.2-15.2c-9.3-4.5-19.5-6.5-29.7-7.4
		c-17.5,23-37.7,43.9-55.4,66.7c-7.1,9.8-13.8,19.9-20.6,29.9c16.3-13,35.8-21.4,55.6-27.4c15.7-4.5,31.8-7.8,48.1-8.4
		c22.7-0.5,45.1,3.7,67.3,7.8c21,3.9,42.1,7.4,62.8,12.7c3.7,1.2,8.4,1.2,11,4.6c1.7,3.9-1.5,6.8-4.7,8.4
		c-11.6,6.6-22.2,14.8-33.5,21.8c-13.1,8.4-26.7,16.3-40.6,23.2c-18.1,9.1-38.6,13.1-58.8,13c-18.8-0.9-37.5-4.8-55.2-11.4
		c-22.4-7-42-21.9-65.6-25.2c-8.7,11.7-17.8,23.1-26.3,35c-7.3,10.4-11.7,22.4-16.4,34.1c-6.1-1.6-16.8-1.4-16.9-10
		c0.4-12.4,7.3-23.4,13.5-33.8c20-33,46.3-61.5,73.1-89.1c-9.7-10-20.5-18.9-29.1-29.9c-18.8-21.2-28.8-48.8-34-76.3
		c-4.2-28,3-56,3.1-84c0-4.3-0.6-8.7,0.3-12.9c2.8-1.8,6.5-1.4,8.5,1.4c10.6,12.5,22.5,23.9,31.9,37.4c9,12.5,17.6,25.4,24.8,39.1
		c6.4,12.4,7.1,26.7,9,40.3c2.8,24.3-3.2,48.4-3,72.8c33.4-38.3,65.3-78.1,92.7-121c-22.3-13.3-46.2-27-60.2-49.7
		c-7.6-13.8-15.4-28-18.3-43.6c-1.9-10.8-2.7-21.9-3.2-32.8c-0.8-18,2.6-35.9,3.7-53.8c0.4-0.7,1.3-2,1.7-2.6c5,3.1,7.3,9,11.4,13.1
		c10.8,11.8,21.9,23.2,31.9,35.7c17,19.1,30.9,41.6,37.7,66.4c3.3,17.4,6.5,35.4,4,53.1c15.9-26,30.8-52.6,45.4-79.4
		c9.6-19.5,20.5-38.5,28.2-58.9c2-5.1,4.1-10.3,6.3-15.3c-14.3-9.9-28-20.7-41.2-32c-31.8-27.9-45.6-71.6-44.9-113
		c0-7.9-1.5-15.7-1.1-23.6l2.5-0.4c30,26.6,61.6,54.9,75.7,93.6c5.3,12.4,7.9,25.7,10,39c0.4,8.4,1.1,16.9,3.3,25.1
		c17-40.4,26.3-83.6,32.9-126.8c1.1-7.6,3.3-14.9,3.8-22.6c-5.5-14.8-13.8-28.8-15.6-44.8C1170.2,640.7,1177.2,616.5,1188,595.2z"/>
	<g>
		<path class="st8" d="M1803.5,955.6c-14.8,2.8-29.2,7.6-44.4,8c-7.8,0.1-15.5,1.4-23.2,1.8c-4.7,0.1-2.5-5.4-3-8.2
			c-1.4-6.1,6-6.3,9.9-7.9c36.1-14.2,71.8-29.6,108.6-42.1c-1.3-30.9-8.3-61.9-22.4-89.5c-2.4-4.9-5.2-9.7-8.3-14.3
			c-8.9-12.8-17.7-26.1-29.7-36.2c-18.5-15.7-42-24.5-65.6-28.6c-21.1-3.4-42.4,0.8-62.9,5.9c-11.3,25.2-20.4,51.3-30.7,77
			c-9.7,24.5-18.1,49.5-29.1,73.4c-1.5,3-3.2,7.1-7.2,7c-4.7,0.7-7.9-4.4-6.7-8.6c2.3-15.7,5.7-31.2,9.7-46.5
			c6.3-29.8,14.4-59.1,21.1-88.8c-36.9,15.8-71.7,36.5-103.1,61.6c-29.5,23.2-57.6,48-85.5,73c-5.2,4.9-10.3,9.7-16.3,13.6
			c4.5,2.4,3.4,8.1,3.9,12.3c0.4,15.9,1.2,32.1-1.8,47.8c-0.7,5.3-6.8,9.5-11.8,7c-4.6-1.7-6.3-6.7-8.1-10.7
			c-3.6-9.7-8.1-19-10.9-28.9c-36.3,39.2-72.3,79.3-100.5,125c-20.6,32.9-43.5,64.2-64.8,96.5c-2.2,3.8-5.7,7.4-5,12.1
			c1.2,42.5-0.7,84.9-3.8,127.3c-2.2,0.4-4.4,0.8-6.5-0.1c-2-7.9-1.7-16.2-3.1-24.2c-3.2-21-7.7-41.7-10.5-62.7
			c-13.5,25-27.5,49.7-42.5,73.8c-7.8,12.3-14.9,25-23.8,36.4c-5.2,6.4-7,14.7-12.5,21c-4.5,6.9-12.4,13.4-11.1,22.6
			c0.7,6.6,6.4,11.1,11.5,14.6c10,6.7,18.5,15.3,28.2,22.5c6.6,5.2,13.5,10.1,20.5,14.8c6.9,4.7,13.9,9.3,20.6,14.2
			c5.4,3.8,9.6,9.2,15.5,12.3c7.3,3,15.3,0.3,22.1-2.8c21.9-8.8,42.8-19.7,63.9-30.1c28-14,57-25.7,85.9-37.6
			c-12.2-11.3-24.1-23-36.3-34.3c-2.8-3.1-7.3-6.4-5.9-11.2c4.3-6.6,13-1,18.6,0.8c24,10.2,48.6,18.5,73.2,26.9
			c40.5-10.8,75.5-34.9,112.9-53c33.4-16.5,64.4-37.2,96.6-55.8c-0.7,0.3-2.2,0.9-3,1.1c-32.1-13.4-64.2-27.2-96.5-40.2
			c-9.6-4.4-20.7-7-28.2-14.9c-2.9-4.3,2.5-9.7,7-7.7c50.6,12.6,100.6,27.9,151,41.1c14.1-7.8,27.1-17.9,40-27.6
			c31-25,61.4-51.4,86.2-82.8c16.1-21.4,29.4-44.9,41.5-68.8c14-29.3,24.5-60.9,26.1-93.5C1836.5,951.6,1819.9,952.7,1803.5,955.6z"
			/>
		<path class="st9" d="M1785.9,831.2c11.6-9.2,22.6-19.2,34.8-27.7c3.1,4.6,5.9,9.3,8.3,14.3c-24,21-47.4,42.6-72.2,62.6
			c-25.7,21.8-51.4,43.8-78.4,64c-21.9,16.4-43.6,33.2-64.6,50.7c-49.1,40.6-101,77.7-148.4,120.3c-58.7,49.5-117.8,99-169.1,156.4
			c-22.2,24.7-46.8,47-69.5,71.2c-21.3,23.7-43.9,46.2-65,70.1c-7-4.7-13.9-9.6-20.5-14.8c12.2-12.3,23.2-25.7,35.6-37.8
			c11.8-13.1,24.2-25.6,35.8-38.9c24.4-25.4,50.4-49.2,73.7-75.7c17.1-17.9,34.9-35.2,52.5-52.7c44.4-42.3,92.5-80.5,138.6-121
			c30.3-24.9,61.1-49.2,92.5-72.7c22.9-17.4,45.3-35.5,68.2-52.9c23.3-18.3,47.7-35,70.6-53.9
			C1734.6,872.5,1760.3,851.8,1785.9,831.2z"/>
		<g>
			<path class="st9" d="M1534.2,849.5c-2.9,2.2-5.1,4.9-7,8.1c-1.8,3.1-3.4,6.4-4.8,9.8c-2.8,7-4.9,14.3-6.9,21.5
				c-4.7,16.5-9.3,33.1-13.8,49.7c-4.5,16.6-8.6,33.3-12.6,50.1c-3.9,16.3-7.7,32.7-11.2,49.1c-3.4,16-7.1,32-9.6,48.1
				c-0.3,2-0.6,3.9-0.7,5.9c-0.2,1.8,0.8,3.5,2.6,3.8c1.9,0.3,3.3-1,3.8-2.6c2.4-7.7,3.9-15.7,5.5-23.6c1.7-7.9,3.4-15.8,5.1-23.7
				c3.5-16.2,7.1-32.4,10.9-48.5c3.8-16.5,7.7-33.1,11.7-49.6c4.1-16.9,8.1-33.9,12.2-50.8c1.7-7.2,3.3-14.4,5.4-21.5
				c1-3.4,2.2-6.8,3.6-10.2c1.4-3.4,3.1-6.5,4.8-9.7c0.8-1.6,1.5-3.2,2.3-4.8C1535.7,849.6,1534.7,849.1,1534.2,849.5L1534.2,849.5z
				"/>
		</g>
		<g>
			<path class="st9" d="M1348.1,1007.9c-2.1,6.7-4.1,13.3-5.7,20.1c-1.6,6.7-3,13.4-4.1,20.1c-2.2,13.4-3.7,26.9-4.7,40.4
				c-2,27.5-2.5,55.2-2.9,82.8c-0.1,7.7-0.3,15.4-0.5,23.1c-0.1,3.6-0.2,7.3-0.4,10.9c-0.2,4-0.6,8.1-0.4,12.1
				c0.2,3.4,5.3,3.5,5.9,0.2c0.6-3.4,0.6-6.9,0.7-10.3c0.2-3.6,0.3-7.2,0.4-10.8c0.2-6.8,0.4-13.7,0.5-20.5
				c0.2-13.8,0.2-27.6,0.3-41.4c0.2-27.2,1.1-54.4,4.7-81.3c1-7.6,2.2-15.1,3.6-22.6c1.4-7.4,3.3-14.8,5-22.2
				C1350.9,1007.2,1348.6,1006.3,1348.1,1007.9L1348.1,1007.9z"/>
		</g>
		<g>
			<path class="st9" d="M1280.1,1140.3c-1.2,4.3-1.8,8.9-2.5,13.3c-0.7,4.4-1.4,8.8-2.1,13.2c-1.4,8.8-2.5,17.7-3.7,26.6
				c-2.3,17.7-4.4,35.5-6.3,53.3c-0.5,4.9-1.1,9.9-1.6,14.8c-0.2,2.6-0.5,5.1-0.7,7.7c-0.2,2.7-0.5,5.3-0.1,8c0.2,1.2,1,2.2,2.2,2.4
				c1.1,0.2,2.5-0.4,2.9-1.5c0.4-1.1,0.8-2.2,1-3.3c0.2-1.1,0.2-2.3,0.3-3.5c0.2-2.2,0.4-4.5,0.6-6.7c0.4-4.5,0.8-8.9,1.1-13.4
				c0.8-9,1.6-18,2.4-27c1.7-17.9,3.7-35.8,5.3-53.7c0.4-5,0.9-9.9,1.3-14.9c0.5-5,1.2-10,1.2-15
				C1281.5,1139.9,1280.4,1139.5,1280.1,1140.3L1280.1,1140.3z"/>
		</g>
		<g>
			<path class="st9" d="M1329.5,1373.6c-17.6,0.3-35.2,1.2-52.8,1.7c-8.6,0.2-17.2,0.1-25.7-1c-8.5-1.1-16.8-3-25-5.3
				c-4.5-1.3-9.1-2.6-13.6-4c-2.3-0.7-4.6-1.4-6.9-2.1c-0.8-0.3-1.7-0.5-2.5-0.9c-0.9-0.4-2-0.5-2.8-1c-1-0.6-2.1-0.8-3,0.1
				c-0.8,0.7-1.1,2.1-0.3,3c1.3,1.6,2.6,2.8,4.6,3.5c2.1,0.8,4.2,1.3,6.3,2c4.1,1.3,8.3,2.5,12.4,3.7c8.4,2.4,16.9,4.3,25.5,5.6
				c17.9,2.5,35.9,0.4,53.7-1.1c10.1-0.8,20.2-1.7,30.3-2.8C1330.5,1375.1,1330.4,1373.6,1329.5,1373.6L1329.5,1373.6z"/>
		</g>
		<g>
			<path class="st9" d="M1166.4,1284.8c-0.9,6.1-0.8,12.4-0.8,18.5c0,6.3,0.1,12.6,0.5,18.8c0.8,12.5,2.2,25,4.4,37.4
				c1.2,7,2.4,14.1,4.4,21c0.3,1.1,1.7,1.8,2.8,1.7c1.3-0.1,2.1-1.1,2.4-2.2c0.8-2.7,1.5-5.4,2.3-8.1c0.7-2.6-3.6-4-4.5-1.4
				c-0.9,2.6-1.9,5.3-2.8,7.9c1.7,0.3,3.4,0.6,5.1,0.9c-1.3-6.1-3-12.2-4.3-18.4c-1.2-6-2.3-12-3.3-18.1
				c-1.9-12.2-3.1-24.6-3.7-36.9c-0.2-3.5-0.3-7.1-0.4-10.6c-0.1-3.5,0-7.1-0.3-10.6C1167.9,1283.8,1166.6,1283.9,1166.4,1284.8
				L1166.4,1284.8z"/>
		</g>
		<g>
			<path class="st9" d="M1540.5,1264.4c-29.9,1.7-59.9,1.7-89.8-1c-14.9-1.3-29.8-3.5-44.6-6c-14.8-2.6-29.4-5.8-43.9-9.7
				c-7.9-2.1-15.8-4.4-23.7-7c-4-1.3-7.9-2.6-11.9-4c-2-0.7-4.1-1.4-6.2-2.1c-1-0.4-2-0.7-3.1-1.1c-1.2-0.4-2.3-0.5-3.5-0.5
				c-1.1-0.1-2.1,0.3-2.6,1.3c-0.4,0.9-0.2,2.2,0.6,2.8c0.8,0.6,1.5,1.3,2.4,1.8c0.8,0.4,1.7,0.7,2.6,1c1.9,0.7,3.8,1.4,5.6,2.1
				c3.5,1.3,7,2.4,10.5,3.6c7.3,2.4,14.7,4.6,22.1,6.7c14.6,4,29.4,7.3,44.3,10c14.8,2.6,29.7,4.5,44.6,5.7
				c15.2,1.3,30.4,1.9,45.6,1.6c17-0.3,34-1.6,50.9-3.9C1541.6,1265.6,1541.3,1264.4,1540.5,1264.4L1540.5,1264.4z"/>
		</g>
		<g>
			<path class="st9" d="M1711.1,1138.1c-16.3,0.5-32.7,0.7-49,0.2c-16.2-0.5-32.4-1.5-48.5-3.2c-16.1-1.7-32.1-4-48-7
				c-16-3-31.9-6.6-47.6-10.8c-15.6-4.2-31-9-46.1-14.5c-0.9-0.3-1.7-0.7-2.6-1c-1.2-0.4-2.3-0.4-3.6-0.5c-1.1-0.1-2.2,0.3-2.7,1.4
				c-0.5,1-0.2,2.3,0.6,3c0.8,0.7,1.7,1.4,2.6,1.9c0.9,0.4,1.9,0.7,2.8,1.1c2,0.7,4,1.4,5.9,2.1c3.8,1.3,7.7,2.6,11.5,3.9
				c7.9,2.6,15.8,5,23.8,7.2c15.8,4.4,31.8,8.1,48,11.1c16.1,3,32.3,5.2,48.5,6.7c16.3,1.6,32.7,2.5,49.1,2.6
				c16.4,0,32.8-0.6,49.1-2.3c2-0.2,4.1-0.4,6.1-0.7C1711.9,1139.3,1711.9,1138.1,1711.1,1138.1L1711.1,1138.1z"/>
		</g>
		<g>
			<path class="st9" d="M1809,1013.6c-7.2,1.3-14.4,2.2-21.6,3.2c-7.2,1-14.5,1.8-21.8,2.5c-14.6,1.3-29.2,2-43.8,2.1
				c-29,0.2-58-2.5-86.5-7.8c-16.1-3-32-6.8-47.6-11.5c-1.5-0.5-3.2,1-3.4,2.4c-0.3,1.7,0.9,3,2.4,3.4c28.2,8.4,57.2,14.1,86.5,16.7
				c29.2,2.6,58.7,2.6,87.8-0.9c8.2-1,16.4-2.2,24.5-3.7c8-1.4,15.9-3.4,23.8-5.2C1809.9,1014.5,1809.8,1013.4,1809,1013.6
				L1809,1013.6z"/>
		</g>
		<g>
			<path class="st9" d="M1748,783c-1.9,3.5-2.9,7.4-4,11.1c-1.1,3.6-2.2,7.2-3.2,10.8c-2,7.2-4.1,14.5-5.9,21.8
				c-3.8,14.7-7.3,29.5-10.5,44.4c-1.8,8.3-3.5,16.6-5.2,25c-0.7,3.7,5.1,4.7,5.8,1c5.7-29.7,12.4-59.1,19.6-88.5
				c1-4.1,2-8.2,3-12.4c1-4.2,2.2-8.3,2.5-12.5C1750.1,782.7,1748.5,782,1748,783L1748,783z"/>
		</g>
	</g>
	<g>
		<path class="st10" d="M1481.9,1113.1c-0.9-27.4,1.2-55-2-82.3c0.1-3.6-2.9-6.8-6.4-7c-24.9,1.6-50,0.7-74.9,2.2
			c-34.9,1.3-69.9-2.2-104.8,0.1c-32.1,0.6-64.1,3.6-96.2,3.5c-75.9,0.8-151.8,1.9-227.7,3.7c-2.9-0.2-5.4,1.6-7.9,2.8
			c0.7,28.6,0,57.2,1.9,85.7c0.3,3.8,4.7,4.4,7.7,4c2.6,81.6,4.2,163.3,5.9,244.9c-0.6,7,6.1,11.3,10.9,15.2
			c19.7,13.1,43.8,17.2,67,17.4c16.7,0,33.3,1.5,49.7,3.8c14.7,1.9,29.6,1.1,44.4,1.5c34.4-0.6,68.8,1,103.1-0.1
			c18.3-0.6,36.7,1.7,54.9-1.2c11.9-2.1,23.9-2.5,36-2.3c14.8,0.4,29.5-0.6,44.3-1.4c18.2-3.1,37.4-1.1,54.9-8.2
			c10.3-3.8,23.5-6.4,28.2-17.7c1.6-9.9,0.6-20,1.1-29.9c0.7-76.9,1.8-153.8,2.3-230.8C1477.1,1117.1,1482.4,1117.1,1481.9,1113.1z"
			/>
		<path class="st11" d="M1293.7,1026.1c34.9-2.3,69.9,1.2,104.8-0.1c25-1.5,50-0.6,74.9-2.2c3.5,0.2,6.5,3.4,6.4,7
			c3.2,27.3,1.1,54.9,2,82.3c0.4,4-4.9,4-7.6,3.7c-11.6-1.4-23.2-0.5-34.8-0.6c-10.9,0.1-21.9-0.4-32.7,1.5
			c-25.3,0.8-50.5,1.8-75.8,1.6c-33.7-0.3-67.6-2-101.4,1.1c-18.8,1.7-38.3,2-57.1,2.2c-34.2,0.3-68.7,0.3-103,1.5
			c-20-0.7-39.8,1.7-59.8,1.7c-12.7-1.8-25.5-0.3-38.2-0.1c-3,0.4-7.4-0.2-7.7-4c-1.9-28.5-1.2-57.1-1.9-85.7
			c2.5-1.2,4.9-2.9,7.9-2.8c75.9-1.8,151.8-2.9,227.7-3.7C1229.6,1029.8,1261.6,1026.7,1293.7,1026.1z"/>
		<path class="st12" d="M1466.1,1117.8c-19.8-0.5-39.6,1.4-59.3-0.1c-8.9-0.7-18.3,0.6-27.2,0.9c-54.4,1.7-108.8,1.2-163.2,1.8
			c-55.3,0.6-110.6,2-165.8,4.2c-25.4,1-50.8,2.2-76.2,3.5c4.3,3,9.9,3.1,15.1,3c51.9-0.2,104.2,1.3,156-1.1
			c12.8-0.6,25.8-2.5,38.4-2.8c13.8-0.3,27.6-0.2,41.4-0.2c27.6-0.1,55.2-0.1,82.8,0c36,0.1,72.1-2.1,108.2-2.1
			c14.8,0.1,29.6-1.5,44.4-1.4c4.1-0.2,9.2,0.7,11.4-3.7C1470.5,1118.4,1468.4,1117.7,1466.1,1117.8z"/>
	</g>
	<g>
		<path class="st13" d="M553.1,1066c-10,14-20.9,27.4-30.4,41.7c-3.8,1.7-3.4-2.9-2.2-4.9c9.6-22.2,19.8-44.1,31.3-65.4
			c-0.2-15.3-3.5-30.5-5.1-45.8c-2.8-21.4-3.6-43.1-8.1-64.2c-4-18.6-8.3-37.2-13.9-55.4c-5.6,4.6-10.7,9.8-16.6,14.1
			c-3.5,3-9.5-0.3-8.3-4.9c3.1-12,10-22.7,16.1-33.4c-17.6-45.4-33.9-92.9-66.1-130.4c-5.3,22.1-10.4,44.2-16.1,66.1
			c-1.8,5.9-2.9,12.1-6.8,17.1c-6.3-1.8-4.6-8.6-4.4-13.6c2.5-29.5,6.9-58.9,8.6-88.4c-5.3-4.1-10.4-8.4-16-12.1
			c-13.1-8.8-29.3-12-44.9-11.8c-13.3,0.3-25.6,6.1-37,12.4c-3,1.9-6,3.8-9,5.8c-14.5,10.7-25.9,24.9-35.2,40.2
			c17.4,17.8,32.9,37.4,49.8,55.7c-1.2,2.2-2.5,4.4-3.8,6.5c-5.1-3.3-10.4-6.4-15.5-9.6c-7.2-4.4-13.1-10.6-20-15.6
			c-7.3-5.4-15-10.2-22.5-15.2c-13.8,31.8-13,67.7-8.3,101.4c6.7,32.7,19.9,63.9,36.3,92.8c26.4,5.3,52.9,10.6,79.2,16.3
			c4.8,0.9,9.6,2,14.1,4.2c-0.4,1.1-1.1,3.4-1.5,4.6c-5.4,0.7-10.8,0.7-16.1,0.1c-21.4-2-42.8-3.5-64.1-5.1
			c6.7,10.7,13.1,21.6,19.9,32.3c10.5,16.6,22.7,32,33.5,48.4c7.3,11.2,16.1,21.4,25.6,30.8c15.7,1.9,31.4,4.4,47.2,5.5
			c3.6,0.1,10.5,1.5,7.2,6.5c-10.8,4.5-22.4,6.7-33.4,10.4c12.2,13.9,24.2,28,35.2,42.9c8.8,11.9,17.4,24,27.3,35
			c2.8,3.3,7.2,5.8,11.6,4.3c7.2-1.9,14.7-2.4,22-4l-0.1-1l1,0.4c4.8,0.3,9.6-0.4,14.3-1.3c8.3-1.9,16.6-3.6,25-5.1
			c4-0.7,7.3-4.1,7.5-8.3C556.7,1132.8,553,1099.5,553.1,1066z"/>
		<path class="st14" d="M324.1,692.9c3-2,6-3.9,9-5.8c15.1,35.3,31,70.3,47.4,105c13.7,26.5,25,54,38.4,80.7
			c16.8,34.6,30.6,70.4,45.4,105.9c13.1,31.6,23.9,64.1,33,97c11,34.3,21.2,68.9,30.5,103.7c-4.7,0.9-9.5,1.6-14.3,1.3l-1-0.4
			c-2.5-14.5-7.8-28.4-11.4-42.7c-6.6-25.3-16.1-49.8-22.6-75.1c-13.5-47.9-34.2-93.3-52.7-139.3c-12.1-28-25.6-55.5-37.7-83.5
			c-8.1-18.9-17.2-37.2-25.9-55.8c-9.2-21.1-18.1-42.4-27-63.7C331.8,710.9,328.4,701.7,324.1,692.9z"/>
	</g>
	<path class="st15" d="M604.5,220.1c0.7-0.1,2.2-0.2,3-0.3c7,23.8,15.8,47.7,15.1,72.8c-0.1,19.5-6.5,38.9-18,54.6
		c-3.8,6.2-8.7,11.5-12.1,18c-1.7,51.1-4.1,102.9,6.3,153.3c5.7-11.4,7.1-24.3,12.9-35.7c13-32.4,38-58.8,67.2-77.3
		c12.4-9.2,26.5-15.8,39.2-24.5c3,3.2,0.6,7.4-0.2,11c-4.5,14.1-5.6,29.1-11.8,42.6c-9.7,26.1-25.9,50.4-49,66.5
		c-17.6,11.8-36.9,20.7-56.2,29.2c9.6,57.1,28.5,112,47.4,166.6c1-15.6,6.5-30.4,12-45c5.6-15,15.8-27.6,26.1-39.6
		c10.5-12.1,23.7-21.5,36.2-31.4c12.9-10.4,27.4-18.6,39.5-30c1.2-0.4,3.5-1.1,4.7-1.4c-2.1,15.8-2.6,31.8-5.6,47.5
		c-2.4,12.7-6,25.2-10.4,37.3c-5.9,16.2-17.3,29.6-28.3,42.5c-18.4,18.9-44.1,27.5-68.4,35.9c18.3,47.4,41.4,92.9,66.6,137
		c3.8-17.7,4.1-35.9,7.2-53.8c2.4-13.2,6.9-25.9,11.6-38.5c3-8.1,7.8-15.4,13.6-21.8c10.1-11.2,20.7-21.8,31.9-31.9
		c10.2-9.1,21.7-16.3,32.3-24.8c2.5-1.7,5.1-4.5,8.4-3.6c2.5,0.3,3.5,3,2.9,5.2c-6.9,26.7-6.1,54.8-12.5,81.7
		c-3.5,12.9-9.5,25-16,36.6c-7.7,12.6-16.1,25.1-27.4,34.8c-13.2,11.9-28.1,21.6-43.6,30.3c19.8,30,38.3,61.1,51.4,94.7
		c4.3,11.2,8.7,22.7,9.9,34.8c0.4,4.5,0.1,9.8-3.2,13.3c-4.9,2.2-10.4,1.7-15.7,1.8c-2.6-11.6-4-23.5-8.5-34.5
		c-5.9-14.2-13.2-27.7-19.5-41.8c-13.6-1.1-27,2.1-40,5.5c-27.9,7.4-57.2,10.7-85.8,6c-19.9-3.9-39.2-12-55.2-24.6
		c-11.6-9.1-22.6-18.9-33.2-29c-10.8-10.1-20.5-21.3-31.6-31.1c-3.9-2.7-2.7-9.8,2.4-9.7c25.6-1.8,51.2-0.7,76.8-0.3
		c22.4,0.6,45,1.2,66.7,7c25.9,7.4,50.3,20,71.5,36.5c6.9,5.2,12.6,11.7,18.5,18c-6.3-15.1-12.1-30.5-19.9-44.8
		c-11.7-21.6-24.2-42.6-35-64.7c-9.1-1.2-18.3-1.4-27.3,0.4c-7.1,1.4-13.9,3.8-21.1,4.4c-19,1.4-38.6,2.8-57.2-2.6
		c-20-6-37.4-18.7-51.5-33.9c-12.6-13.5-24.8-27.5-35.9-42.4c-4.3-5.9-9.7-10.9-14.3-16.5c-2.4-2.5,0.5-7.3,3.9-5.4
		c21.6,5,43.9,5.8,65.7,9.4c30.4,4.5,60.3,14.7,85.4,32.7c15.6,9.8,29.7,21.8,42.9,34.6c-21.8-44.2-36.9-91.2-50.6-138.4
		c-10.7-8.2-25-6.7-37.6-8.6c-16.1-2.6-33-2.3-48.3-8.8c-9.7-4-20.1-7-28.3-13.8c-9.7-8.1-18.8-17-25.6-27.7
		c-6.7-10.4-14.1-20.4-20.6-30.9c-1.6-1.8-0.4-6.7,2.6-5.2c37.4,6,76.6,11.3,109.4,31.6c15.9,10.5,31.3,22.6,41.8,38.8
		c-4.4-20.4-9.4-40.6-13.1-61.1c-4-27.7-9.6-55.2-11.4-83.3c-12.3-8.8-27.6-10.8-41.2-16.6c-18.9-7.2-36.2-18.5-50.3-32.9
		c-10.6-10.7-15.7-25.4-19-39.7c-2.6-11.4-6-22.6-9-33.8c0.4-0.6,1.1-1.7,1.5-2.3c26,11.5,51.5,24.8,73.4,43.1
		c20.9,16.8,34.6,40.9,43.4,66c-1.6-31.4,0.7-62.9,0.6-94.3c0.2-5.6-5.4-8.7-8.2-12.9c-9.9-11.6-9.2-28-7.5-42.2
		C577,277.2,597.7,251.1,604.5,220.1z"/>
	<path class="st16" d="M89.8,614.1c4.2,2.3,6.3,6.7,9.1,10.4c14.1,19.5,27.7,40.3,33,64.2c2.2,12.8,2.7,26-0.2,38.7
		c-2.2,9.1-5.1,18.1-7.8,27.1c-1.5,3.5,0.5,7,1.4,10.4c5.8,17.1,9.8,34.8,15.6,51.9c9.7,29.1,20.9,58,36.2,84.6
		c1.9-12.2-0.6-24.6,1-36.8c1.7-27.6,11.5-54.4,26.6-77.4c12.9-19.1,27.9-36.8,43.7-53.6c2.9,3.3,1.9,8,2.3,12.1
		c0.1,8.3,1.3,16.6,2.1,24.9c1.8,36.4-6.8,75-31.2,103c-12.2,13.6-25.2,26.4-38.9,38.5c20.8,40.7,47.9,77.6,74.7,114.4
		c7.3,9.7,14.7,19.4,22.2,29c-1.4-6.6-2.9-13.2-2.9-20c-0.3-16.1-0.7-32.6,4-48.2c4.8-15.4,10.7-30.6,19.5-44.2
		c9.5-14.6,19.1-29.2,29.7-43.1c4.8-6.1,8.7-12.8,12.6-19.5c0.6-1.8,4.5-1.5,4.3,0.7c1.5,10.6,4.7,20.9,6.6,31.5
		c3.4,16.9,4.4,34.2,3.9,51.5c-0.6,17.3-7.2,33.6-13.7,49.3c-11.6,23.7-33.4,39.7-53.7,55.4c32.3,39.2,68.3,75.2,106,109.3
		c-1.9-18.3-7.4-35.9-10-54c-1.8-13.5-1.5-27.1-0.8-40.6c1-17.5,10.3-32.9,17.7-48.3c9.5-19.3,22.5-36.5,35-53.9
		c2.2-3.4,8.1-1.6,7.7,2.5c2,30.6,14,59.9,13.7,90.7c-1.7,27.9-8.1,56.6-24,80.1c-7.8,12.4-17.3,23.6-27,34.5
		c33.7,26.8,66.4,55.7,91.4,91.1c4.7,7.6,10.6,16.2,8.7,25.6c-3.9,4.4-9.8,5.9-15.3,7.1c-5.7-10.9-11.4-21.9-19.5-31.3
		c-9.8-11.1-20.4-21.4-30.5-32.2c-23.4,6-41.3,23.5-63.2,33c-15.4,7.8-32,13.4-49,16.6c-23.9,3.9-48.8,1-71.2-8.3
		c-25.5-9.4-49.2-23-73.8-34.6c-4-1.3-4.3-7.9-0.3-9.3c25.3-10.4,51.7-17.7,77.7-25.7c26.7-8.2,54.6-15.3,82.8-12.6
		c28.3,2.4,57.2,8.5,81.4,23.9c-13-15.2-25.8-30.6-40.7-43.8c-15.5-14.4-31.3-28.5-46.1-43.7c-11.6,1.8-22.7,6.4-32.4,12.9
		c-10,6.9-21.6,10.5-32.8,14.9c-15.6,5.5-32.3,8.9-48.8,6.5c-20.5-2.5-39.4-11.6-56.9-22.1c-19.2-10.4-36.3-24-55.4-34.5
		c-0.1-1-0.4-3-0.5-3.9c4.8-2.8,10.7-1.9,16-3c28.7-4.8,57.1-13,86.4-13.4c38.3-1.2,75.8,11,110,27.4
		c-34.9-35.1-64.2-75.2-91.7-116.3c-14.4-3.6-28.4,2.6-42.5,4.8c-16.6,3.3-33.4,7.9-50.5,5.6c-19.5,0.6-37.6-8.1-53.4-18.6
		c-11.2-8.9-22.9-17.3-33.9-26.6c-2.5-1.1-2.4-6,0.8-5.8c25.6-4.2,51.4-8.9,77.5-8.3c14.4-0.3,28.9,1.6,42.7,5.8
		c16.3,5,32.6,11.4,45.8,22.4c-7.5-12-14.4-24.3-21.7-36.3c-10.3-16.9-18.4-35.1-27.8-52.5c-7.2-13.3-13.2-27.3-19.2-41.1
		c-14-4.2-28.6-1.8-42.9-2.7c-22-0.9-43.9-6.7-63-17.7C30.1,832,21.4,813.9,11,798.1c-3.6-5.9-8.4-11.2-11-17.7
		c32,2.9,64.4,8.4,93.8,22c21.3,10.2,38.9,26.9,53,45.7c-11.4-29.4-19.1-60.1-28.9-90.1c-1.1-4.3-5.7-5.9-9.1-8
		c-6.4-3.5-12-8.7-15.3-15.2c-7.8-15.3-10.1-32.9-8.6-50C86.8,661.2,91.5,637.8,89.8,614.1z"/>
	<g>
		<g>
			<path class="st17" d="M813.8,1303.2c-39.4-98.9-83.1-196.1-123.5-294.6c-31.7-76.4-65-152.1-97.1-228.3c-1.8-3.7-3-8.2-6.5-10.6
				c-6.1-1.4-12.8-1.2-18.7,1.1c-36.1,16.1-73.2,29.7-109.4,45.4c-16.1,1.1-29.9,10.6-44.5,16.4c-2.2-9.6-7.4-19.1-16.6-23.4
				c-9.7-5.2-23-1.4-28.3,8.3c-5.8,9.7-4,21.8,0.8,31.5c-13.6,8.4-30,11.2-43,20.7c-42.6,18-86,34.2-128.1,53.4
				c-1.6,1.8-0.7,4.6-0.2,6.8c34,86.6,67.6,173.4,102.8,259.6c28.1,70.3,56.9,140.3,84.3,210.9c11.6,28.2,21.8,57,35.1,84.5
				c1.9,5.2,8.3,4.5,12.4,2.9c125.7-51.1,251.2-102.8,376.6-154.5c3.2-1.5,6.8-2.6,9.4-5C821.5,1319.4,816.3,1311.3,813.8,1303.2z"
				/>
			<path class="st17" d="M808.3,1164.4c0.7,0.2,2,0.6,2.7,0.8l1-1.3c-0.3-0.7-0.8-2.1-1-2.8l-1.1,0c-2.2-6.4-3.4-13.1-6.4-19.2
				c0.4,7.4,2.4,14.5,4.8,21.4L808.3,1164.4z"/>
		</g>
		<g>
			<path class="st18" d="M803.5,1141.9c3,6.1,4.2,12.8,6.4,19.2c-0.4,0.6-1.2,1.7-1.6,2.2C805.8,1156.4,803.8,1149.2,803.5,1141.9z"
				/>
			<path class="st19" d="M751.7,1273.6c-36.6-93-77.1-184.4-114.8-277c-18.2-43.9-36.5-87.8-55.1-131.6c-10-22.2-18.2-45.2-28.9-67
				c-18.9,8.9-38.5,16.6-58,24c-8.7,3.6-17.6,6.5-25.8,11.2c1.2,1.5,4.1,5.4,0.7,6.4c-6,3-12.3,5.3-18.1,8.7
				c-12.3,6.9-25.6,11.5-38.4,17.4c-24.7,11.1-49.8,21.4-75.3,30.6c-1.1-2.4-2.2-4.9-3.3-7.3c-35,15-70.8,27.9-105.8,42.7
				c27.1,68.7,53.8,137.6,81.5,206c28.5,71.3,57.4,142.4,85.2,213.9c9,22.4,17.6,45,27.3,67.1c2,3.8,3.2,9,7.8,10.3
				c2.5-0.2,5-1,7.4-1.8c103.8-43,207.4-86.6,311-130.2c2.2-1.2,5.1-1.9,6.6-4.1C757.1,1286.3,753.7,1279.9,751.7,1273.6z"/>
			<path class="st20" d="M369.3,817.6c5.3-9.7,18.6-13.5,28.3-8.3c9.2,4.3,14.4,13.9,16.6,23.4c14.6-5.8,28.4-15.3,44.5-16.4
				c3.6,5.6,6.7,11.5,10.4,17c1.2,1.5,4.1,5.4,0.7,6.4c-6,3-12.3,5.3-18.1,8.7c-12.3,6.9-25.6,11.5-38.4,17.4
				c-24.7,11.1-49.8,21.4-75.3,30.6c-1.1-2.4-2.2-4.9-3.3-7.3c-3-6.2-5.7-12.6-7.6-19.3c13-9.4,29.4-12.3,43-20.7
				C365.3,839.4,363.5,827.2,369.3,817.6z"/>
			<path class="st21" d="M472.5,888.8c2.6-1.7,8-1.3,7.7,2.8c0.4,2.3-2.2,3.4-3.8,4.3c-31.8,13.1-63.1,27.3-94.7,40.9
				c-7,2.9-13.9,6.8-21.5,7.7c-2-1.4-2.5-5.1,0.2-6c10.5-6.1,22-10,33-15.1C419.7,911.9,446.4,900.9,472.5,888.8z"/>
			<path class="st21" d="M540,897.7c6-3.5,9.7,7.1,3.5,8.8c-53.3,23.2-106.5,46.6-160,69.5c-4.7,1.7-9.4,4.5-14.6,4
				c-3-1.1-2.4-5,0-6.5c5-3.5,10.9-5.6,16.4-8.4C436.9,942.6,488.4,920,540,897.7z"/>
			<path class="st21" d="M525.7,963.7c5.7-1.3,8.7,7.7,3.1,9.9c-51.9,24.8-104.6,48.3-156.9,72.3c-14.2,6-28,13.1-42.5,18.4
				c-3,1.1-8.2,2.4-8.7-2.2c-0.8-4.1,3.3-5.9,6.2-7.5c21.1-10.8,43-19.9,64.3-30.3c36.4-16.2,72.2-33.5,108.7-49.4
				C508.7,971.4,516.7,966.4,525.7,963.7z"/>
			<path class="st21" d="M536.1,1011.3c3.1-1.7,7.9-0.8,8.8,3.1c1.6,4-2.4,7.1-5.7,8.4c-34.8,15.5-69.5,31.5-104.3,47.1
				c-28.7,12.8-57.1,26.3-86.1,38.3c-3.7,1.2-9.1,3.8-12-0.1c-1.6-5,4.3-7.3,7.6-9.4c15.8-7.4,31.4-15.1,47.3-22.2
				C440,1055.1,487.9,1032.7,536.1,1011.3z"/>
			<path class="st21" d="M564.8,1073.8c3.9-0.3,6.7,3.9,6,7.5c-2,3.9-6.8,5.1-10.4,7.1c-58.9,26.1-117.5,52.6-176.8,77.9
				c-3.6,1.4-7.4,3.2-11.4,2.8c-3-0.8-4.3-5.1-1.4-6.9c8.7-6.1,18.9-9.6,28.2-14.5c51.9-23.5,103.8-47,155.8-70.3
				C558,1076,561.2,1074.5,564.8,1073.8z"/>
			<path class="st21" d="M591.5,1127c3-1.5,8.1-1.8,9.1,2.2c2.4,4.6-3.1,7.5-6.5,9.1c-62.8,27.2-125.3,55.2-188.2,82.3
				c-4.3,1.6-8.9,4-13.6,2.9c-4.3-3.2-0.9-8.6,3.1-10c19.3-9.4,39.1-17.6,58.7-26.4C499.9,1167.3,545.6,1146.9,591.5,1127z"/>
			<path class="st21" d="M612.9,1175.2c2.9-1.3,7.9-1.9,9,2.1c1.8,2.9-0.5,5.9-3.2,6.9c-55.8,25-111.9,49.5-167.9,74.2
				c-10.8,4.6-21.4,9.6-32.5,13.2c-3.5,1.5-8.6-3.6-5.2-6.6c5.4-4.4,12.3-6.7,18.4-9.9C492,1228.3,552.3,1201.4,612.9,1175.2z"/>
			<path class="st22" d="M626.4,1245.7c16.9-7.4,33.6-15.7,51.2-21.4c4.3,11.4,9.5,22.5,14.4,33.6c2,3.2-2.2,4.7-4.3,5.9
				c-14.1,6.4-28.1,13-42.4,18.8C638.4,1270.6,631.2,1258.7,626.4,1245.7z"/>
			<path class="st23" d="M329.8,953.4c-7.9-10.7-22.2-15.1-35-12.6c-12.1,2.3-23.3,12.6-23.7,25.4c-1.5,13.7,8.7,26.4,21.3,30.6
				c13.8,5.2,31.5,0.9,39.5-12.1C337.9,975.2,336.7,962.2,329.8,953.4z"/>
			<path class="st11" d="M291.6,949.7c6.8-2.1,8.3,7.6,11.5,11.8c5.3-1.6,10.3-4.1,15.6-5.6c4.1-0.7,6.3,4.3,4.4,7.5
				c-4.6,3.2-10.2,4.6-15.2,7c1.7,4.6,4.2,9,6,13.6c1,4.4-4.8,7-7.8,4.1c-2.6-4.4-4.4-9.2-6.6-13.9c-5.4,1.4-10.7,4.2-16.4,4.3
				c-3.4,0.1-4.2-5-1.5-6.6c4.2-3,9-4.8,13.5-7.1C293.8,959.8,290.2,954.9,291.6,949.7z"/>
			<path class="st12" d="M809.8,1161l1.1,0c0.3,0.7,0.8,2.1,1,2.8l-1,1.3c-0.7-0.2-2-0.6-2.7-0.8l-0.1-1.1
				C808.7,1162.7,809.5,1161.6,809.8,1161z"/>
		</g>
	</g>
	<path class="st12" d="M1163.6,1074.3c9.3-5.9,32.1-3.1,41.2-2.8c17.4,0.5,34.8,2.3,52.2,2.2c11.6-0.1,23.8-3.1,25.2,11
		c1.4,13,0.9,26.1,1.1,39.1c0.1,11.6,2.8,23.8,1.4,35.2c-2,16.3-5.7,25.6-24.7,25.5c-25.4-0.1-50.7-1.6-76.1-0.4
		c-12.9,0.6-16.5-0.2-19-12.7c-3.5-17.5-2.6-34.4-3.5-52.1c-0.4-8-0.7-16.1-1.6-24.1c-0.6-5.8-3-14.6,1.8-19.5
		C1162.2,1075.2,1162.9,1074.7,1163.6,1074.3z"/>
	<path class="st10" d="M1166.9,1066.5c2.6-0.9,5.3-1.1,8.1-1.3c6-0.5,11.9-0.7,18-0.7c10.4,0,20.7-0.8,31-0.9c13-0.1,26-0.5,39-1
		c8.6-0.3,15.9,1.5,16.9,11.3c1.3,13,0.9,26.1,1.1,39.1c0.1,11.6,2.7,23.8,1.4,35.2c-1.9,16.3-5.5,25.6-23.8,25.5
		c-24.4-0.1-48.7-1.6-73.1-0.4c-12.4,0.6-15.8-0.2-18.2-12.7c-3.4-17.5-2.5-34.4-3.4-52.1c-0.4-8-0.7-16.1-1.5-24.1
		c-0.6-5.9-3.3-15,3.9-17.9C1166.4,1066.7,1166.7,1066.6,1166.9,1066.5z"/>
	<path class="st11" d="M1168.3,1073.2c2.5-1.1,6.9-0.4,9.5-0.4c8.6,0,17.3,0.5,25.9-0.1c20.1-1.4,40.4-1.1,60.5-1.4
		c2.5,0,6.2-0.4,8.2,1.5c2.6,2.4,0.9,9,0.9,12.1c-0.1,11,0,22.1,0.8,33.1c-24.2,1.3-48.6,1.1-72.8,1.9c-9.7,0.3-21.7,0-31.4-0.5
		c0.7,0-0.9-23.2-1.2-25.3c-0.7-4.4-0.8-8.9-1.3-13.3C1167.2,1078.5,1165.6,1074.4,1168.3,1073.2z"/>
</g>
<g>
	<g>
		<path class="st24" d="M1470.6,837.2c-10.3-30.8-24.9-60.8-46.9-84.9c-8.1-8-17.3-14.7-26.1-21.8c-23.2-20.8-50.5-36.2-78.4-49.8
			c-25.4-13.1-53.7-19.4-82.1-21.5c-9.4-1.1-18.8,0.9-28.2,1.8c-28.7,4.3-57.3,11.5-83.6,24.1c-17.5,7.5-34.5,16-51.3,25
			c-19.8,10.2-37.6,23.9-55.6,36.9c-13.4,10.1-25.2,22.1-37.8,33.1c-10.7,9.4-20.1,20.1-29.5,30.7c-12.1-13.8-31.6-21.8-49.7-17.1
			c-15.3,3.5-27.7,16.4-31.1,31.6c-5.9,24.1,8.8,50.1,30.8,60.4c12.8,6.2,28.6,6.8,41.3,0c11.6-5.9,19.9-17.6,22.1-30.3
			c2.4-12.8-0.7-26.2-7.7-37.1c6.7-5.1,12.8-11.1,16.9-18.4c4-7.5,11.4-12.1,17.3-18.1c11.8-10.1,22.7-21.4,35.4-30.5
			c9.7-7,19.3-14.3,29.3-20.8c14.8-9.9,30.9-17.8,46.8-25.9c12.1-6.3,25.8-8.2,38.6-12.5c19.2-6.9,38.9-12.1,58.9-16.2
			c19.4-2.4,38.9-5.6,58.5-4.1c14.2,4.2,28.3,8.6,42,14.1c11.9,4.5,22.8,11.2,33.9,17.4c18.9,10.9,39.4,20.1,55.2,35.5
			c11.9,10.6,25.1,20,35,32.7c11.9,15,21.7,31.7,28.7,49.6c6.5,11.3,8.5,24.3,10.6,37.1c2.3,21,3.3,42.3-1.1,63.1
			c-4.4,23.8-13.3,46.4-21.1,69.2c-12.3,30.4-22.8,61.8-39.8,90.1c-8.8,16.4-17.7,32.7-25.3,49.7c-14.2-3.9-30.3-3.5-43.1,4.5
			c-17.7,9.3-29.8,26.3-37.5,44.4c-7.2,17.4-14.3,34.9-19.8,53c-7.6,21.4-11.7,44-19.7,65.3c-5.8,2-11.9,6.5-11.8,13.3
			c-1.3,7.1,5.7,13,12.4,12.9c5.1-1.2,10.5-4.5,11.6-10c0.4-5.2-1.1-10.6,1.2-15.5c13.7-37.3,22.9-76.2,40.3-112.1
			c6.1-13.2,13.7-26.3,25.1-35.6c14.8-9.3,35.5-10.2,50.2-0.4c14.4,11.2,17.2,31.4,16.4,48.5c-5.1,32.1-17.1,62.5-29.1,92.6
			c-7,18.5-17.9,35.2-27.4,52.4c-11.8-0.1-18.7,16.2-11.1,25c5.1,6.7,16.1,5.7,20.8-1c3.9-4.5,2.2-10.7,2.3-16
			c4.7-10.2,11-19.7,15.8-29.9c13.2-27.8,26.5-55.8,34.4-85.7c5.6-20.8,9.3-42.6,5.9-64.1c-2.5-15.4-11-31.1-25.9-37.5
			c17.5-34.1,34-68.7,50.4-103.3c16.2-36.1,28.5-73.8,36.5-112.6C1479.1,891.5,1478.1,863.5,1470.6,837.2z M1363.5,712.8
			c-7-4.3-14.4-7.7-21.3-12c15.3,6.4,29.3,15.8,42.3,26.1C1377.2,722.4,1371,716.6,1363.5,712.8z"/>
		<g>
			<path class="st25" d="M1208.9,660.8c9.4-0.9,18.7-2.9,28.2-1.8c28.3,2.1,56.7,8.4,82.1,21.5c27.8,13.6,55.2,29.1,78.4,49.8
				c8.8,7.2,18.1,13.8,26.1,21.8c22,24.2,36.7,54.1,46.9,84.9c7.6,26.3,8.6,54.4,3.7,81.2c-8,38.7-20.3,76.5-36.5,112.6
				c-16.4,34.6-32.9,69.2-50.4,103.3c14.9,6.4,23.4,22.1,25.9,37.5c3.4,21.5-0.4,43.3-5.9,64.1c-7.9,29.9-21.2,57.9-34.4,85.7
				c-4.8,10.2-11.1,19.7-15.8,29.9c-0.1,5.4,1.6,11.5-2.3,16c-4.7,6.7-15.7,7.7-20.8,1c-7.6-8.8-0.7-25.1,11.1-25
				c9.5-17.3,20.4-33.9,27.4-52.4c11.9-30.1,24-60.5,29.1-92.6c0.8-17.1-2-37.3-16.4-48.5c-14.7-9.9-35.4-8.9-50.2,0.4
				c-11.4,9.2-19,22.4-25.1,35.6c-17.5,35.8-26.7,74.8-40.3,112.1c-2.4,4.9-0.8,10.3-1.2,15.5c-1.1,5.5-6.5,8.8-11.6,10
				c-6.7,0.1-13.7-5.7-12.4-12.9c-0.1-6.8,6-11.3,11.8-13.3c8-21.3,12.1-43.9,19.7-65.3c5.4-18.1,12.5-35.6,19.8-53
				c7.7-18,19.8-35.1,37.5-44.4c12.8-8,28.9-8.5,43.1-4.5c7.6-17,16.6-33.3,25.3-49.7c17-28.3,27.5-59.7,39.8-90.1
				c7.8-22.8,16.7-45.4,21.1-69.2c4.4-20.8,3.4-42.2,1.1-63.1c-2-12.7-4.1-25.7-10.6-37.1c-6.9-17.9-16.8-34.6-28.7-49.6
				c-9.9-12.7-23.1-22-35-32.7c-15.8-15.4-36.3-24.6-55.2-35.5c-11.1-6.2-21.9-12.9-33.9-17.4c-13.7-5.5-27.9-9.9-42-14.1
				c-19.6-1.6-39.1,1.7-58.5,4.1c-20,4.1-39.7,9.3-58.9,16.2c-12.8,4.4-26.5,6.2-38.6,12.5c-15.9,8.1-31.9,16-46.8,25.9
				c-10,6.5-19.6,13.8-29.3,20.8c-12.7,9.1-23.6,20.4-35.4,30.5c-5.9,5.9-13.3,10.6-17.3,18.1c-4.2,7.3-10.3,13.4-16.9,18.4
				c-1.8-2.6-3.6-5.1-5.6-7.4c9.4-10.6,18.8-21.3,29.5-30.7c12.7-11,24.4-23,37.8-33.1c18-13,35.8-26.6,55.6-36.9
				c16.7-9.1,33.8-17.5,51.3-25C1151.6,672.3,1180.2,665.1,1208.9,660.8z M1342.2,700.8c6.9,4.3,14.3,7.7,21.3,12
				c7.5,3.8,13.8,9.7,21,14.1C1371.4,716.6,1357.5,707.2,1342.2,700.8z"/>
			<path class="st26" d="M956.7,818.1c-1.8-2.6-3.6-5.1-5.6-7.4c-12.1-13.8-31.6-21.8-49.7-17.1c-15.3,3.5-27.7,16.4-31.1,31.6
				c-5.9,24.1,8.8,50.1,30.8,60.4c12.8,6.2,28.6,6.8,41.3,0c11.6-5.9,19.9-17.6,22.1-30.3C966.8,842.4,963.6,828.9,956.7,818.1z"/>
			<path class="st27" d="M915.8,824c7.3-2.4,17-0.9,20.9,6.4c4.6,7.1,3.6,18-3.5,23.1c-7.7,3.5-17.5,0.3-23-5.8
				C905.3,840.4,905.9,826.6,915.8,824z"/>
		</g>
	</g>
	<g>
		<g>
			<path class="st28" d="M897.7,1150c-6.7-55.3-15.7-110.6-32.6-163.7c-4.8-21-11-41.8-20.6-61.3c-9.6-19.6-13.8-41.5-24.9-60.3
				c-5.9-15.8-13.6-31.1-22.9-45.2c-7.3-11.5-17.7-20.6-28-29.3l-0.4-0.1c-20.6-17.1-45.3-28-69.1-39.7
				c-18.1-9.1-37.8-14.4-55.4-24.4c-9.8-5.2-20.6-9.7-27.9-18.5c-8.2-8.3-11.4-19.7-15.9-30.1c-5.5-11.6-9.4-23.9-15.7-35.1
				c-10.1-22.4-14.8-46.8-26.2-68.7c-4.5-11.8-9.9-27.2-24.2-29.6c-7.2,3.1-7.9,11.5-7.8,18.4c-2.5-7.3-6.2-14.1-9.5-21
				c-7.1-15.2-13.7-30.7-22.3-45c-2.5-4-6.1-7-9.5-10.2c-4.3-2-9.3-4.4-13.9-1.8c-4.3,2.5-5.5,7.7-6,12.3c-4.9-8-6.4-18.3-13.6-24.8
				c-3-2.8-7.5-5.6-11.7-3.4c-5.4,3.9-4.7,11.3-4.3,17.2c1.9,16.5,5.2,32.7,6.2,49.3c0.1,0.2,0.3,0.5,0.4,0.7
				c0.9,17.8,4.7,35.6,10.6,52.4c-11.4-16.2-23-32.3-36.9-46.5c-9-9.3-21.7-14.1-34.4-15.3c-4.9-0.7-10.9,1.1-12.3,6.4
				c-2.8,6.5,1.3,13,5,18.1c7.4,9.9,14.9,19.8,22,29.8c9.5,14,15.2,30.1,22.6,45.1c14.7,28.4,28.2,57.5,39.7,87.4
				c15.8,43.1,32.5,86.9,61,123.4l0,0.2c16.3,17.2,33.5,33.6,51.6,48.9c14,10.5,28.2,20.8,43.4,29.3c13.6,7.3,26.1,16.5,39.4,24.1
				c8.2,5.6,16.7,10.8,23.8,17.7c5.3,5,9.3,11.2,13.8,16.9c5,8.7,6.7,18.9,7.6,28.8c0.7,19-0.3,37.9-1,56.9
				c-2.1,24.9-2.2,50.1-8.4,74.4c-3.5,15.6-5.4,31.5-7.6,47.3c-7,43.5-16.1,86.8-20.6,130.7c-7.7,59.2-13.1,118.7-18.9,178.1
				c-3.3,28.9-6.2,57.8-8.1,86.8c18.7,6.7,37.8,12.6,57.2,17.4c20.5,5.1,40.6,12.1,61.3,16.6c25.1,5.6,50.2,11.3,75.6,15.8l-0.1,0.2
				c10.3,1.4,20.6,3,31.1,3.3c5.9-19.1,14.9-37.2,19.7-56.6c3.7-16.1,9.2-31.8,12.8-47.9c3.5-15.6,7-31.3,9.8-47.1
				c3.3-23.5,5.6-47.1,9-70.6c10.8-66.1,2.1-133.1-4.8-199.2C903.5,1189.1,900,1169.7,897.7,1150z"/>
			<path class="st29" d="M471,484.5c4.6-2.5,9.6-0.2,13.9,1.8c-7.3,3.7-13.3,10.5-12.6,19.2c0,0.9,0.1,2.6,0.1,3.4
				c-2.1-4.3-4.7-8.2-7.4-12.1C465.6,492.2,466.7,487,471,484.5z"/>
			<path class="st29" d="M442,535.8c2.3,3.5,4.6,7.2,5.7,11.3c4.2,14.9,7.8,30.1,13.6,44.6c-2.7-0.8-5.4-1.7-8.1-2.5
				c-0.1-0.2-0.4-0.7-0.6-1C446.7,571.4,442.9,553.6,442,535.8z"/>
			<path class="st29" d="M526.2,562.6c-0.1-6.9,0.6-15.3,7.8-18.4c3.2,9.9,6.7,19.7,9.1,29.8c2,8,1.3,16.3,1.7,24.5
				c-1.1-0.5-3.3-1.6-4.3-2.1C532.6,586.7,529.3,574.4,526.2,562.6z"/>
			<path class="st29" d="M584.4,642.4c6.3,11.2,10.2,23.5,15.7,35.1c4.5,10.4,7.7,21.8,15.9,30.1c7.3,8.8,18,13.2,27.9,18.5
				c17.6,10,37.4,15.3,55.4,24.4c23.8,11.6,48.6,22.6,69.1,39.7c-6.8-1-13.3-3-19.6-5.6c-31.6-12.3-66.1-16-96.2-31.9
				c-15.3-7.5-29.7-17.3-40.3-30.8C594.3,699.3,587.5,670.4,584.4,642.4z"/>
			<path class="st29" d="M458.4,713.3c4,3.9,8.3,7.6,11,12.5c7.2,13.3,13.8,27,19.7,41c5.5,12.9,13.6,24.5,19.6,37.1
				c4.9,10.4,10.5,21,10.7,32.8C490.9,800.2,474.2,756.4,458.4,713.3z"/>
			<path class="st29" d="M819.7,864.7c11.1,18.9,15.2,40.8,24.9,60.3c9.6,19.4,15.7,40.2,20.6,61.3c16.8,53.2,25.9,108.5,32.6,163.7
				c2.3,19.6,5.8,39.1,8.4,58.7c6.9,66,15.6,133,4.8,199.2c-3.4,23.5-5.8,47.1-9,70.6c-2.8,15.8-6.3,31.4-9.8,47.1
				c-3.6,16.1-9.1,31.8-12.8,47.9c-4.8,19.5-13.7,37.5-19.7,56.6c-10.4-0.3-20.8-1.9-31.1-3.3l0.1-0.2c7.8-14.1,10.3-30.3,13.3-46
				c5.6-31.9,9.6-64.1,14.3-96.1c5.3-31.7,7.8-63.9,10.4-95.9c2.5-20.1,1.7-40.4,1.6-60.5c-0.1-29.8-4.9-59.2-6.4-88.9
				c-2-39.9-6-79.6-11.4-119.1c-6.9-42.8-14.3-85.4-21.4-128.1c-4.8-25.8-7.9-51.9-7-78.2C822.9,897.3,817.9,881.2,819.7,864.7z"/>
			<path class="st29" d="M717.4,936.8c12.1-2.1,22.9-8.1,34.7-11.1c-0.6,10.3-11.1,14.7-17.3,21.4c-12,12.3-27.2,20.7-43.2,26.8
				c-4.5-5.7-8.5-11.9-13.8-16.9c-7.2-6.9-15.7-12.1-23.8-17.7C675.1,940.7,696.5,940.7,717.4,936.8z"/>
			<path class="st30" d="M472.4,509c0-0.9-0.1-2.6-0.1-3.4c11.8,23,17.1,48.5,25.7,72.7c4.6,13.9,10.8,27.2,16.2,40.8
				c13.3,32.4,27.3,64.7,45.7,94.5c5.8,9.4,14.7,16.3,23,23.4c12.1,9.1,26.3,15.1,40.6,19.9c20.3,5.8,40.7,11.2,61.4,15.6
				c21.1,6.3,43,12.3,61.1,25.5c18,11.6,28.6,26.6,30.6,48.2c-3.2-1.1-5-7.6-6.7-10.2c-2.5-3.9-5.2-7.6-8.1-11.1
				c-8.8-11-20.8-18.7-32.7-25.9c-29.3-15.9-62.8-20.8-94.5-29.9c-19.5-4.4-38.4-11.9-55.1-23c-8.6-6.1-15.7-13.9-23.6-20.9
				c-10.8-9.5-19.3-21.1-29.1-31.5c-10.5-12.6-22.1-24.1-33.8-35.5c-4.4-4.7-10.9-6-17-7.5c-1.6,8.2-2.7,17.1,1.4,24.8
				c8.6,16.3,25.2,27.3,31.3,45.1c5.4,15.5,12.1,30.4,18.8,45.4c2,4.7,4.3,9.4,5.3,14.4c-1,2.3-4,4.8-6,2.2
				c-4.8-4.5-6.7-11.2-9.4-17c-5.4-13.1-12-25.6-16.3-39.1c-5.9-17.8-21.6-29.6-30.5-45.7c-5.2-10.2-6.3-22.9-2.1-33.6
				c2.3-5.8,9.5-4.9,14.5-6.3c-11-16.5-19.5-34.6-29.8-51.5c2.7,0.8,5.4,1.7,8.1,2.5c7.4,14.9,15.2,29.6,23.4,44.2
				c5,9.1,14.5,14,21.5,21.3c7.8,8.1,16.2,15.8,23.2,24.7c3.9,4.8,8.1,9.4,12.6,13.7c-6.9-17.1-15.2-33.5-21.8-50.7
				c-13.2-32.6-27.4-65-36.2-99.1C480.8,533.3,475.5,521.5,472.4,509z"/>
			<path class="st30" d="M540.5,596.4c1.1,0.5,3.3,1.6,4.3,2.1c3.8,9.5,7.4,19,11.3,28.4c12.8,31.6,29.6,61.4,48.9,89.4
				c-0.6,1-1.7,3-2.3,4c-9.7-9.1-15.4-21.4-22.2-32.6C564.3,658.7,550.7,628.1,540.5,596.4z"/>
			<path class="st31" d="M449.5,495.2c-4.1-3.1-0.3-10.6,4.6-8.1c3.9,0.9,3,5.6,3.8,8.6C455.1,495.5,451.3,498.5,449.5,495.2z"/>
			<path class="st31" d="M484.3,504.5c-1.2-4.2,5.1-7.3,7.8-4c1.6,2.3,1.2,5.3,1.6,7.9C490.4,507.9,484.9,509.2,484.3,504.5z"/>
			<path class="st31" d="M386.3,536.5c6.9-2,13.5,2.5,18.1,7.3c3.2,3.5-0.6,9.7-5.2,8.3C392.5,549.8,385.8,544.4,386.3,536.5z"/>
			<path class="st31" d="M693.1,802.2c7.2-0.1,13.4,4.6,19.4,8c7.5,5.2,15.9,10.3,20.5,18.5c2.7,3.8-1.3,10.3-5.8,7.6
				c-7.2-5.1-12.6-12.4-20.4-16.8c-5.4-3.6-12.2-5.3-16.5-10.3C688.1,806.3,690.6,803.7,693.1,802.2z"/>
		</g>
		<g>
			<path class="st28" d="M1480.6,526.5c-14.8-0.3-29.9,5.9-40,16.8c-12.1,13-22.8,27.2-33,41.8l-1.9,1.3c8.5-22,10.4-45.9,12.4-69.2
				c1.8-13,4.8-26,4.7-39.1c0.3-5.6-4.7-12.6-10.8-9.6c-12,5-12.8,19.5-19.8,28.7c2-5.6-2.9-13.8-9.4-13.7
				c-3.9-0.3-7.4,1.9-10.7,3.6c-4.7,4.3-8.9,9.2-11.6,15c-8,13.9-13.8,28.8-20.9,43.1c-2.9,5.7-5.7,11.4-7.8,17.4
				c0.1-6.9-0.7-15.2-7.9-18.4c-15.1,2.6-19.9,19.1-24.9,31.3c-11.2,21.1-15.1,45.1-25.6,66.5l-0.1,0.8
				c-7.5,14.5-13.1,29.9-19.6,44.8c-4.6,13.4-14.2,25.2-26.8,31.7c-12.1,6.2-23.9,13.1-36.7,17.7c-19.7,7.4-38.8,16.5-57.5,26.1
				c-15,7.9-30.3,15.8-43.1,27l-0.5,0.1c-3.4,2.8-6.7,5.6-9.8,8.6c-19.7,17.4-31.5,41.8-41,65.8c-11.4,19.3-15.5,41.7-25.5,61.7
				c-9.4,19.1-15.3,39.7-20.1,60.4c-5.4,18.2-11.2,36.4-14.6,55.2c-8.6,37.1-13.9,74.9-18.5,112.7c-2.4,19.4-5.9,38.6-8.3,58
				c-5,50.1-11.5,100.4-8.8,150.9c0.5,26.9,6.3,53.4,9.1,80.1c2.3,22.1,5.4,44.1,10.6,65.7c4.3,22.3,11.4,44,16.9,66
				c5.3,20.2,14.5,39.2,20.8,59.1c10.6,0,21.3,0.1,31.9-0.2c35.6-3.2,70.7-10.6,105.3-19.1c18.1-5.4,36.8-8,54.7-13.9
				c10.5-3.8,22.4-6,31.6-12.3c-0.3-39.4-6.3-78.7-9.9-118c-5.3-49.9-9.1-100-16.3-149.7c-4.3-51.8-15.7-102.7-23.5-154.1l-0.1,1.4
				c-0.7-16.3-5.2-32.3-8.4-48.2c-4.3-31.4-5.7-63-6.6-94.6c-0.9-17.6-0.8-36.7,8.1-52.5c4.6-5.9,8.8-12.3,14.4-17.3
				c6.9-6.3,14.7-11.2,22.4-16.4l0.6,0c25.6-17.3,53.4-31,77.9-50c20.3-15.8,38.6-33.9,56.4-52.5c10.7-14.5,21-29.5,28.5-45.9
				c13.5-24.7,22.4-51.5,32.7-77.6c4.9-13.1,10-26.1,16.2-38.6l-0.1-0.6c4.9-8.8,8.5-18.2,13.1-27.2c6.3-13.5,14.2-26.2,19.1-40.3
				c7.8-18.8,20.1-35.1,32.4-51.1c3.6-4.8,7.5-9.6,9.2-15.5C1491,534.3,1487.3,526.6,1480.6,526.5z"/>
			<path class="st28" d="M1200.3,1389.6c-1-22.8-5.9-45.6-3.1-68.3c7.2,49.7,11,99.8,16.3,149.7c-0.8,0-2.5,0.1-3.4,0.1
				C1206.5,1443.9,1201.6,1417,1200.3,1389.6z"/>
			<path class="st29" d="M1396.9,592.3c7.6-24.9,15.6-49.7,21.1-75.1c-2,23.3-3.8,47.2-12.4,69.2
				C1402.8,588.4,1399.8,590.3,1396.9,592.3z"/>
			<path class="st29" d="M1323.9,544.2c7.2,3.2,8,11.5,7.9,18.4c-3.3,11.7-6.1,24.1-14.5,33.4c-1,0.6-3.1,1.8-4.2,2.4
				c0.4-8.7-0.2-17.5,2-25.9C1317.6,562.9,1320.8,553.5,1323.9,544.2z"/>
			<path class="st29" d="M1424.8,637.5c7.1-10.6,13.7-21.8,23.1-30.6c-4.9,14.1-12.8,26.9-19.1,40.3c-4.5,9-8.2,18.4-13.1,27.2
				C1412.9,661.4,1418.3,648.4,1424.8,637.5z"/>
			<path class="st29" d="M1253.8,687.6c6.5-15,12.1-30.3,19.6-44.8c-0.9,13.6-4.3,26.8-7.9,39.9c-5.9,20.9-17.6,40.5-34.8,54.1
				c-11.2,9.1-24.2,15.6-37.3,21.3c-20.9,9.4-43.7,12.9-65.4,20c-13,3.3-25,10-38.4,11.9c12.9-11.2,28.1-19,43.1-27
				c18.8-9.5,37.8-18.6,57.5-26.1c12.8-4.7,24.6-11.5,36.7-17.7C1239.6,712.8,1249.1,701,1253.8,687.6z"/>
			<path class="st29" d="M1388.6,725.9c2.6-5,6.8-8.9,11-12.4c-10.3,26.1-19.2,52.9-32.7,77.6c-7.6,16.4-17.8,31.4-28.5,45.9
				c0.2-8.2,2.5-16.2,6.3-23.5c7.3-17,18-32.3,25.4-49.3C1375.8,751.2,1381.9,738.4,1388.6,725.9z"/>
			<path class="st29" d="M1012.8,926.3c10-20,14.2-42.4,25.5-61.7c1.6,16.4-3.3,32.5-2.5,49c1.1,29.4-3.3,58.6-8.6,87.4
				c-6.6,39.7-13.5,79.3-19.9,118.9c-4.8,36.7-8.9,73.5-10.8,110.4c-1.2,26.2-4.5,52.2-6.3,78.3c-0.7,29-1.9,58.1,1.7,87
				c2.2,34.5,6.3,68.9,11.8,103c3.9,28.5,7.8,57.1,12.8,85.5c2.9,17.2,7.8,34.2,15.3,50c-10.6,0.3-21.3,0.2-31.9,0.2
				c-6.3-19.9-15.4-38.8-20.8-59.1c-5.5-22.1-12.6-43.7-16.9-66c-5.1-21.6-8.3-43.6-10.6-65.7c-2.7-26.7-8.6-53.2-9.1-80.1
				c-2.8-50.5,3.8-100.8,8.8-150.9c2.4-19.4,5.9-38.6,8.3-58c4.5-37.8,9.8-75.6,18.5-112.7c3.3-18.8,9.1-36.9,14.6-55.2
				C997.5,966,1003.4,945.4,1012.8,926.3z"/>
			<path class="st29" d="M1105.9,925.7c9.4,2.5,18.2,6.7,27.4,9.4c22.9,5.7,46.8,5.3,70.2,4.3c-7.6,5.2-15.5,10.2-22.4,16.4
				c-5.6,5-9.8,11.4-14.4,17.3c-16.1-4.6-31-13.3-42.7-25.3C1117.7,940.9,1106.8,936.4,1105.9,925.7z"/>
			<path class="st29" d="M1173.6,1168.6l0.1-1.4c7.8,51.3,19.2,102.2,23.5,154.1c-2.8,22.7,2.1,45.6,3.1,68.3
				c1.3,27.4,6.2,54.3,9.9,81.4c0.9,0,2.5-0.1,3.4-0.1c3.6,39.3,9.7,78.5,9.9,118c-9.2,6.3-21.1,8.5-31.6,12.3
				c1.1-9.9,3-19.7,4.5-29.5c1.6-11.3-0.5-22.7-1.5-34c-2.2-20.7-2.8-41.5-4.6-62.2c-1.5-22-4.6-43.8-5.5-65.8
				c-1.1-17.2-0.5-34.4-2.4-51.5c-2.6-22.4-2.8-44.9-4.8-67.3c-2.4-27.9-2.6-55.8-2.9-83.8C1174.6,1194.3,1172,1181.5,1173.6,1168.6
				z"/>
			<path class="st30" d="M1372.1,487c3.3-1.8,6.7-3.9,10.7-3.6c6.5-0.1,11.3,8.1,9.4,13.7c-6.5,6.7-7.1,16.3-10.3,24.6
				c-7.5,20-11.8,40.9-19.2,60.9c-10.4,27.7-21.9,55-33.1,82.4c-4.5,10.9-10.3,21.1-14.7,32c11.7-11.6,21.5-25.1,33.6-36.3
				c7.9-9.4,19.8-15.1,25.8-26.1c7.8-13.9,14.5-28.5,22.8-42.2c2.9-2,5.9-3.9,8.8-5.9l1.9-1.3c-12,17.7-20.4,37.6-32.5,55.4
				c4.8,1.5,12,0.9,14.3,6.5c3.7,8.8,3.2,19.1,0.2,28c-7,19-25.7,30.7-32.2,49.9c-2.9,8.5-6.2,17-10.1,25.1
				c-4.5,9.4-7.7,19.4-12.8,28.4c-1.6,3.5-5.5,4.8-8.9,5.9c0.6-4.2,0.5-8.6,2.2-12.6c6.5-15.5,14.1-30.6,19.5-46.5
				c2.2-6.3,4.8-12.5,8.6-18c7.7-11.2,18.4-20.1,24.5-32.3c4-7.7,2.7-16.5,1.5-24.7c-5.7,1.3-11.7,2.4-16,6.7
				c-18.5,17.1-35,36.2-51.5,55.2c-8.1,9.1-17.4,17-26.1,25.4c-18.6,17.3-43.4,26-67.7,31.9c-30.1,8.4-61.5,13.5-89.5,27.9
				c-14.6,7.5-24.8,18.5-37,28.9c-3.8-7.1,5.5-17.5,10-22c8.3-8.3,19.9-14.7,30.7-19.2c19.2-7.6,38.9-13.6,59.2-17.4
				c23-6.4,47-10.8,68.2-22.5c10.4-5.1,18.8-13.1,27.1-20.9c7.9-7.4,12.6-17.3,17.9-26.5c18.9-33.7,32.6-69.9,47.5-105.5
				c6.4-16.7,11.7-33.8,16.8-51c4.3-13.8,9.9-27.1,15.4-40.5C1383.9,494.5,1379.8,488,1372.1,487z"/>
			<path class="st30" d="M1313.1,598.4c1-0.6,3.1-1.8,4.2-2.4c-10,33.2-24.9,64.8-41.8,95.1c-6.6,10.4-11.5,22.6-21.8,30
				c0.1-4.4,1.4-8.6,4.2-12C1281.2,674.9,1298.8,637.1,1313.1,598.4z"/>
			<path class="st31" d="M1401.5,488c2.6-0.7,5.2-1,7.9-1.5c-0.4,3.5,1.4,10.1-3.8,10.5C1400.4,498.4,1399.5,491.3,1401.5,488z"/>
			<path class="st31" d="M1367,499.8c5.9-4.1,9.9,7.6,3.1,8.6C1364.5,510.7,1362.1,501.8,1367,499.8z"/>
			<path class="st31" d="M1453,544.9c3-5.6,9.8-7.2,15.1-10.1c1.2,2.7,4.2,5.2,2.8,8.4c-3,4.2-7.6,7.2-12.4,8.7
				C1454.6,553.4,1450.9,548.2,1453,544.9z"/>
			<path class="st31" d="M1161,802.5c4.5-2.5,9.4,3.8,5.9,7.6c-5.3,5.2-12.8,7.1-18.7,11.4c-6.5,4.1-11,10.6-17.3,14.9
				c-3.9,2-8.1-2.5-6.8-6.4c1.4-3.7,4.5-6.5,7.3-9.2C1140.1,813.1,1149.9,806.2,1161,802.5z"/>
		</g>
	</g>
	<g>
		<g>
			<path class="st32" d="M1191.6,374.8c-0.7-37.9-1.5-75.8-1.2-113.7c0.1-18.4-1-36.8-2-55.2c-0.9-23.1,0.9-46.3,1.4-69.4
				c0.9-11.9-0.7-23.8-3.8-35.3c-1.8-9.6-7.7-17.6-13.4-25.3c-6.8-9.2-19-12.4-30.1-11.9c-48.2-1.4-96.5-1.8-144.7-1.6
				c0.3-14.4-2.2-29.2-9.6-41.7c-4.6-6.7-10.6-13.3-18.8-15.5c-14.1-5.4-29.3-3.3-43.9-4.8c-10.6-1.1-21.2,0.6-31.8,0.7
				c-12.8,0.1-26.1,1-37.4,7.4c-16.8,12.1-21.3,34.4-20.9,53.9c-51.2-0.1-102.5,0.1-153.7,2c-16.5,1.5-26.2,16.6-32.4,30.3
				c-3.2,11.3-6.1,22.9-5.7,34.7c0.6,28.4,3.2,56.9,1.6,85.3c-1.3,21.3-1.8,42.7-1.3,64.1c0.6,46.8-1.7,93.7-0.1,140.5
				c0.8,35.6,3.1,71.2,3.4,106.8c2.8,42,4.4,84.1,8.7,125.9c1.3,8.4,4.1,16.6,5.1,25.1c1.6,14.5,5.5,28.8,11.8,41.9
				c6.1,8.6,15.8,16.9,27,15.7c31.1-0.7,62.1-1.4,93.2-2c0.3,13.5,3.1,26.8,2.5,40.3c-0.2,10.8,2.9,21.4,3,32.2
				c0.4,23.7,0.6,47.3,1.6,71c1.7,16.6,1.2,33.3,2.6,49.9c2.2,20.2-7.4,39.6-19.4,55.2c-7.4,8.5-15.5,16.4-23.2,24.7
				c-12.3,9.6-17.2,25.1-22.1,39.2c-4.1,10.1-4.4,21.2-5.5,31.9c-1.6,15.9,3.7,33.2,16.3,43.5c9.5,9.1,20.1,16.8,31,24.1
				c15.6,12.7,28,31,29.6,51.5c3.5,17,3.5,34.5,5.8,51.7c1.5,12.5,0.7,25.2,2.9,37.7c1.1,5.5-0.1,11.1-0.3,16.7
				c-1.6,8.2-0.5,16.6-1,24.9c-6.3-0.7-12.7-1.3-19-1.9c-5-0.5-10.6-2.3-15.3,0.2c-6.4,6.1-7.9,15.4-8.7,23.8
				c-0.7,9.2-2.5,18.3-3.4,27.5c-0.4,7.7-0.5,16.3,4.2,22.9c6.8,2.5,14.1,2.4,21.3,3.3c13.4,1,26.9,2.4,40.3,3.2
				c12.6,1.7,25.4,1.5,38.1,2.3c5.4,0.6,11.9-1.8,13.6-7.4c4-18.7,5.9-38,5.4-57.1c0.1-3-1.8-5.2-3.5-7.4c-9-6-20.5-4.1-30.7-5.5
				c2-8.5,1.2-17.4,1.5-26.1c1.1-24.3-1.5-48.5-1.1-72.8c1.9-13.9-1.9-27.5-2.7-41.2c-1.3-7.1-2.9-14.2-5.4-21
				c-4.2-9.3-4.6-20-10.6-28.6c-9.5-17.5-29.3-24.3-43.5-37c-7.2-6.6-14.6-13.8-17.9-23.2c-1.5-10.7,1.7-21.5,6.4-31.1
				c3.7-7.4,6.7-15.4,12.8-21.2c13.1-14,25-29.2,35.1-45.5c7.4-16.1,11.3-34,10.1-51.7c-1.2-12.4-2.8-24.8-3.2-37.2
				c-0.1-12.6-4.2-24.8-5.3-37.3c-3.7-41.6-5.2-83.4-3.8-125.2c18.9-0.1,37.7-0.7,56.6-0.9c30.6-1.7,61.1,0.4,91.7,0.6
				c0.3,10.6,1,21.4,4.1,31.6c2.3,7.3,6.9,14.9,14.7,17.1c8.1,1.8,17.8,5,25-1c7.9-8.1,10.6-19.6,14.6-29.9c1.3,0.4,0.9,3.8,1.8,5.3
				c3.6,12.4,14.8,22.4,27.7,23.7c8.7,0.9,16.4-5.3,20.1-12.7c4.7-9.5,7.8-19.9,8.1-30.5c0.4-0.3,1.1-0.8,1.5-1.1
				c11.4,0.2,22.9,0.8,34.3,0.8c5.1-0.2,10.6,1.1,15.4-1.5c6.9-3.2,12.9-8.4,16.9-14.9c7.7-15.7,10-33.1,12.8-50.2
				c4.3-15,4.6-30.5,5.8-45.9c2.6-31.4,3.4-62.9,5.5-94.4C1188.6,476.7,1192.1,425.8,1191.6,374.8z M910.9,26.2
				c13-1.9,26.7,7.8,28.2,21c2.3,13.6-7.5,27.1-20.5,30.6c-13,4.4-29.3-2.5-33.1-16.1C879.9,45.2,894.2,27.5,910.9,26.2z"/>
		</g>
		<g>
			<path class="st33" d="M857.9,120.2c15.5-1.6,31.1-2.2,46.6-0.5c5.8,0.7,11.7,0.8,17.6,0.4c11.8-0.9,23.7,0.6,35.5,0.2
				c12.5-0.5,24.8,1.9,37.3,1.8c9.5-0.1,18.9,2.2,28.5,2c20.8-0.3,41.5,0.1,62.3,0c11.3-0.2,22.5,1.7,33.8,1.6
				c7.9-0.1,16.4,2.3,21.7,8.5c5.9,7.1,11.5,14.9,13.2,24.2c4.1,14.9,2,30.5,2.3,45.7c-26.7,1.7-52.9-4.9-79-9.9
				c-9.8-2-19.7-3.6-29.4-6.3c-20.3-6.7-40.2-14.6-61.3-18.7c-23.1-5.6-46.8-8.6-70.4-11.1c-14.9-0.1-29.6-2.4-44.4-1.8
				c-24.3,0.4-48.7-1.3-72.9,1.3c-15.3,1.1-30.7,2.7-45.9,4.5c-13.1,1.5-25.2,6.8-37,12.3c-13.8,6.4-25.6,16.2-38.3,24.5
				c1.4-12.3-1.1-24.9,2.7-36.9c3.3-14.4,11-31.2,26.7-35.1c15.5-4.2,31.4-7,47.5-6.4C789.2,120,823.6,120.7,857.9,120.2z"/>
			<path class="st34" d="M799.2,157.5c24.2-2.6,48.6-0.9,72.9-1.3c14.9-0.6,29.6,1.7,44.4,1.8c23.6,2.5,47.3,5.5,70.4,11.1
				c21,4.1,41,12,61.3,18.7c9.6,2.7,19.6,4.3,29.4,6.3c26.1,5,52.3,11.7,79,9.9c1.3,0.1,3.8,0.3,5.1,0.4c-1.6,11-1.7,22.2-3,33.3
				c-1.8,19.3,2.4,39.5-4.4,58.1c-0.1-12.3,0.8-24.5,1.4-36.8c0.3-4.4,0.4-8.8,0.5-13.2c-11.7,4.8-24.2,7.8-36.8,8
				c-19,0.2-38-1.6-56.4-5.9c-35.4-8.9-70.3-19.8-105.7-28.9c-31.6-7.2-63.6-13.7-96-16c-25.4-1.1-51,0-76,4.8
				c-21.8,3.1-43.3,7.8-64.1,14.8c-15.2,5.3-30.7,10-45.3,17c2-13.6-1.2-27.4,2.1-40.9c12.6-8.3,24.5-18.1,38.3-24.5
				c11.8-5.5,24-10.9,37-12.3C768.6,160.2,783.9,158.6,799.2,157.5z"/>
			<path class="st35" d="M1119.4,253.9c-19,0.2-38-1.6-56.4-5.9c-35.4-8.9-70.3-19.8-105.7-28.9c-31.6-7.2-63.6-13.7-96-16
				c-25.4-1.1-51,0-76,4.8c-21.8,3.1-43.3,7.8-64.1,14.8c-15.2,5.3-30.7,10-45.3,17c-1.4,20.2,1.2,40.5,1.6,60.7
				c2.4,74.1,5.9,148.1,10,222.1c2.4,45.1,5.1,90.2,6.7,135.3c0.4,4.1,0.3,10.8,5.6,11.6c33.6-0.4,67.2,0.4,100.9-0.7
				c-0.2,25.4-0.9,50.8,1.3,76.1c1.7,18.9,1.2,38,2.3,56.9c1.9,23.6,1.5,47.4,4,71c2.3,24.2,4.1,48.7,0,72.8
				c-2,18-10.5,35.3-24.5,47.1c-15,12.6-27.9,28.2-34.9,46.8c-5.5,14.9-11.3,30.8-7.9,46.9c1.9,12.6,8.8,24.1,18.4,32.5
				c15.8,13.9,35.2,23.7,49.3,39.6c13.4,15.2,12.9,36.8,13.9,55.9c0,24.4,3.6,48.5,3.6,72.9c0,13.6,1.1,27.3,0.5,40.9
				c8.4,0.5,16.8,1.2,25.1,2.4c1-16.8-0.3-33.5-0.4-50.3c0-21.4-3.4-42.7-3.4-64.2c-0.7-23.6-1.5-48.9-14.8-69.4
				c-11.2-17.2-28.8-28.5-45-40.5c-8-6-17.2-11.8-21.3-21.4c-3.4-9.3,0-19,3-27.9c3.8-11.6,10-22.4,18.5-31.1
				c8.8-8.9,18.9-16.7,26.3-27c10.4-14.4,16.5-31.8,18.6-49.4c1.8-13.1-0.5-26.1-1.4-39.2c-4.6-42.5-5.9-85.3-7.2-128
				c0.9-23.8-2.8-47.5-2-71.2c0.4-13.8,0.8-27.6,0.2-41.4c56.9,2.2,113.9,1,170.8,0.9c0.4,25.3,1.7,50.7,2.2,76
				c-0.2,7.2,3,16.4,11.1,17.4c8.6,1.6,14.9-7.7,14.1-15.6c-0.3-26.3-1.4-52.6-2.2-78.9c10.5-0.7,21.1-0.3,31.6,0
				c0.9,23.4,1.7,46.7,2.3,70.1c0.1,5.7,0.9,12.2,5.6,16.1c4.2,4.1,11.8,3.6,15.5-0.9c3.6-3.5,4.3-8.8,4.3-13.5
				c-0.7-23.9-1.5-47.8-2.3-71.6c18.5,0.1,37-0.2,55.4,0c4-0.1,5.3-4.9,5.5-8.2c1.7-35.1,2.6-70.1,5.1-105.2
				c1.8-35.7,4.5-71.3,5.4-107c3.1-51,4.4-102.2,6.6-153.3c-0.1-12.3,0.8-24.5,1.4-36.8c0.3-4.4,0.4-8.8,0.5-13.2
				C1144.6,250.7,1132.1,253.7,1119.4,253.9z"/>
			<g>
				<path class="st36" d="M785.3,207.9c25-4.8,50.6-5.9,76-4.8c32.5,2.3,64.4,8.8,96,16c35.4,9.1,70.2,20,105.7,28.9
					c18.5,4.3,37.5,6.1,56.4,5.9c12.7-0.2,25.1-3.2,36.8-8c-0.1,4.4-0.2,8.8-0.5,13.2c-14.3,5.9-29.6,8.3-44.7,11.5
					c-15.5,2.7-31.2,3.1-46.9,2.7c-20.8-1-40.4-8.7-60.2-14.4c-21.1-7.7-43.1-12.1-64.4-19c-21.3-6.7-43.4-10.6-65.7-12.2
					c-8.6-0.4-17,1.2-25.5,2.3c-35.7,5.5-71.6,13.2-104.1,29.6c-23.1,12.2-45,26.5-66.8,40.8c-0.4-20.2-3-40.5-1.6-60.7
					c14.5-7,30-11.8,45.3-17C742,215.7,763.5,211,785.3,207.9z"/>
				<path class="st37" d="M848.4,230c8.4-1.1,16.9-2.7,25.5-2.3c22.3,1.7,44.4,5.5,65.7,12.2c21.3,6.9,43.3,11.3,64.4,19
					c19.8,5.7,39.4,13.4,60.2,14.4c15.7,0.4,31.4,0,46.9-2.7c15.1-3.2,30.4-5.6,44.7-11.5c-0.6,12.2-1.5,24.5-1.4,36.8
					c-2.2,51.1-3.5,102.2-6.6,153.3c-0.7,1.9-1.4,3.8-2.2,5.7c-25.5-2.1-51-1.2-76.6-1.8c-90.6-2.2-187.6-5.6-273.7,27.1
					c-22.1,8.4-43,19.8-65.2,27.9c-4.5,1.7-42.8,9.8-42.5,14.5c-4.1-74-7.6-148.1-10-222.1c21.8-14.3,43.7-28.7,66.8-40.8
					C776.8,243.2,812.7,235.5,848.4,230z"/>
			</g>
			<path class="st10" d="M859,1330.9c-2.4-0.1-4.7-0.2-7.1-0.5c-8.3-1.2-16.7-1.9-25.1-2.4c-2.7-0.1-5.3-0.2-7.9-0.3
				c0-8.5,0.3-17.1-1.3-25.5c-1.6,8.2-0.5,16.6-1,24.9c-6.3-0.7-12.7-1.3-19-1.9c-3.4,8-7.3,15.7-11.8,23.2
				c-5.6,9.2-9.2,19.6-15.6,28.3c-0.4,7.7-0.5,16.3,4.2,22.9c6.8,2.5,14.1,2.4,21.3,3.3c13.4,1,26.9,2.4,40.3,3.2
				c11.6-4,20.6-12.6,28.6-21.6c6-7.3,11.7-15.3,14.8-24.3c2.8-8.2,6.7-16,10.2-23.8C880.7,1330.5,869.2,1332.3,859,1330.9z"/>
			<path class="st38" d="M782.3,1325.5c4.7-2.5,10.3-0.8,15.3-0.2c-3.4,8-7.3,15.7-11.8,23.2c-5.6,9.2-9.2,19.6-15.6,28.3
				c0.9-9.2,2.7-18.3,3.4-27.5C774.4,1340.8,776,1331.6,782.3,1325.5z"/>
			<path class="st38" d="M889.7,1336.5c1.6,2.2,3.6,4.4,3.5,7.4c0.5,19.2-1.5,38.4-5.4,57.1c-1.7,5.7-8.2,8.1-13.6,7.4
				c-12.7-0.8-25.5-0.6-38.1-2.3c11.6-4,20.6-12.6,28.6-21.6c6-7.3,11.7-15.3,14.8-24.3C882.3,1352.1,886.1,1344.3,889.7,1336.5z"/>
			<path class="st39" d="M808.9,1346.2c18.1,3.2,36.4,4.1,54.6,7c-0.7,11.2-1.7,22.4-3.9,33.4c-18.7,0-36.8-5.5-55.4-7
				C804.7,1368.3,805.5,1357,808.9,1346.2z"/>
			<g>
				<path class="st33" d="M846.4,58c0.8-1.6,0.6-3.4,0.8-5.2c0.2-1.8,0.5-3.7,0.9-5.5c0.8-3.5,1.7-7,3.2-10.3
					c2.9-6.6,7.4-12.7,13.1-17.2c3.3-2.7,7.1-4.4,10.7-6.6c1.4-0.9,0.6-3.5-1.2-3.2c-3.9,0.8-7.5,3.1-10.7,5.5
					c-3.2,2.3-6.1,5.1-8.6,8.2c-5,6.1-8.7,13.7-10.1,21.5c-0.4,2.1-0.5,4.4-0.5,6.6c0,2.2,0,4.6,1.3,6.4
					C845.5,58.6,846.2,58.4,846.4,58L846.4,58z"/>
			</g>
			<g>
				<path class="st33" d="M946.1,41c2.1,7,2.5,14.4-0.3,21.3c-2.3,5.6-6.4,10.1-11.8,12.9c-1.5,0.8-0.7,2.8,0.9,2.4
					c6.7-1.7,12.2-7.3,14.7-13.5c3.1-7.7,2.3-16.4-0.8-23.9C948.1,38.8,945.7,39.5,946.1,41L946.1,41z"/>
			</g>
			<g>
				<path class="st33" d="M698,72.3c-7.7-1.4-16.1-2-23.7,0.6c-8,2.7-14.1,8.5-17.1,16.4c-3.3,8.6-3.5,18.2-4.3,27.3
					c-0.9,10.8-1.9,21.5-2.8,32.3c-0.5,6.1-1,12.1-1.6,18.2c-0.5,6.1-1.2,12.2-1.4,18.4c-0.1,1.8,2.9,1.9,3.2,0.1
					c0.8-5.2,1.1-10.4,1.6-15.6c0.5-5.2,1-10.4,1.4-15.7c0.9-10.4,1.9-20.7,2.8-31.1c0.5-5.1,0.9-10.2,1.4-15.4
					c0.4-4.2,0.9-8.4,1.8-12.5c0.9-3.9,2.4-7.8,4.9-11c2.2-2.9,5.1-5.2,8.4-6.7c7.7-3.7,16.8-4.6,25.2-4.7
					C698.4,73,698.5,72.4,698,72.3L698,72.3z"/>
			</g>
			<g>
				<path class="st33" d="M1170.1,91.8c-3.3-8.9-12.1-13.4-20.8-15.5c-5.1-1.2-10.4-1.7-15.7-2c-5.5-0.3-11.1-0.5-16.6-0.8
					c-6.4-0.3-12.9-0.8-19.4-0.6c-1.9,0.1-2,3.1-0.1,3.4c5.4,0.7,10.9,0.8,16.3,1.1c5.4,0.2,10.7,0.5,16.1,0.7
					c9.5,0.4,19.6,0.8,28.2,5.4c4.2,2.3,8.1,5.1,11.1,8.8C1169.6,92.9,1170.3,92.4,1170.1,91.8L1170.1,91.8z"/>
			</g>
			<g>
				<path class="st33" d="M666.8,651.7c-0.1,3.1,0.3,6.2,0.6,9.3c0.3,3,0.7,6,1.1,9c0.9,5.9,1.8,11.8,3.1,17.7
					c2.2,10.2,5.5,20.7,13.3,28.1c4.2,4,9.9,7.2,15.8,7.4c0.9,0,1.6-0.9,1.6-1.7c0-0.9-0.6-1.6-1.4-1.8c-2.5-0.7-4.9-1.3-7.2-2.5
					c-2-1-3.9-2.4-5.6-3.9c-3.3-3.1-5.9-6.9-7.8-11c-2.3-4.9-3.7-10.1-4.9-15.4c-1.2-5.5-2.2-10.9-3.1-16.5c-0.5-3.1-1-6.3-1.5-9.5
					c-0.5-3.1-0.7-6.3-1.5-9.3C668.9,650.3,666.9,650.2,666.8,651.7L666.8,651.7z"/>
			</g>
			<g>
				<path class="st33" d="M1039.2,720c-1.2,8.8-1.1,17.7,0.5,26.5c0.7,4.1,1.7,8.1,3.2,12c1.3,3.4,3.3,7.6,6.6,9.5
					c1.5,0.8,3.2-1.2,2.2-2.6c-1.1-1.5-2.5-2.7-3.5-4.2c-0.9-1.5-1.6-3-2.2-4.6c-1.4-3.7-2.4-7.6-3.2-11.5
					c-1.7-8.1-2.7-16.6-2.4-24.9C1040.4,719.4,1039.3,719.3,1039.2,720L1039.2,720z"/>
			</g>
			<g>
				<path class="st33" d="M984.8,715.8c-0.8,7-1.9,14.1-1.7,21.2c0.1,3.5,0.4,7,0.8,10.5c0.5,3.5,0.9,7.2,2.1,10.5
					c0.6,1.7,3.4,1.1,3.1-0.7c-0.5-3.5-1.4-6.8-1.9-10.3c-0.5-3.5-0.8-6.9-0.9-10.4c-0.1-3.5-0.1-7.1,0-10.6
					c0.2-3.3,0.5-6.8-0.4-10.1C985.7,715.2,984.8,715.2,984.8,715.8L984.8,715.8z"/>
			</g>
			<g>
				<path class="st40" d="M686.8,251.2c1.6,0,3.5-0.8,4.9-1.3c1.6-0.5,3.2-1.2,4.8-1.7c3.2-1.1,6.3-2.5,9.5-3.8
					c6.3-2.6,12.4-5.4,18.7-7.9c6.3-2.5,12.7-4.8,19-7.4c3.2-1.3,6.2-2.9,9.4-4.4c3.1-1.5,6.4-2.5,9.6-3.7c3.5-1.3,7.1-2.5,10.6-3.6
					c3.7-1.2,7.4-2.3,11.1-3.5c1.4-0.5,0.9-2.9-0.6-2.6c-6.7,1.2-13.4,3.1-19.9,4.9c-3.3,0.9-6.6,1.8-9.9,2.8
					c-3.3,1-6.8,1.4-10.1,2.3c-6.6,1.7-13,4.4-19.3,7c-6.4,2.6-12.7,5.3-18.9,8.1c-3.6,1.7-7.4,3.5-10.8,5.6c-1.6,1-3.1,2-4.7,3
					c-0.8,0.5-1.5,1-2.3,1.6c-0.8,0.6-1.8,1.2-2.4,2.1C684.5,249.7,685.3,251.2,686.8,251.2L686.8,251.2z"/>
			</g>
			<g>
				<path class="st40" d="M700.9,550.9c0.1,10.6,0.1,21.2,0.4,31.8c0.4,10.5,0.8,21,1.3,31.6c0.2,5.2,0.4,10.4,0.7,15.7
					c0.3,5,0.5,10.1,2,14.9c0.8,2.5,2,5,4,6.8c2.3,2.1,5.2,2.6,8.2,2.7c5.1,0.1,10.3,0,15.4-0.1c5.9,0,11.8-0.1,17.6-0.1
					c3,0,5.9-0.1,8.9-0.3c2.9-0.1,6-0.1,8.9-0.7c1.7-0.4,3-1.4,3.1-3.3c0-1.7-1.1-3.1-2.8-3.5c-2.5-0.5-5.1-0.5-7.6-0.6
					c-2.8-0.1-5.6-0.3-8.3-0.3c-5.1,0-10.1,0-15.2,0c-5.1,0-10.1,0-15.2,0c-1.2,0-2.3,0-3.5,0c-0.6,0-1.2,0-1.8,0
					c0.2,0,0.8,0.1-0.1,0c-0.3,0-0.6-0.1-0.8-0.1c-0.3,0-0.5-0.1-0.8-0.2c0.3,0.1,0.6,0.3,0-0.1c0.9,0.6-0.6-0.5-0.2-0.1
					c0.4,0.3-0.1-0.2-0.2-0.3c-0.1-0.2-0.2-0.3-0.3-0.5c-0.1-0.2-0.3-0.4-0.4-0.7c0.3,0.6,0,0-0.1-0.3c-0.4-1-0.8-2.1-1.1-3.1
					c-0.1-0.3-0.2-0.6-0.2-0.9c0,0.1,0.1,0.5,0,0c-0.1-0.7-0.2-1.3-0.3-2c-0.3-2.3-0.5-4.6-0.7-6.8c-0.5-5.1-1-10.2-1.6-15.3
					c-1-10.1-2.1-20.1-3.2-30.1c-1.3-11.4-3-22.7-4.5-34.1C702.4,549.9,700.9,550,700.9,550.9L700.9,550.9z"/>
			</g>
			<g>
				<path class="st40" d="M1128.4,635.2c-0.6-0.4-1.6-0.1-2.2,0.3c-0.8,0.6-1,1.5-1.3,2.4c-0.6,2-1.2,4.1-1.8,6.1
					c-0.6,2-1.1,4.1-1.6,6.1c-0.1,0.4-0.2,0.7-0.3,1.1c-0.1,0.4-0.1,0.5,0,0.1c-0.1,0.2-0.1,0.4-0.2,0.5c-0.1,0.2-0.2,0.3-0.3,0.5
					c0.2-0.3,0.2-0.3-0.1,0.1c0.6-0.3-0.3,0.2-0.4,0.2c0.7-0.4-0.4,0.1-0.4,0.1c0.7-0.2-0.3,0-0.5,0.1c-1,0.1-2,0.2-3,0.2
					c-2.2,0.1-4.3,0.2-6.4,0.5c-4.3,0.4-8.8,0.3-12.9,1.8c-1.8,0.7-2.1,3.6-0.2,4.3c4.5,1.7,9.6,1.4,14.3,1.4c2.3,0,4.6-0.1,7-0.3
					c2.3-0.2,4.5-0.5,6.5-1.6c4.2-2.4,4.3-8.1,4.4-12.4c0.1-2.2,0.1-4.4,0.2-6.6C1129.3,638.8,1129.9,636.1,1128.4,635.2
					L1128.4,635.2z"/>
			</g>
			<g>
				<path class="st40" d="M1008.6,755.6c-0.3-0.6-0.5-1.2-0.8-1.8c-0.2-0.6-0.5-1.1-0.7-1.6c-0.1-0.3-0.2-0.6-0.3-0.9
					c0-0.1-0.1-0.3-0.1-0.4c-0.2-0.7,0.1,0.6-0.1-0.3c-0.1-0.4-0.2-0.8-0.3-1.1c0-0.1-0.1-0.3-0.1-0.4c-0.1-0.5,0,0.2,0-0.1
					c-0.2-1.3-0.4-2.5-0.4-3.8c0-0.1,0-0.3,0-0.4c0,0.4,0,0.2,0-0.1c0-0.3,0.1-0.6,0.1-0.9c0.1-0.7,0.2-1.4,0.3-2
					c0.6-2.7-3.6-4.1-4.6-1.5c-1.2,3.1-1.3,6.7-0.2,9.9c0.5,1.5,1.3,2.8,2.3,3.9c0.6,0.6,1.2,1.3,1.9,1.8c0.6,0.4,1.3,0.7,2,1
					C1008.2,756.9,1009,756.2,1008.6,755.6L1008.6,755.6z"/>
			</g>
			<g>
				<path class="st40" d="M1066.8,750.8c-0.3-0.6-1-0.7-1.5-1.1c-0.4-0.4-0.8-0.8-1.2-1.3c-0.9-1.1-1.4-2.4-1.8-3.8
					c-1.1-3.3-1.7-6.7-1.5-10.2c0-1.3-1.5-2.3-2.7-2.2c-1.4,0.1-2.2,1.3-2.2,2.7c0,4.2,0.8,8.5,2.7,12.3c0.8,1.6,1.8,3.1,3.1,4.2
					c1.2,1,3.7,2,5,0.8C1067.1,751.9,1067,751.2,1066.8,750.8L1066.8,750.8z"/>
			</g>
			<g>
				<path class="st40" d="M808.1,679.1c-1.8,4.5-2.4,9.6-3.1,14.4c-0.7,5-1,10-1,15.1c0.1,10.1,1,20.3,1.2,30.4
					c0.1,5.7-0.2,11.4-0.3,17.1c0,1.5,2.3,1.5,2.6,0.1c1-4.9,1.1-9.9,1.1-14.9c0-5-0.1-10.1-0.4-15.1c-0.4-10-0.9-20-0.9-30
					c0-2.8,0.1-5.5,0.4-8.3c0.3-2.9,0.9-5.7,1.2-8.6C808.8,678.8,808.2,678.7,808.1,679.1L808.1,679.1z"/>
			</g>
			<g>
				<path class="st40" d="M814.2,948.1c-0.7,3-1.7,5.9-2.9,8.7c-1.1,2.7-2.1,5.4-3.4,8c-2.5,5.3-5.6,10.4-9,15.2
					c-3.5,4.9-7,9.7-10.7,14.4c-3.8,4.8-7.7,9.6-11.4,14.5c-4.2,5.6-8.3,11.3-11.3,17.6c-0.6,1.2,1.2,2.5,2,1.3
					c3.4-5.2,7-10.3,10.8-15.3c3.8-5,7.9-9.8,11.9-14.6c3.9-4.7,7.9-9.5,11.3-14.5c3.4-5,6.4-10.3,8.8-15.8c1.3-2.9,2.6-6,3.3-9.2
					c0.7-3.3,1.1-6.7,1.3-10.1C814.9,947.9,814.3,947.7,814.2,948.1L814.2,948.1z"/>
			</g>
			<g>
				<path class="st40" d="M833.1,1317.4c0.5-1.3,0.5-2.6,0.5-4c0.1-1.6,0.2-3.3,0.3-4.9c0.2-2.9,0.3-5.9,0.4-8.8
					c0.1-6.1,0.2-12.2,0.2-18.3c0-12.2-0.5-24.3-1.7-36.4c-0.7-6.8-1.4-13.7-2.8-20.4c-0.4-1.7-3-1.6-2.8,0.3c0.5,6,1.6,12,2.3,17.9
					c0.7,6,1.1,12.1,1.4,18.2c0.6,12,0.6,24,0.4,36c-0.1,3.5-0.1,6.9-0.1,10.4c0,1.6,0,3.3,0,4.9c0,1.7-0.2,3.5,0.3,5.2
					C831.7,1318.3,832.8,1318.1,833.1,1317.4L833.1,1317.4z"/>
			</g>
		</g>
		<g>
			<g>
				<path class="st41" d="M1102.2,320.8c-8.8-15.9-23.6-28.3-40.7-34.3c-22.4-8.3-47.3-6.8-70.1-0.8c-26.3,7.2-52,18.1-73.9,34.6
					c-2.3,1.9-4.7-1-6.7-2c-10.3-8.1-22.1-13.9-33.9-19.5c-27.1-12.1-56.9-20.7-86.8-16.8c-21.5,3.1-43.5,12.8-56.1,31.1
					c-8.2,11.4-13.4,24.7-15.7,38.6c-4.3,31.1,1.5,62.7,11.4,92.1c6.4,19.9,16,38.6,26.1,56.9c12.7,22.4,28.1,43.2,45.3,62.2
					c20.9,24.2,44.9,45.7,71.2,63.9c13.2,8.3,26.6,16.2,40.2,23.8c3.1,2.3,6.6-0.3,9.4-1.7c9.7-6.3,20.8-10.7,29.2-18.7
					c15.5-12,86.4-71.6,101.8-94.3c7.9-12.7,16.8-24.8,24-38c7.9-14.5,15.3-29.4,21.3-44.9c9.5-24.5,16.3-50.6,15.9-77.1
					C1115.1,357.1,1111.8,337.5,1102.2,320.8z"/>
				<path class="st42" d="M790.2,282.1c29.9-3.9,59.8,4.7,86.8,16.8c11.8,5.6,23.6,11.4,33.9,19.5c2,1,4.3,4,6.7,2
					c21.9-16.5,47.6-27.4,73.9-34.6c22.8-6,47.6-7.5,70.1,0.8c-9.6,1.8-19.5,1.8-29.1,3.4c-17.1,2.3-33.8,7-49.5,14.1
					c-19.4,7.7-38.3,17.6-59.2,20.6c-10.2,0.6-18.6-6.6-28.2-8.8c-34.2-8.9-70.4-12-105.4-5.7c-16.7,3.6-33.8,8.2-47.7,18.6
					c-8.8,6.5-15,15.7-21.9,24.1c-0.5-0.3-1.5-0.9-2-1.1c2.2-13.8,7.5-27.2,15.7-38.6C746.7,294.8,768.7,285.1,790.2,282.1z"/>
				<path class="st43" d="M1084.8,397.1c-26.9,16.4-54,33-84.1,43.6c-32.2,11.4-66.4,14.2-100.3,15.9c-39,2-78.5,2.9-117.2-3.3
					c-17.8-2.8-35.3-7.6-53.3-9.5c6.4,19.9,16,38.6,26.1,56.9c12.7,22.4,28.1,43.2,45.3,62.2c20.9,24.2,44.9,45.7,71.2,63.9
					c13.2,8.3,26.6,16.2,40.2,23.8c3.1,2.3,6.6-0.3,9.4-1.7c9.7-6.3,20.8-10.7,29.2-18.7c15.5-12,86.4-71.6,101.8-94.3
					c7.9-12.7,16.8-24.8,24-38c7.9-14.5,15.3-29.4,21.3-44.9c9.5-24.5,16.3-50.6,15.9-77.1C1103.9,382.3,1095.2,390.8,1084.8,397.1z
					"/>
			</g>
			<g>
				<path class="st40" d="M732.2,379.9c0.3-4.2,0.4-8.3,0.5-12.5c0.1-4.1,0.5-8.3,0.9-12.4c0.4-4.1,1-8.2,1.8-12.2
					c0.4-2,0.8-4,1.4-6c0.1-0.2,0.1-0.3,0.2-0.5c0,0.1-0.2,0.5,0,0.1c0.1-0.4,0.3-0.8,0.4-1.2c0.3-0.8,0.6-1.6,0.9-2.4
					c1.2-3,2.6-5.8,4.2-8.5c0.2-0.4,0.4-0.7,0.7-1.1c-0.3,0.5,0.2-0.3,0.3-0.4c0.5-0.7,1-1.4,1.5-2.1c1-1.3,2-2.6,3.1-3.8
					c4.3-4.9,8.5-8.7,14.1-12.4c6.2-4.1,12.7-6.8,19.7-9.4c1.2-0.5,2-1.8,1.6-3.1c-0.3-1.2-1.5-2.3-2.8-2.1
					c-6.9,1.4-13.5,4.3-19.7,7.7c-6.1,3.4-11.7,7.6-16.6,12.5c-4.8,4.8-8.7,10.6-11.6,16.7c-3.4,7.4-4.8,15.6-4.5,23.7
					c0.2,4.9,0.8,9.7,1.5,14.5c0.7,4.9,1.2,9.9,1.6,14.9C731.3,380.5,732.1,380.5,732.2,379.9L732.2,379.9z"/>
			</g>
			<g>
				<path class="st40" d="M955,309.5c1.8-0.8,3.7-1.6,5.4-2.6c1.7-1,3.5-1.9,5.3-2.7c3.6-1.7,7.3-3.2,11.1-4.6
					c3.8-1.4,7.7-2.7,11.7-3.7c3.9-1,7.5-2,11.3-2.7c7.9-1.5,16-2.3,24-2.2c1,0,2.1,0,3.1,0.1c0,0,0.6,0,0.3,0c-0.4,0,0.4,0,0.5,0
					c0.6,0,1.2,0.1,1.7,0.1c2,0.1,4,0.3,6,0.5c4,0.4,8,1,11.9,1.8c8.9,1.8,17.5,4.7,26.2,7.2c1.8,0.5,3-2.2,1.5-3.2
					c-6.9-5-15-8.2-23.2-10.2c-8.3-2.1-16.7-3.1-25.2-3.3c-16.7-0.4-33.7,2.5-49,9.5c-4.3,2-8.5,4.2-12.5,6.8
					c-1.9,1.2-3.8,2.5-5.6,3.9c-1.9,1.4-3.6,3-5.2,4.8C954,309.1,954.6,309.7,955,309.5L955,309.5z"/>
			</g>
		</g>
		<g>
			<g class="st44">
				<path d="M921.9,363.5c-1.7,1.9-3.4,3.8-5,5.8c-10.4,15-50.3,81.2-57.9,99.9c-7.6,18.8-12.8,40.8-5.7,60.6
					c11.9,33,50.5,42.6,82.1,38.6c21-2.7,40.6-12.8,49.1-33c16-38.1-10-80.4-19.1-96.7C949,409.2,925.6,367.6,921.9,363.5z"/>
				<path d="M964.5,443.1c-0.6-1.1-1.2-2.1-1.7-3c-20.2-36.4-35.5-63.1-41.2-71.8c-0.4,0.4-0.7,0.8-1.1,1.3
					c6.5,13.5,14.3,29.8,22.9,48.2c0.5,1.1,1.1,2.3,1.7,3.5C955.5,443,977,488.1,962.4,529c-4.2,11.8-15.8,32.2-46.7,36.9
					c-0.4,0.1-0.9,0.1-1.3,0.2c2.5,0.2,4.9,0.3,7.5,0.3c0,0,0,0,0,0c4.4,0,8.9-0.3,13.2-0.8c30.9-3.9,42.5-21.2,46.7-31.2
					C996.3,499.6,974.8,461.4,964.5,443.1z"/>
				<path d="M876.3,464.9c4.4-1.4,9.3,2.2,10,6.6c1.8,10.7-2.8,20.8-4.4,31.2c-1.4,7.9,2.3,15.8,0.7,23.7
					c-3.1,9.4-18.1,10.3-22.1,1.2c-5.4-13.3-4.4-28.3-0.7-41.8C862.2,477.2,867.8,468.6,876.3,464.9z"/>
				<path d="M863,500.8c-1.3,1-1.8,2.2-2.1,3.8c-0.2,0.9-0.3,1.7-0.4,2.6c-0.3,2-0.3,4-0.2,6c0.1,2.1,0.6,4.1,1.1,6.1
					c0.2,0.9,0.5,1.7,0.8,2.6c0.1,0.4,0.3,0.9,0.4,1.3c0.5,1.2,1.1,2,2,3c0.6,0.7,1.9,1.1,2.7,1.3c1.3,0.2,2.5,0,3.6-0.6
					c2.1-1.1,3.2-3.2,3.1-5.6c-0.1-2-1.3-4-1.9-5.9c-0.5-1.5-0.9-3-1.4-4.5c-0.4-1.5-0.8-3-1.2-4.5c-0.1-0.2-0.1-0.4-0.2-0.6
					c0.1,0.6,0.1,0.7,0,0.2c-0.1-0.3-0.1-0.7-0.2-1c-0.1-0.7-0.2-1.4-0.4-2c-0.3-0.8-0.8-1.4-1.5-2C866.2,500,864.2,499.9,863,500.8
					L863,500.8z"/>
			</g>
			<g>
				<path class="st45" d="M914.9,350.5c-1.7,1.9-3.4,3.8-5,5.8c-10.4,15-50.3,81.2-57.9,99.9c-7.6,18.8-12.8,40.8-5.7,60.6
					c11.9,33,50.5,42.6,82.1,38.6c21-2.7,40.6-12.8,49.1-33c16-38.1-10-80.4-19.1-96.7C942,396.2,918.6,354.6,914.9,350.5z"/>
				<path class="st43" d="M957.5,430.1c-0.6-1.1-1.2-2.1-1.7-3c-20.2-36.4-35.5-63.1-41.2-71.8c-0.4,0.4-0.7,0.8-1.1,1.3
					c6.5,13.5,14.3,29.8,22.9,48.2c0.5,1.1,1.1,2.3,1.7,3.5C948.5,430,970,475.1,955.4,516c-4.2,11.8-15.8,32.2-46.7,36.9
					c-0.4,0.1-0.9,0.1-1.3,0.2c2.5,0.2,4.9,0.3,7.5,0.3c0,0,0,0,0,0c4.4,0,8.9-0.3,13.2-0.8c30.9-3.9,42.5-21.2,46.7-31.2
					C989.3,486.6,967.8,448.4,957.5,430.1z"/>
				<g>
					<path class="st46" d="M869.3,451.9c4.4-1.4,9.3,2.2,10,6.6c1.8,10.7-2.8,20.8-4.4,31.2c-1.4,7.9,2.3,15.8,0.7,23.7
						c-3.1,9.4-18.1,10.3-22.1,1.2c-5.4-13.3-4.4-28.3-0.7-41.8C855.2,464.2,860.8,455.6,869.3,451.9z"/>
				</g>
				<g>
					<path class="st47" d="M856,487.8c-1.3,1-1.8,2.2-2.1,3.8c-0.2,0.9-0.3,1.7-0.4,2.6c-0.3,2-0.3,4-0.2,6c0.1,2.1,0.6,4.1,1.1,6.1
						c0.2,0.9,0.5,1.7,0.8,2.6c0.1,0.4,0.3,0.9,0.4,1.3c0.5,1.2,1.1,2,2,3c0.6,0.7,1.9,1.1,2.7,1.3c1.3,0.2,2.5,0,3.6-0.6
						c2.1-1.1,3.2-3.2,3.1-5.6c-0.1-2-1.3-4-1.9-5.9c-0.5-1.5-0.9-3-1.4-4.5c-0.4-1.5-0.8-3-1.2-4.5c-0.1-0.2-0.1-0.4-0.2-0.6
						c0.1,0.6,0.1,0.7,0,0.2c-0.1-0.3-0.1-0.7-0.2-1c-0.1-0.7-0.2-1.4-0.4-2c-0.3-0.8-0.8-1.4-1.5-2
						C859.2,487,857.2,486.9,856,487.8L856,487.8z"/>
				</g>
			</g>
		</g>
		<g>
			<path class="st48" d="M1117.2,553.3c-17.9-3.5-36.2-2.4-54.3-2.7c-23.1-0.3-46.2-2.1-69.4-2.3c-8.1-0.1-16.2,0.2-24.3,0.7
				c-3.4,0.3-6.8,0.6-10.1,1c-0.1,0.6-0.3,1.7-0.4,2.3c-1,24.3,0,48.7,0.9,73.1c0.1,1.7,0.1,3.8,2,4.7c4.9,0.8,9.9,0.4,14.8,0.7
				c37.6,1.1,75.1,1.1,112.7,2.5c8.7,0.1,17.4,0.5,26.1,0.3c1.8-16.8,2.2-33.8,2.8-50.7C1118.1,573,1118.4,563.1,1117.2,553.3z"/>
			<path class="st49" d="M979.8,572c2.7-4.3,8-3.2,12.3-3.1c20.7,1.1,41.4,0.9,62,0.9c12.8-0.3,25.5,1.7,38.2,0.4
				c3.2-0.6,5.2,4.4,2.3,6.1c-2.1,0.4-4.1-0.1-6.2-0.2c-13.5-1.5-27,0-40.5-0.9c-16.1-1.4-32.2-0.8-48.4-1.1
				C993,573.8,985.8,575.4,979.8,572z"/>
			<path class="st49" d="M980.3,583.2c10.3-2.1,21-0.2,31.5-0.1c23.7,1.6,47.4,0,71.1,1.1c3.6,0.3,7.4,0.1,10.9,1.3
				c1.9,1.6,0.7,5-1.8,4.8c-15.6,1-31.3,0.5-46.9-0.7c-17.7-0.1-35.4-0.2-53.1,0c-3.9-0.1-8,0.2-11.7-1.2
				C978,587.6,978.3,584.1,980.3,583.2z"/>
			<path class="st49" d="M1063.5,607.7c7.4-1.3,15-1.3,22.4-1.2c2.4-0.3,4.4,1.1,6.4,2.4c-1.4,1.3-2.8,3.1-4.9,3
				c-8.1,0.8-16.2,0.2-24.3-0.4C1063.1,610.5,1063.4,608.6,1063.5,607.7z"/>
		</g>
	</g>
</g>
</svg>
