<!-- Generator: Adobe Illustrator 23.0.1, SVG Export Plug-In  -->
<svg version="1.1" xmlns="http://www.w3.org/2000/svg" xmlns:xlink="http://www.w3.org/1999/xlink" x="0px" y="0px" width="780px"
	 height="150px" viewBox="0 0 780 150" style="enable-background:new 0 0 780 150;" xml:space="preserve">
<style type="text/css">
	.st0{fill:#FFFFE1;}
	.st1{fill:none;stroke:#AC0000;stroke-width:5;stroke-linecap:square;stroke-linejoin:round;stroke-miterlimit:10;}
	.st2{fill:#FF0000;stroke:#FF0000;stroke-miterlimit:10;}
	.st3{fill:url(#SVGID_1_);}
	.st4{fill:#FFFFE1;stroke:#C1272D;stroke-width:3;stroke-miterlimit:10;}
	.st5{fill:#C1272D;}
	.st6{fill:url(#SVGID_2_);}
	.st7{fill:url(#SVGID_3_);}
	.st8{fill:url(#SVGID_4_);}
</style>
<defs>
</defs>
<rect x="0" class="st0" width="777" height="150"/>
<path class="st1" d="M2.5,83h29.1l4.7,18l7.8-32l6.2,14h28.1c4.4-16.8,8.8-33.7,13.3-50.5c3.4,8.5,6.8,17,10.1,25.5l4.7-9
	c3.4,11.5,6.8,23,10.1,34.5c8.6-0.2,17.2-0.3,25.7-0.5l10.9,56l21.8-102c2.3,15.2,4.7,30.3,7,45.5c47,0.2,94.1,0.3,141.1,0.5l9.4-16
	c2.6,8.8,5.3,17.7,7.9,26.5c2.3-6,4.7-12,7-18c2,2.7,4,5.3,6,8c3.4-11.2,6.8-22.3,10.3-33.5l12.5,95l15.6-74l4.7,23l3.1-11h52.7
	l15.9,37l20.3-69l17.2,52l4.7-26l1.6,7h23.4l15.6-54l7.8,54h14l6.2,18l9.4-18h98.2l6.2,22l12.5-37l4.7,15c22.4,0,67.6,0,67.6,0"/>
<path class="st2" d="M248.5,97"/>
<linearGradient id="SVGID_1_" gradientUnits="userSpaceOnUse" x1="226.4894" y1="73.1254" x2="242.9212" y2="73.1254">
	<stop  offset="0" style="stop-color:#FFFFFF;stop-opacity:0.24"/>
	<stop  offset="7.854577e-02" style="stop-color:#FDF9F9;stop-opacity:0.2158"/>
	<stop  offset="0.1884" style="stop-color:#F6E6E7;stop-opacity:0.182"/>
	<stop  offset="0.3168" style="stop-color:#ECC8CA;stop-opacity:0.1425"/>
	<stop  offset="0.4592" style="stop-color:#DD9FA1;stop-opacity:9.869808e-02"/>
	<stop  offset="0.6131" style="stop-color:#CA696E;stop-opacity:5.133012e-02"/>
	<stop  offset="0.7745" style="stop-color:#B4292F;stop-opacity:1.663521e-03"/>
	<stop  offset="0.7799" style="stop-color:#B3272D;stop-opacity:0"/>
</linearGradient>
<path class="st3" d="M244,39.5c-4.2,4.6-7.1,8.8-9,12c-1.5,2.5-10.7,18.1-10,36c0,1.1,0.3,6.3,3,12c1.5,3.2,2.9,6.1,6,7
	c2.4,0.7,5.5,0,7-2c2.4-3.2-0.3-8.6-1-10c-1.1-2.3-2.8-4.1-5-9.1c0,0-0.1-0.2-0.1-0.3c-0.7-1.5-2.9-7-2.9-13.7c0-5.2,1.3-9,3-14
	C236.6,52.9,239.3,46.6,244,39.5z"/>
<path class="st4" d="M686,52.6h-90.6c-2.3,0-4.1-1.8-4.1-4.1V22c0-2.3,1.8-4.1,4.1-4.1H686c2.3,0,4.1,1.8,4.1,4.1v26.5
	C690.1,50.8,688.3,52.6,686,52.6z"/>
<polygon class="st5" points="692.2,60.1 687.8,53.6 693.1,50.1 674.1,40.9 675.6,61.9 681.4,58 685.8,64.5 "/>
<g>
	<path class="st5" d="M606.9,28.1h3.2c2.1,0,3.6,0.3,4.7,0.8c1,0.5,1.9,1.4,2.5,2.5c0.7,1.2,1,2.5,1,4.1c0,1.1-0.2,2.1-0.6,3.1
		c-0.4,0.9-0.9,1.7-1.5,2.3c-0.6,0.6-1.3,1-2.1,1.3c-0.8,0.2-2.1,0.4-3.9,0.4h-3.3V28.1z M609.6,30.8v9.1h1.3c1.3,0,2.2-0.1,2.7-0.4
		c0.6-0.3,1-0.8,1.4-1.4c0.4-0.7,0.5-1.5,0.5-2.5c0-1.5-0.4-2.7-1.3-3.6c-0.8-0.8-2-1.1-3.7-1.1H609.6z"/>
	<path class="st5" d="M625.6,31.6c1,0,1.9,0.3,2.8,0.8c0.9,0.5,1.6,1.2,2.1,2c0.5,0.9,0.7,1.8,0.7,2.8c0,1-0.2,1.9-0.7,2.8
		c-0.5,0.9-1.2,1.6-2,2s-1.8,0.7-2.8,0.7c-1.5,0-2.8-0.5-3.9-1.6c-1.1-1.1-1.6-2.4-1.6-4c0-1.7,0.6-3,1.8-4.2
		C623,32.1,624.3,31.6,625.6,31.6z M625.7,34.1c-0.8,0-1.5,0.3-2.1,0.9s-0.8,1.3-0.8,2.2c0,0.9,0.3,1.7,0.8,2.2
		c0.5,0.6,1.2,0.9,2.1,0.9s1.5-0.3,2.1-0.9c0.6-0.6,0.8-1.3,0.8-2.2s-0.3-1.7-0.8-2.2C627.2,34.4,626.5,34.1,625.7,34.1z"/>
	<path class="st5" d="M633.5,31.9h2.7V33c0.6-0.5,1.2-0.9,1.6-1.1s1-0.3,1.5-0.3c1.1,0,2,0.4,2.7,1.1c0.6,0.6,0.9,1.6,0.9,2.8v7
		h-2.6v-4.7c0-1.3-0.1-2.1-0.2-2.5c-0.1-0.4-0.3-0.7-0.6-1c-0.3-0.2-0.6-0.3-1-0.3c-0.5,0-1,0.2-1.4,0.5c-0.4,0.4-0.7,0.9-0.8,1.5
		c-0.1,0.3-0.1,1.1-0.1,2.2v4.3h-2.7V31.9z"/>
	<path class="st5" d="M653.3,31.9h2.7v10.6h-2.7v-1.1c-0.5,0.5-1,0.9-1.6,1.1c-0.5,0.2-1.1,0.3-1.7,0.3c-1.4,0-2.6-0.5-3.6-1.6
		c-1-1.1-1.5-2.4-1.5-4c0-1.6,0.5-3,1.5-4c1-1,2.1-1.6,3.5-1.6c0.6,0,1.2,0.1,1.8,0.4c0.6,0.2,1.1,0.6,1.6,1.1V31.9z M650.5,34.1
		c-0.8,0-1.5,0.3-2.1,0.9c-0.5,0.6-0.8,1.3-0.8,2.2c0,0.9,0.3,1.7,0.8,2.3c0.6,0.6,1.2,0.9,2.1,0.9c0.8,0,1.5-0.3,2.1-0.9
		s0.8-1.3,0.8-2.3c0-0.9-0.3-1.7-0.8-2.2S651.4,34.1,650.5,34.1z"/>
	<path class="st5" d="M659,28h2.7v3.9h1.6v2.3h-1.6v8.3H659v-8.3h-1.4v-2.3h1.4V28z"/>
	<path class="st5" d="M675.4,38h-8.6c0.1,0.8,0.5,1.4,1,1.8c0.5,0.4,1.2,0.7,2.1,0.7c1,0,1.9-0.3,2.6-1l2.2,1.1
		c-0.6,0.8-1.2,1.4-2,1.8c-0.8,0.4-1.7,0.6-2.8,0.6c-1.7,0-3-0.5-4.1-1.6c-1.1-1.1-1.6-2.4-1.6-4c0-1.6,0.5-3,1.6-4
		c1-1.1,2.4-1.6,3.9-1.6c1.7,0,3,0.5,4.1,1.6c1.1,1.1,1.6,2.5,1.6,4.2L675.4,38z M672.7,35.9c-0.2-0.6-0.5-1.1-1-1.4
		c-0.5-0.4-1.1-0.6-1.8-0.6c-0.7,0-1.4,0.2-2,0.6c-0.4,0.3-0.7,0.7-1,1.4H672.7z"/>
</g>
<radialGradient id="SVGID_2_" cx="250.8377" cy="74.5106" r="44.7422" gradientUnits="userSpaceOnUse">
	<stop  offset="0" style="stop-color:#E10000"/>
	<stop  offset="0.7905" style="stop-color:#CB002C"/>
	<stop  offset="0.902" style="stop-color:#A6162D"/>
	<stop  offset="1" style="stop-color:#89272D"/>
</radialGradient>
<path class="st6" d="M250,30.5l-27.6,48.8c-11.3,20,3.1,44.8,26.1,44.8h3c23,0,37.5-24.8,26.1-44.8L250,30.5z"/>
</svg>
